<?xml version="1.0" standalone="no"?>
<!DOCTYPE svg PUBLIC "-//W3C//DTD SVG 20010904//EN"
 "http://www.w3.org/TR/2001/REC-SVG-20010904/DTD/svg10.dtd">
<svg version="1.0" xmlns="http://www.w3.org/2000/svg"
 width="8687.000000pt" height="2369.000000pt" viewBox="0 0 8687.000000 2369.000000"
 preserveAspectRatio="xMidYMid meet">

<g transform="translate(0.000000,2369.000000) scale(0.100000,-0.100000)"
fill="#000000" stroke="none">
<path d="M81152 23637 c-40 -43 -30 -73 89 -279 206 -354 309 -581 309 -681 0
-131 -82 -411 -203 -697 -74 -174 -293 -615 -412 -830 -193 -346 -449 -759
-658 -1060 -287 -414 -504 -669 -706 -828 -28 -22 -24 -34 23 -56 35 -16 36
-16 143 28 381 158 647 294 1378 706 395 223 559 314 665 366 41 21 109 44
490 166 248 79 358 140 509 284 280 266 390 509 390 859 0 374 -215 720 -697
1124 -166 139 -370 286 -762 549 -280 188 -506 347 -516 363 -8 14 -19 11 -42
-14z"/>
<path d="M4975 22191 c-16 -5 -49 -9 -72 -10 -72 -2 -109 -69 -84 -153 9 -30
23 -46 58 -68 50 -32 67 -32 38 0 -10 11 -16 23 -13 26 3 2 52 -5 109 -16 567
-116 1203 -708 1684 -1569 202 -362 353 -784 400 -1121 14 -102 16 -257 12
-1395 -3 -1098 -6 -1292 -19 -1365 -23 -128 -45 -202 -99 -343 -82 -211 -80
-198 -89 -772 -6 -461 -9 -523 -29 -640 -13 -71 -34 -200 -47 -285 l-24 -155
-20 -1848 -20 -1848 -95 -577 c-52 -317 -98 -588 -101 -602 -3 -14 -10 -239
-14 -500 -7 -497 -10 -522 -60 -720 -32 -126 -83 -257 -165 -425 -224 -458
-625 -942 -1275 -1540 -36 -33 -90 -83 -120 -110 -79 -73 -435 -377 -646 -551
-99 -82 -322 -266 -495 -409 -172 -143 -386 -323 -474 -399 -209 -182 -510
-480 -693 -686 -303 -340 -437 -456 -589 -514 -134 -50 -251 -70 -473 -81
-263 -14 -398 40 -579 229 -190 200 -251 257 -293 276 -141 64 -281 -36 -410
-295 -112 -223 -237 -632 -238 -775 0 -163 134 -435 347 -700 63 -79 304 -328
383 -396 352 -301 666 -481 980 -561 133 -34 310 -38 405 -9 213 65 406 237
590 526 85 134 240 447 351 710 127 302 137 319 314 585 158 238 309 440 608
818 185 234 216 273 307 382 28 33 129 157 225 275 96 118 206 253 245 300
173 207 478 603 617 800 175 249 199 289 255 429 99 250 211 439 292 495 52
36 89 45 150 35 151 -24 185 -125 127 -379 -38 -168 -42 -210 -21 -251 41 -79
142 -214 236 -312 393 -415 875 -660 1145 -582 266 77 515 457 615 940 34 164
31 280 -10 420 -33 115 -164 525 -209 655 -24 71 -26 89 -32 365 -8 309 -5
290 -75 535 -14 52 -89 302 -165 555 -188 626 -247 842 -303 1115 -21 104 -22
117 -25 1485 -3 1465 -1 1556 43 1864 81 557 324 1609 566 2456 117 406 104
378 386 895 360 660 521 1003 632 1341 70 215 107 398 148 729 22 181 24 580
5 720 -76 536 -243 1082 -472 1535 -148 295 -281 494 -467 700 -247 274 -561
466 -866 529 -145 30 -260 36 -737 36 l-485 0 -499 100 c-492 99 -612 117
-671 101z"/>
<path d="M35845 21671 c-42 -11 -66 -25 -95 -56 l-25 -27 39 -71 c129 -237
279 -418 715 -862 410 -417 545 -605 623 -865 25 -83 35 -272 19 -366 -65
-381 -362 -780 -881 -1184 -287 -224 -581 -410 -1032 -654 -40 -22 -48 -31
-48 -54 0 -16 9 -39 20 -52 20 -23 20 -23 242 -17 222 5 325 17 516 58 351 75
769 224 1177 419 131 62 226 118 570 335 334 212 726 369 1070 431 167 29 266
10 342 -68 53 -54 73 -102 73 -176 0 -169 -168 -306 -615 -502 -232 -101 -279
-123 -337 -157 -32 -19 -58 -40 -58 -46 0 -7 18 -30 39 -51 l40 -39 138 47
c76 27 417 149 758 273 658 240 951 341 1236 428 212 64 200 60 434 177 l187
93 346 5 347 6 95 36 c366 139 678 322 750 441 54 89 -7 209 -160 314 -173
118 -553 244 -915 303 -283 47 -397 13 -750 -221 -93 -61 -199 -126 -235 -143
l-65 -31 -415 -6 -415 -6 -115 -32 c-104 -30 -124 -32 -210 -27 -199 11 -329
81 -394 212 -51 103 -58 148 -66 480 -9 337 -22 449 -66 558 -33 82 -76 143
-139 195 -67 55 -135 87 -285 131 -131 39 -200 63 -725 255 -1112 406 -1597
550 -1730 516z"/>
<path d="M68423 21410 c-28 -16 -54 -34 -58 -40 -3 -5 21 -84 55 -175 92 -251
110 -322 110 -427 0 -184 -66 -512 -200 -999 -28 -100 -66 -245 -86 -323 -94
-379 -297 -930 -540 -1466 -180 -399 -506 -1029 -679 -1315 -385 -635 -666
-989 -932 -1172 -147 -102 -124 -98 -623 -98 -467 1 -573 8 -860 61 -391 71
-748 172 -1315 371 -346 121 -402 137 -466 128 -30 -4 -61 -16 -77 -30 l-26
-22 79 -98 c181 -223 282 -333 529 -580 294 -294 297 -296 511 -358 201 -59
244 -85 300 -181 26 -45 29 -58 33 -180 7 -215 29 -239 307 -341 197 -72 293
-125 362 -199 71 -75 93 -132 93 -234 0 -152 -49 -310 -175 -567 -179 -366
-435 -745 -889 -1319 -215 -271 -580 -704 -795 -941 -20 -22 -95 -105 -166
-185 -142 -158 -150 -167 -506 -545 -308 -327 -534 -558 -985 -1006 -959 -951
-1263 -1209 -1919 -1625 -266 -170 -423 -263 -958 -568 -689 -393 -962 -560
-950 -579 15 -24 67 -77 75 -77 13 0 963 381 1633 655 91 37 422 178 595 252
624 270 1263 588 1750 871 153 89 219 130 405 250 186 121 603 425 831 607 56
44 186 148 289 230 236 188 315 251 564 448 120 95 220 182 251 220 29 34 68
82 88 106 21 24 101 130 180 235 645 862 798 1032 937 1044 118 10 320 -70
494 -195 178 -128 423 -382 630 -653 40 -52 78 -102 84 -111 54 -70 221 -319
312 -464 132 -210 304 -515 425 -750 111 -216 122 -240 185 -410 181 -486 614
-1036 1048 -1329 279 -189 609 -281 776 -217 62 23 74 33 230 181 69 65 154
141 188 168 314 252 821 459 1473 603 208 46 398 132 568 258 137 102 164 182
85 251 -33 30 -40 31 -87 26 -78 -9 -399 -34 -611 -47 -260 -17 -849 -17 -995
-1 -366 41 -641 108 -929 226 -483 198 -940 528 -1711 1237 -184 169 -580 529
-735 669 -83 74 -152 137 -155 140 -13 14 -240 210 -275 238 -22 17 -133 80
-246 141 -237 125 -368 210 -446 288 -55 54 -103 139 -103 181 0 86 698 1242
1276 2112 284 428 458 659 543 722 103 75 392 225 541 281 207 77 343 104 703
142 413 43 482 62 762 204 105 53 220 106 256 118 37 12 201 49 365 83 689
142 951 215 1190 330 167 81 244 159 244 248 0 50 -57 148 -113 195 -146 123
-354 222 -586 281 -170 43 -243 34 -506 -60 -71 -25 -166 -58 -210 -74 -44
-15 -168 -60 -275 -100 -262 -97 -575 -203 -740 -249 -321 -92 -462 -102 -580
-44 -82 40 -145 94 -172 146 -68 134 54 433 636 1562 508 985 736 1485 835
1830 47 163 54 222 48 379 -16 418 -235 818 -702 1280 -113 112 -421 386 -433
386 -4 0 -30 -14 -59 -30z"/>
<path d="M56265 21151 c-52 -13 -128 -57 -179 -102 -27 -24 -108 -122 -180
-219 -190 -255 -282 -341 -536 -501 -380 -240 -692 -412 -1740 -959 -129 -68
-262 -137 -295 -155 -33 -18 -109 -58 -170 -90 -470 -248 -920 -512 -1260
-740 -240 -161 -335 -230 -595 -435 -267 -211 -620 -481 -890 -682 -224 -166
-392 -288 -954 -693 l-250 -180 110 -3 c60 -2 173 2 250 7 212 16 289 14 686
-21 237 -20 422 -31 533 -31 517 2 947 151 1335 464 201 162 349 324 612 665
133 173 195 244 414 466 345 350 791 750 1304 1169 534 436 967 749 1034 749
34 -1 100 -35 144 -74 50 -45 82 -112 82 -169 0 -152 -162 -398 -545 -827 -66
-74 -189 -214 -274 -310 -85 -96 -166 -188 -180 -205 -155 -174 -315 -402
-371 -525 -43 -95 -43 -150 -2 -325 17 -71 47 -197 66 -280 56 -236 46 -330
-53 -490 -102 -164 -284 -331 -681 -621 -207 -151 -380 -289 -380 -303 0 -3
18 -26 39 -51 l39 -45 133 68 c74 37 233 128 354 202 353 218 421 247 805 350
539 145 893 300 1023 450 64 73 78 164 38 247 -45 94 -129 172 -451 419 -238
182 -347 302 -365 400 -26 139 139 331 705 819 118 102 300 259 405 349 617
533 979 929 1138 1247 71 141 100 242 101 354 1 86 -2 100 -28 150 -82 156
-350 345 -611 430 -85 28 -118 33 -215 36 -63 2 -128 0 -145 -5z"/>
<path d="M86515 20723 c-122 -26 -462 -101 -695 -153 -578 -131 -729 -164
-922 -206 l-207 -44 -268 0 c-286 0 -314 -4 -469 -56 -193 -65 -681 -274
-1114 -477 -52 -24 -169 -79 -260 -122 -91 -42 -257 -121 -370 -175 -382 -182
-445 -212 -795 -377 -487 -230 -490 -232 -676 -316 -356 -161 -649 -282 -764
-315 -106 -30 -139 -34 -204 -22 -151 27 -253 105 -433 330 -107 134 -131 155
-176 153 -20 0 -66 -15 -102 -32 -84 -40 -136 -40 -276 1 -64 18 -131 31 -162
31 -48 0 -57 -4 -93 -39 -21 -21 -39 -41 -39 -44 0 -4 117 -110 260 -236 144
-126 279 -245 300 -264 l40 -36 0 -468 c0 -524 4 -486 -81 -761 -180 -579
-434 -1154 -593 -1340 -67 -77 -99 -90 -197 -75 -195 28 -353 121 -392 230 -9
25 -37 102 -62 173 -256 722 -578 1544 -762 1947 -14 30 -41 91 -61 135 -56
129 -221 467 -308 635 -293 561 -580 953 -809 1105 -111 74 -154 90 -247 90
-76 0 -78 -1 -115 -37 l-37 -37 31 -68 c17 -37 97 -212 177 -388 81 -176 156
-340 168 -364 60 -132 194 -439 299 -683 279 -650 433 -1077 445 -1232 5 -65
3 -79 -30 -163 -20 -51 -36 -103 -35 -115 0 -31 24 -85 84 -193 l50 -90 6
-485 c5 -418 8 -493 23 -545 59 -204 172 -312 352 -338 72 -11 77 -10 176 25
57 19 180 65 273 102 94 37 193 70 221 73 121 13 297 -90 395 -233 52 -77 88
-208 67 -247 -10 -20 -296 -466 -456 -712 -53 -81 -340 -524 -487 -750 -54
-83 -184 -284 -253 -390 -183 -281 -204 -318 -198 -354 3 -22 17 -44 38 -62
30 -26 40 -28 111 -29 l78 0 48 48 c78 77 265 289 616 697 169 196 327 374
501 565 244 267 370 380 423 380 39 0 146 -54 326 -167 318 -198 366 -217 590
-239 141 -13 196 -45 273 -157 140 -203 323 -680 367 -953 15 -98 -33 -232
-117 -320 -136 -144 -306 -220 -750 -334 -215 -56 -292 -80 -395 -127 -243
-109 -532 -262 -983 -518 -118 -67 -303 -172 -410 -232 -267 -150 -393 -228
-686 -423 -593 -395 -1385 -973 -2369 -1730 -734 -564 -914 -701 -966 -729
-53 -29 -100 -14 -165 53 -97 99 -112 225 -56 446 38 149 76 249 237 625 73
171 147 351 164 400 18 50 36 100 41 113 6 12 6 22 1 22 -23 0 -177 -129 -277
-231 -321 -331 -566 -843 -615 -1286 -12 -107 -12 -114 15 -239 58 -264 142
-520 201 -614 l25 -40 245 0 245 0 72 63 c40 34 259 258 488 497 454 474 605
620 840 811 265 215 716 553 980 734 269 185 463 341 888 713 387 338 550 469
757 605 219 143 431 239 618 277 85 17 93 21 937 400 635 285 981 430 1146
479 97 29 151 27 348 -14 165 -34 171 -34 297 -25 391 30 697 153 904 364 62
62 100 114 163 222 92 155 146 220 213 255 39 19 66 23 229 30 277 12 498 39
1065 129 483 77 626 97 820 119 225 26 569 46 785 46 145 0 174 -3 240 -23
247 -77 282 -275 83 -475 -299 -302 -1245 -679 -2463 -982 -498 -124 -991
-297 -1535 -538 -88 -39 -297 -140 -465 -224 -241 -121 -337 -164 -458 -204
-256 -85 -431 -171 -462 -229 -6 -10 -10 -40 -10 -65 0 -71 22 -84 136 -85
124 0 149 9 703 262 157 71 340 152 407 179 l121 49 294 0 c329 0 297 -4 670
94 l175 46 580 0 c321 0 628 5 689 10 488 46 1242 378 1895 834 260 182 381
285 630 535 96 98 233 233 303 301 246 239 309 361 286 553 -37 304 -241 489
-565 514 -76 5 -89 3 -187 -31 l-105 -36 -411 0 c-517 0 -410 22 -1411 -294
l-175 -55 -260 -3 -260 -4 -330 -68 c-379 -78 -431 -81 -504 -33 -120 80 -102
225 68 552 282 538 1065 1675 1866 2710 175 225 181 233 367 432 211 225 420
423 868 820 458 405 694 656 827 881 177 298 237 577 206 957 -7 94 -24 306
-38 472 -20 261 -27 307 -46 345 -47 93 -109 149 -161 147 -13 -1 -54 -8 -93
-16z m-688 -532 c84 -39 193 -189 193 -265 -1 -110 -142 -307 -523 -731 -60
-66 -126 -149 -146 -185 -21 -36 -63 -110 -93 -165 -71 -126 -369 -651 -438
-770 -29 -49 -62 -106 -73 -125 -164 -291 -764 -1284 -1020 -1690 -929 -1475
-1592 -2386 -2116 -2911 -206 -206 -321 -297 -458 -366 -78 -39 -103 -47 -165
-51 -92 -6 -184 24 -286 92 -126 84 -314 300 -434 501 -122 204 -228 467 -228
567 0 207 200 414 650 673 74 43 374 198 665 345 544 273 714 365 890 479 415
269 605 504 605 749 0 392 -322 945 -1109 1906 -219 267 -334 416 -356 462
-13 28 -13 37 1 83 52 176 462 413 1129 654 476 171 954 314 1720 514 l290 76
320 6 320 7 196 62 c359 113 388 118 466 83z m-4825 -1642 c286 -61 593 -414
854 -983 150 -327 254 -672 254 -842 -1 -183 -114 -525 -262 -787 -65 -115
-113 -166 -258 -276 -606 -458 -1316 -908 -1563 -991 -63 -21 -74 -22 -135
-11 -188 35 -480 189 -618 326 -91 91 -119 153 -111 249 12 156 125 355 352
621 71 83 310 332 531 555 431 434 488 496 594 635 136 181 176 284 167 430
-13 190 -73 312 -252 510 -88 97 -130 156 -151 211 -23 60 -15 133 19 178 55
72 205 139 382 170 101 18 131 19 197 5z"/>
<path d="M13085 19916 c-34 -36 -88 -141 -132 -256 -169 -443 -418 -1482 -508
-2125 -11 -77 -32 -578 -70 -1680 -29 -863 -51 -1573 -49 -1577 9 -15 46 -208
64 -338 31 -217 53 -533 46 -650 -8 -141 -47 -325 -82 -389 -45 -83 -126 -165
-208 -210 -128 -70 -194 -112 -163 -105 81 19 -16 -37 -433 -251 -342 -175
-471 -249 -572 -329 -60 -48 -162 -168 -178 -211 -15 -41 12 -137 42 -147 6
-2 64 19 128 48 151 69 384 161 540 216 111 38 134 43 210 42 107 -1 215 -30
332 -89 315 -158 481 -447 438 -765 -39 -293 -194 -814 -488 -1645 -104 -294
-290 -801 -313 -855 -6 -14 -44 -113 -84 -220 -40 -107 -123 -325 -184 -484
-62 -159 -110 -290 -109 -291 5 -4 199 164 338 293 924 854 1665 1654 2079
2246 189 270 311 499 363 685 19 68 22 111 28 401 7 361 4 344 85 517 88 188
184 307 332 412 48 35 187 112 307 172 324 163 416 234 522 406 97 157 227
317 638 783 398 451 452 513 592 676 335 391 539 666 636 855 73 144 62 261
-33 342 -29 26 -59 38 -136 56 -517 121 -1501 587 -2041 968 -108 76 -236 193
-258 235 -12 22 -14 124 -14 598 0 660 14 568 -123 820 -137 252 -337 577
-545 885 -415 613 -734 954 -925 989 -35 7 -41 4 -72 -28z m1984 -3877 c123
-56 280 -244 400 -478 133 -259 231 -561 231 -711 0 -235 -64 -349 -222 -401
-66 -22 -91 -24 -253 -24 -146 0 -189 3 -230 18 -61 21 -118 66 -151 119 -68
107 -141 443 -165 758 -15 195 -1 442 30 540 63 200 183 260 360 179z"/>
<path d="M22739 19495 c-20 -45 -19 -94 1 -120 4 -5 11 -23 14 -40 17 -77 118
-168 363 -327 88 -58 140 -100 333 -274 251 -227 600 -483 775 -571 170 -85
384 -210 429 -251 28 -24 66 -52 85 -62 85 -43 153 -134 171 -229 6 -36 23
-86 37 -113 23 -44 25 -55 18 -126 -12 -144 -49 -270 -120 -412 -103 -205
-229 -341 -435 -470 -74 -47 -170 -113 -212 -147 -42 -35 -83 -63 -91 -63 -48
0 -248 -173 -315 -272 l-32 -47 26 -18 c35 -23 113 -22 184 1 82 27 205 91
403 210 99 59 197 114 218 121 22 8 97 19 167 25 320 26 422 58 696 219 165
97 220 114 376 116 121 2 130 3 263 49 76 25 175 65 220 87 114 57 360 224
420 284 65 65 118 176 158 330 26 100 31 132 26 195 -17 260 -280 700 -575
963 -68 61 -175 132 -224 150 -9 3 -75 42 -145 85 -168 104 -243 141 -388 190
-66 22 -174 66 -240 97 -66 31 -147 68 -180 81 l-60 25 -330 -3 c-281 -2 -340
0 -400 14 -38 9 -97 20 -130 23 -33 3 -114 15 -180 26 -66 11 -158 25 -205 30
-97 10 -281 55 -526 130 -93 28 -234 71 -314 95 -99 30 -163 44 -203 44 l-58
0 -20 -45z"/>
<path d="M74200 16757 c0 -2 18 -48 41 -102 42 -103 144 -371 184 -485 164
-462 284 -836 344 -1071 55 -213 61 -270 61 -575 0 -187 4 -292 12 -315 50
-149 376 -432 596 -518 111 -44 209 -16 300 83 126 139 222 461 210 707 -4 83
-10 105 -46 187 -97 221 -267 475 -635 952 -87 113 -447 549 -682 826 -88 104
-183 217 -210 251 l-50 62 -62 0 c-35 1 -63 0 -63 -2z"/>
<path d="M27778 16466 c-83 -34 -133 -66 -291 -183 -78 -59 -155 -114 -172
-124 -16 -10 -106 -45 -200 -77 -93 -33 -234 -83 -312 -110 -142 -50 -143 -50
-315 -179 -384 -288 -606 -420 -761 -452 -30 -7 -67 -21 -81 -32 -31 -24 -100
-55 -253 -113 -65 -24 -194 -76 -288 -114 -485 -199 -545 -228 -735 -349 -200
-128 -271 -161 -595 -276 -291 -104 -396 -148 -439 -187 l-39 -35 -218 3
c-230 4 -271 -1 -305 -39 -28 -31 -101 -65 -197 -93 -93 -27 -91 -27 -696 9
-301 18 -461 19 -494 4 -38 -17 -49 -51 -36 -107 29 -118 107 -198 250 -257
126 -52 403 -117 539 -126 69 -5 215 -16 325 -25 110 -9 268 -18 350 -21 138
-5 160 -4 268 21 67 15 176 30 255 36 181 12 314 41 427 95 243 116 806 298
1050 340 50 8 119 26 155 40 36 13 126 44 200 70 200 68 213 73 360 137 171
75 622 306 657 336 15 12 33 20 41 17 15 -6 135 29 349 101 135 45 160 55 533
211 118 50 274 109 345 132 72 24 148 49 171 57 22 8 105 57 185 110 79 52
171 109 204 126 83 43 170 98 310 198 66 47 160 110 208 140 48 30 111 76 138
101 44 41 49 49 43 75 -31 131 -231 303 -529 454 -223 114 -300 130 -407 86z"/>
<path d="M39100 16420 c-64 -15 -126 -47 -221 -113 -155 -107 -259 -154 -917
-418 -630 -253 -1100 -430 -1352 -511 -92 -29 -118 -33 -210 -33 -164 1 -250
38 -295 129 -44 87 -37 129 56 360 94 233 104 282 68 345 l-23 42 -69 -68
c-38 -38 -209 -223 -380 -413 -559 -619 -708 -756 -1077 -990 -672 -427 -981
-692 -1149 -987 -74 -130 -110 -300 -80 -380 13 -34 55 -80 91 -99 77 -40 175
-1 694 276 348 187 781 396 906 439 196 67 381 103 828 161 619 81 826 137
1095 295 147 86 322 224 446 351 153 158 250 288 453 611 87 139 146 221 222
309 166 191 415 294 686 282 85 -3 101 -7 181 -47 157 -75 281 -225 294 -355
5 -49 3 -54 -51 -130 -31 -43 -112 -144 -179 -223 -282 -336 -327 -398 -327
-454 0 -21 9 -57 21 -79 l21 -40 124 0 c143 0 157 4 394 117 212 102 283 127
335 119 24 -3 126 -35 227 -72 659 -238 598 -224 713 -165 139 70 264 198 314
318 61 149 20 456 -91 677 -203 404 -661 668 -1288 741 -133 16 -402 18 -460
5z"/>
<path d="M55025 15371 c-27 -10 -117 -48 -200 -83 -175 -76 -273 -109 -405
-138 -441 -97 -956 -380 -1474 -812 -194 -163 -291 -252 -496 -457 -200 -201
-227 -229 -401 -426 -291 -330 -606 -761 -803 -1098 -37 -63 -85 -132 -107
-153 -36 -35 -45 -38 -103 -42 -115 -7 -175 37 -217 159 -38 113 -32 208 30
449 59 231 61 278 17 354 -35 60 -63 76 -135 76 l-61 0 6 -42 c13 -97 -68
-380 -259 -903 -64 -176 -302 -814 -322 -865 -31 -77 -177 -496 -230 -660 -70
-217 -139 -486 -155 -605 -11 -87 -10 -97 25 -280 102 -538 251 -1005 402
-1259 113 -189 286 -306 370 -250 86 55 217 207 258 296 l23 53 5 820 c3 465
10 872 16 940 28 307 85 617 136 742 36 89 124 228 229 363 127 164 178 242
242 370 74 150 88 163 173 163 187 -2 291 -161 291 -444 0 -64 -5 -142 -11
-175 -39 -217 -156 -466 -368 -781 -244 -363 -262 -397 -242 -466 19 -62 104
-138 259 -232 270 -164 400 -254 491 -341 183 -174 244 -328 221 -557 -15
-157 -78 -575 -166 -1102 -44 -261 -73 -462 -69 -480 3 -16 20 -44 37 -62 l32
-33 220 0 221 0 50 29 c98 56 241 216 290 324 24 51 25 66 60 932 28 702 39
890 51 930 50 155 178 337 423 604 400 434 466 513 533 649 35 70 42 94 46
161 9 156 -48 314 -157 432 -72 79 -176 154 -351 255 -207 118 -299 181 -375
258 -156 156 -202 340 -134 533 56 160 69 204 69 238 0 31 -19 127 -105 540
-41 199 -42 222 -12 295 87 212 430 479 997 777 236 124 600 280 780 333 229
68 413 -45 476 -290 38 -149 -23 -499 -335 -1900 -71 -322 -140 -634 -151
-694 -21 -106 -22 -134 -24 -980 -2 -575 -7 -912 -15 -991 -51 -523 -160
-1086 -277 -1428 -132 -384 -291 -567 -441 -506 -15 7 -113 53 -218 103 -176
84 -194 91 -251 91 -86 0 -104 -17 -104 -99 l0 -62 71 -69 c74 -73 146 -156
317 -364 273 -332 399 -434 587 -476 100 -23 236 -16 315 14 207 79 341 303
357 598 5 89 1 128 -32 312 l-38 211 32 203 c62 401 75 532 101 1052 28 543
57 1043 75 1260 16 211 32 271 138 545 l72 185 6 285 c5 249 9 293 27 350 154
490 347 1125 409 1343 l56 202 7 315 c3 173 10 324 14 335 5 11 49 103 99 205
106 220 127 272 127 309 0 15 -20 69 -45 119 -114 234 -305 447 -445 497 -67
24 -486 20 -555 -4z m-2737 -2425 c65 -61 112 -143 139 -246 24 -93 25 -326 0
-396 -35 -102 -113 -144 -267 -144 -136 0 -229 36 -298 114 -17 20 -34 49 -37
64 -4 15 -8 36 -10 46 -6 31 15 115 46 184 56 125 171 275 290 378 34 30 66
54 70 54 4 0 34 -24 67 -54z m72 -2363 c38 -39 53 -65 71 -123 19 -65 20 -79
10 -140 -22 -138 -86 -252 -163 -291 -53 -27 -122 -22 -173 12 -70 47 -134
176 -143 286 -5 76 22 143 90 218 66 72 117 97 197 92 61 -3 65 -5 111 -54z"/>
<path d="M27420 13834 c-151 -11 -447 -36 -635 -55 -205 -21 -214 -23 -389
-81 -162 -55 -186 -65 -240 -111 -102 -85 -217 -154 -490 -294 -292 -150 -370
-199 -540 -337 -64 -52 -139 -108 -165 -122 -29 -17 -56 -41 -67 -63 -32 -58
-144 -165 -237 -226 -48 -31 -150 -86 -225 -122 -75 -36 -166 -79 -202 -96
-103 -49 -187 -103 -278 -180 -207 -176 -296 -235 -382 -257 -43 -11 -49 -9
-135 31 -49 23 -119 55 -155 71 -82 38 -215 125 -259 172 -19 20 -40 36 -46
36 -6 0 -60 29 -120 65 -133 79 -163 87 -208 53 -17 -14 -72 -50 -122 -81
-113 -70 -149 -107 -176 -182 -20 -55 -23 -87 -29 -370 -5 -232 -10 -318 -21
-340 -10 -23 -13 -69 -10 -205 9 -349 1 -478 -48 -875 -56 -448 -53 -781 10
-1133 51 -288 156 -525 293 -664 83 -85 140 -118 201 -118 85 0 166 19 250 60
94 46 171 110 224 189 59 86 123 153 271 281 201 175 223 204 264 344 14 47
28 92 33 98 4 7 10 164 14 348 4 184 15 488 24 675 l17 340 49 47 c94 90 269
153 487 177 143 15 234 14 268 -4 17 -8 55 -15 90 -15 117 0 122 -42 18 -150
-61 -64 -70 -79 -145 -255 -44 -104 -88 -207 -99 -229 -10 -23 -29 -66 -43
-96 -59 -132 -102 -218 -130 -257 -29 -41 -30 -44 -18 -100 15 -78 68 -186
124 -255 l46 -57 18 -279 c20 -326 27 -295 -93 -395 -169 -138 -330 -242 -462
-298 -41 -17 -104 -50 -142 -75 -72 -47 -204 -116 -280 -148 -25 -11 -97 -44
-160 -73 -63 -30 -153 -71 -200 -91 -46 -20 -114 -59 -150 -87 -37 -27 -161
-123 -276 -212 -245 -188 -450 -329 -598 -412 -58 -32 -143 -87 -188 -121 -46
-34 -146 -103 -224 -154 -197 -128 -269 -178 -429 -301 -77 -60 -153 -116
-170 -125 -65 -36 -281 -122 -505 -200 -129 -45 -240 -85 -246 -89 -7 -3 -41
-33 -76 -66 -36 -33 -131 -121 -211 -195 -127 -116 -147 -139 -147 -165 0 -39
30 -87 94 -151 59 -58 147 -214 332 -586 116 -233 119 -237 168 -267 101 -60
261 -75 556 -50 129 12 137 13 175 44 22 18 108 77 190 133 83 55 166 117 185
137 19 21 52 50 73 66 22 15 58 55 81 88 82 118 204 247 456 480 237 219 446
425 665 653 94 99 189 170 262 198 27 10 89 57 161 121 64 58 194 170 287 250
192 165 280 255 457 466 67 82 164 189 214 239 89 88 234 192 253 180 5 -3 14
-29 21 -56 21 -85 -2 -265 -80 -640 -22 -106 -45 -222 -50 -259 -7 -54 -14
-70 -37 -89 -58 -47 -155 -84 -326 -122 -246 -55 -312 -83 -376 -155 -40 -46
-40 -69 4 -200 81 -240 264 -591 465 -890 38 -55 104 -173 149 -262 90 -181
117 -217 200 -268 53 -32 250 -105 283 -105 25 0 217 98 304 155 128 83 185
146 249 278 134 274 191 561 204 1027 l7 255 -33 100 c-87 263 -133 472 -158
720 -14 150 -34 242 -80 380 -24 71 -75 283 -90 375 -10 64 -47 161 -126 337
-104 233 -117 298 -83 413 14 47 14 72 3 213 l-12 160 24 19 c19 16 31 18 73
11 74 -12 205 -9 251 6 61 20 161 73 261 137 113 73 174 100 249 113 33 5 103
25 155 44 203 74 639 216 685 222 57 9 117 54 252 191 51 51 112 108 137 126
24 18 79 78 122 132 l77 99 -6 141 c-5 141 -17 199 -59 298 -12 29 -28 48 -41
52 -122 35 -705 20 -932 -23 -106 -20 -138 -48 -162 -137 -8 -33 -24 -74 -35
-91 l-20 -33 -198 0 c-145 0 -216 -4 -269 -16 -76 -17 -161 -12 -161 9 1 29
50 129 84 171 43 51 175 127 291 167 67 23 77 31 235 188 91 90 208 199 260
243 52 43 139 116 193 161 60 50 144 135 213 217 63 74 162 191 220 260 125
147 243 321 307 452 45 93 46 93 93 106 60 16 155 74 334 202 176 126 286 197
413 267 130 70 210 132 232 179 15 33 17 60 13 213 -6 214 -10 226 -100 270
-98 48 -208 63 -478 66 -129 1 -260 1 -290 -1z"/>
<path d="M37751 13068 c-27 -63 -83 -218 -181 -498 -273 -779 -489 -1165 -713
-1274 -177 -87 -241 -36 -659 519 -388 514 -612 759 -875 956 -208 156 -425
242 -619 243 -91 1 -104 -1 -137 -24 -20 -13 -45 -41 -56 -61 l-21 -36 202
-214 c110 -118 233 -248 272 -289 297 -311 832 -923 1063 -1216 97 -122 241
-337 270 -402 52 -119 14 -281 -103 -438 -24 -32 -112 -129 -194 -215 -310
-324 -380 -429 -710 -1064 -339 -653 -511 -913 -776 -1179 -126 -125 -218
-201 -358 -296 -134 -89 -256 -185 -516 -405 -386 -327 -587 -478 -735 -553
-33 -17 -139 -65 -235 -107 -641 -279 -940 -442 -1184 -646 -48 -40 -85 -77
-83 -82 5 -17 123 -83 182 -102 110 -34 144 -26 532 134 94 39 215 86 270 105
441 153 874 337 1298 551 743 375 1333 787 1826 1276 309 308 502 540 854
1034 245 343 358 466 490 531 63 31 89 38 154 42 320 18 596 -223 785 -685
125 -306 205 -628 346 -1393 49 -261 92 -443 125 -514 22 -50 70 -107 360
-426 77 -85 156 -173 175 -194 36 -40 113 -124 278 -301 173 -185 378 -376
529 -493 82 -64 239 -153 338 -191 201 -79 352 -105 703 -122 298 -15 302 -14
1027 136 l320 67 125 -6 c194 -8 579 -69 1049 -166 l194 -40 278 0 277 0 31
39 c17 21 35 51 41 67 11 27 8 31 -73 110 -145 140 -280 218 -587 339 -291
114 -380 151 -477 196 -49 22 -104 48 -123 57 -202 91 -614 301 -815 414 -622
351 -990 620 -1660 1217 -1156 1030 -1875 1734 -2272 2229 -114 142 -190 289
-177 345 10 45 124 153 354 337 521 414 718 631 760 836 8 35 10 189 8 451
l-3 398 -27 68 c-94 244 -381 542 -778 808 -99 66 -310 179 -334 179 -7 0 -23
-24 -35 -52z"/>
<path d="M46749 12701 c-47 -26 -69 -73 -69 -148 0 -106 30 -180 172 -428 41
-72 87 -160 101 -196 34 -84 67 -266 112 -609 43 -332 58 -428 90 -574 123
-571 378 -876 805 -963 106 -22 318 -22 397 0 167 45 256 125 284 256 13 62
-7 218 -57 446 -52 235 -125 406 -284 671 -181 299 -498 728 -710 959 -438
478 -702 662 -841 586z"/>
<path d="M75349 12271 c-19 -26 -166 -215 -454 -585 -132 -170 -260 -335 -285
-366 -127 -164 -494 -610 -599 -729 l-66 -73 30 -24 c17 -13 39 -24 50 -24 42
0 263 207 603 564 568 595 902 1007 902 1111 0 40 -27 82 -72 115 -47 34 -89
39 -109 11z"/>
<path d="M751 11204 c-27 -41 -50 -110 -40 -118 2 -1 35 -27 74 -57 109 -84
219 -183 645 -580 466 -433 750 -654 995 -774 196 -96 284 -118 480 -120 162
-2 183 -7 274 -55 118 -63 236 -187 302 -318 l34 -67 0 -155 c-1 -182 -13
-270 -95 -680 -32 -162 -67 -346 -76 -409 l-17 -115 -65 -85 c-42 -54 -77
-115 -99 -169 -122 -303 -293 -573 -565 -895 -54 -63 -98 -122 -98 -131 0 -23
28 -76 40 -76 21 0 144 51 250 105 304 152 783 494 1275 910 738 624 1502
1398 1645 1666 36 67 38 124 15 339 -23 217 -63 379 -139 564 -82 197 -185
348 -350 512 -387 383 -976 555 -1734 505 -230 -15 -353 -34 -558 -87 -231
-59 -336 -76 -479 -77 -117 -1 -127 0 -365 62 -135 35 -344 90 -465 122 -121
33 -251 68 -290 79 -38 10 -176 48 -306 84 -130 36 -241 66 -247 66 -5 0 -24
-21 -41 -46z"/>
<path d="M80205 9888 c-22 -6 -97 -48 -166 -93 -244 -161 -337 -198 -723 -290
-229 -54 -282 -75 -359 -137 -34 -27 -78 -56 -97 -64 -42 -18 -167 -39 -319
-54 -83 -9 -176 -29 -344 -76 -371 -103 -412 -109 -747 -109 -283 0 -286 1
-373 28 -48 15 -120 43 -159 62 -38 19 -72 35 -74 35 -3 0 8 -24 22 -52 136
-272 471 -498 737 -498 171 0 514 103 1540 464 197 69 372 126 388 126 70 0
177 -89 225 -186 39 -80 42 -143 11 -232 -40 -116 -101 -198 -418 -569 -41
-48 -85 -103 -98 -121 -22 -31 -22 -34 -7 -51 10 -10 44 -31 77 -46 l60 -27
42 37 c183 158 397 316 777 575 646 440 891 631 1014 790 86 110 104 175 67
236 -47 78 -125 106 -336 123 -103 8 -153 18 -240 46 -269 88 -397 109 -500
83z"/>
<path d="M26697 9079 c-106 -7 -285 -39 -340 -61 -57 -22 -92 -115 -80 -208 6
-41 16 -55 112 -150 58 -58 173 -168 255 -245 211 -199 246 -255 397 -641 55
-141 112 -280 126 -308 36 -71 60 -144 89 -271 33 -147 58 -211 102 -260 20
-23 65 -80 99 -126 72 -101 110 -124 302 -189 l123 -43 217 6 c175 4 231 9
294 26 98 26 181 70 246 129 48 45 52 53 96 192 34 107 58 162 91 211 49 73
51 85 30 204 -57 322 -243 782 -377 930 -77 85 -235 229 -356 326 -338 269
-770 450 -1133 474 -47 3 -107 7 -135 9 -27 1 -99 -1 -158 -5z"/>
<path d="M47980 8998 c-40 -28 -70 -81 -70 -126 0 -41 27 -94 146 -289 175
-287 206 -364 279 -695 99 -449 150 -541 333 -599 136 -42 259 -19 377 70 95
72 134 158 123 269 -13 127 -214 546 -381 797 -152 227 -355 447 -483 522
-130 75 -258 95 -324 51z"/>
<path d="M82541 8644 c-133 -39 -269 -92 -365 -143 -84 -43 -93 -51 -159 -141
-291 -392 -717 -616 -1462 -770 -82 -17 -294 -55 -470 -85 -176 -30 -381 -67
-455 -82 l-135 -26 -113 -85 c-144 -107 -316 -208 -557 -327 -425 -208 -856
-377 -1875 -733 -387 -135 -498 -177 -765 -287 -415 -171 -436 -179 -488 -177
-108 4 -274 80 -562 257 -82 51 -164 100 -182 109 -65 33 -121 13 -167 -60
l-27 -43 59 -103 c32 -57 104 -186 159 -288 134 -247 190 -341 261 -437 147
-198 303 -304 501 -339 151 -27 235 -16 399 52 289 119 600 293 1590 886 433
260 665 393 737 423 141 59 323 153 545 281 283 162 295 168 365 168 114 0
256 -101 313 -222 l27 -57 3 -1587 2 -1587 -29 -133 c-17 -73 -52 -225 -80
-338 -116 -482 -115 -470 -65 -640 21 -72 28 -116 28 -180 0 -77 -4 -92 -37
-161 -58 -121 -149 -200 -276 -239 -122 -38 -155 -32 -456 84 l-80 30 -345 6
-345 5 -190 77 c-104 42 -224 91 -265 108 -188 80 -306 120 -350 120 -25 0
-123 -16 -218 -36 l-173 -35 -84 16 c-213 40 -582 194 -1475 618 -258 122
-419 196 -482 221 -75 29 -149 34 -168 11 -7 -8 -19 -15 -26 -15 -11 0 -14
-17 -14 -68 l0 -68 68 -51 c256 -192 531 -355 877 -519 196 -93 268 -123 780
-330 714 -288 808 -333 1130 -543 994 -651 1549 -958 2000 -1105 135 -43 223
-59 340 -59 220 0 379 73 492 227 94 127 145 259 250 641 79 292 80 301 87
918 5 418 7 453 28 530 13 50 22 114 22 162 1 83 -3 99 -86 385 l-42 145 -6
350 -6 350 -37 170 c-83 389 -197 937 -216 1038 -18 93 -21 146 -21 386 l0
278 -35 127 c-19 70 -61 213 -94 319 -33 106 -66 215 -74 242 -9 28 -50 163
-91 300 -102 335 -104 348 -79 407 38 85 165 158 368 211 195 52 482 89 695
91 118 1 128 -1 182 -27 32 -16 67 -42 80 -59 30 -43 36 -125 13 -184 -25 -66
-129 -165 -280 -268 -183 -126 -233 -163 -251 -192 -17 -25 -16 -26 27 -70
l44 -46 80 4 c95 4 107 9 320 148 279 181 354 208 690 245 355 39 413 38 704
-14 63 -12 144 -21 180 -20 137 1 264 74 652 378 74 57 148 110 166 118 19 7
107 29 196 48 272 58 375 88 479 142 161 84 212 187 152 307 -52 104 -154 210
-289 300 -61 41 -106 62 -185 86 -203 60 -236 73 -390 150 -362 181 -752 331
-854 329 -17 0 -69 -11 -115 -25z"/>
<path d="M14085 7544 c-81 -42 -138 -128 -214 -320 -137 -347 -274 -563 -405
-638 -22 -13 -84 -36 -136 -50 -132 -37 -232 -75 -475 -178 -333 -142 -458
-186 -623 -218 -140 -27 -227 -26 -343 5 -155 42 -199 48 -240 36 -41 -12 -85
-58 -95 -98 -8 -30 8 -44 149 -133 204 -127 315 -154 611 -147 191 4 219 7
566 67 451 78 521 82 622 32 211 -103 305 -339 238 -597 -90 -354 -473 -1040
-1020 -1830 -50 -72 -80 -125 -80 -141 0 -17 13 -40 39 -65 l39 -39 138 0 c80
0 167 6 205 14 402 85 938 703 1599 1841 67 116 152 261 188 323 l67 112 455
0 c504 0 507 0 648 65 283 131 582 411 670 629 49 119 38 279 -33 492 -89 268
-257 522 -436 659 -170 131 -388 205 -569 192 -41 -3 -228 -33 -415 -68 -442
-81 -425 -81 -804 5 -161 36 -298 66 -305 66 -6 0 -24 -7 -41 -16z"/>
<path d="M45795 7541 l-100 -6 -2 -97 c-1 -90 1 -98 19 -104 33 -10 382 -167
523 -234 1016 -486 1276 -586 1875 -721 549 -123 1145 -339 1700 -615 528
-264 941 -529 1385 -889 145 -118 453 -351 655 -496 1123 -807 2008 -1264
2568 -1329 57 -7 116 -10 132 -7 63 13 235 108 640 352 950 573 1305 781 1700
997 273 150 700 362 880 438 69 29 126 54 128 55 2 1 -13 30 -33 64 l-37 62
-341 -3 -342 -4 -335 -86 c-621 -160 -966 -208 -1290 -179 -189 17 -558 71
-940 138 l-325 56 -375 7 c-434 9 -495 17 -805 112 -355 108 -976 402 -1803
854 -117 64 -496 251 -602 297 -153 67 -226 91 -421 142 -296 78 -831 235
-1694 498 -1571 478 -2149 643 -2429 692 -89 15 -144 16 -331 6z"/>
</g>
</svg>
