<?xml version="1.0" encoding="UTF-8" standalone="no"?>
<svg
   xmlns:dc="http://purl.org/dc/elements/1.1/"
   xmlns:cc="http://creativecommons.org/ns#"
   xmlns:rdf="http://www.w3.org/1999/02/22-rdf-syntax-ns#"
   xmlns:svg="http://www.w3.org/2000/svg"
   xmlns="http://www.w3.org/2000/svg"
   viewBox="0 0 325.04001 173.85867"
   height="173.85867"
   width="325.04001"
   xml:space="preserve"
   id="svg2"
   version="1.1"><metadata
     id="metadata8"><rdf:RDF><cc:Work
         rdf:about=""><dc:format>image/svg+xml</dc:format><dc:type
           rdf:resource="http://purl.org/dc/dcmitype/StillImage" /></cc:Work></rdf:RDF></metadata><defs
     id="defs6"><clipPath
       id="clipPath18"
       clipPathUnits="userSpaceOnUse"><path
         id="path16"
         d="M 0,130.394 H 243.78 V 0 H 0 Z" /></clipPath></defs><g
     transform="matrix(1.3333333,0,0,-1.3333333,0,173.85867)"
     id="g10"><g
       id="g12"><g
         clip-path="url(#clipPath18)"
         id="g14"><g
           transform="translate(224.8867,89.6396)"
           id="g20"><path
             id="path22"
             style="fill:#332d2b;fill-opacity:1;fill-rule:evenodd;stroke:none"
             d="M 0,0 C 0.09,0.098 0.195,0.176 0.293,0.27 0.934,0.904 1.396,1.718 1.906,2.544 2.314,3.224 2.699,3.918 3.01,4.766 3.1,5.019 3.252,5.354 3.221,5.595 3.18,5.976 2.854,6.374 2.676,6.697 2.617,6.807 2.486,7.015 2.561,7.084 c 0.017,0 0.011,0.03 0.037,0.03 C 2.605,7.118 2.605,7.109 2.605,7.097 3.494,6.438 4.557,5.936 5.281,5.072 5.521,4.787 5.75,4.45 5.799,4.054 5.887,3.215 5.498,2.704 5.043,2.332 4.564,1.943 3.824,1.907 3.285,1.608 2.385,1.108 1.477,0.512 0.453,0.078 0.322,0.02 0.143,-0.094 0,0" /></g><g
           transform="translate(158.2266,87.2515)"
           id="g24"><path
             id="path26"
             style="fill:#332d2b;fill-opacity:1;fill-rule:evenodd;stroke:none"
             d="M 0,0 C 0.307,0.253 0.809,0.372 1.168,0.581 1.382,0.704 1.737,0.928 1.62,1.289 1.484,1.742 0.793,1.534 0.367,1.403 0.131,1.325 -0.152,1.206 -0.314,1.136 -0.79,0.888 -1.145,0.573 -1.631,0.344 -2.36,-0.02 -3.035,-0.291 -3.932,-0.421 -4.07,-0.43 -4.256,-0.458 -4.422,-0.467 c -0.131,-0.009 -0.344,-0.048 -0.409,0.099 0.089,0.147 0.282,0.204 0.433,0.285 0.161,0.091 0.307,0.201 0.466,0.267 0.442,0.286 0.875,0.613 1.289,0.981 0.52,0.462 1.206,1.277 0.932,2.173 -0.355,1.132 -1.791,1.807 -2.183,2.847 0.081,0.114 0.134,0.147 0.343,0.131 0.344,-0.03 0.707,-0.169 1.048,-0.287 C -1.682,5.743 -0.836,5.419 0.012,5.136 0.236,5.059 0.522,5.002 0.691,4.859 1.324,4.324 0.625,2.843 1.461,2.564 1.828,2.438 2.024,2.601 2.396,2.642 2.781,2.683 3.243,2.588 3.6,2.642 3.774,2.667 3.934,2.822 4.105,2.937 4.348,3.096 4.617,3.297 4.957,3.317 5.219,3.338 5.526,3.251 5.823,3.174 6.18,3.083 6.615,2.945 6.892,2.708 7.309,2.323 6.797,2.065 6.422,1.869 6.188,1.742 5.86,1.554 5.6,1.513 5.297,1.472 4.867,1.575 4.553,1.513 4.332,1.472 4.045,1.231 3.799,1.149 3.476,1.039 3.15,0.957 2.813,0.842 2.043,0.553 1.235,0.253 0.412,-0.033 0.281,-0.083 0.109,-0.176 0,0" /></g><g
           transform="translate(207.0488,93.1821)"
           id="g28"><path
             id="path30"
             style="fill:#332d2b;fill-opacity:1;fill-rule:evenodd;stroke:none"
             d="M 0,0 C 0.438,-0.347 0.818,-0.704 1.178,-1.166 1.508,-1.599 1.861,-2.131 1.832,-2.819 1.811,-3.375 1.523,-3.931 1.313,-4.384 0.748,-5.629 0.113,-6.615 -0.439,-7.89 c -0.092,-0.225 -0.264,-0.609 -0.223,-0.79 0.039,-0.147 0.252,-0.348 0.516,-0.368 0.324,-0.04 0.626,0.107 0.902,0.188 0.58,0.184 1.043,0.348 1.557,0.527 0.267,0.1 0.574,0.271 0.808,0.238 C 3.424,-8.124 3.807,-8.233 4.082,-8.411 4.225,-8.492 4.531,-8.717 4.494,-8.92 4.4,-9.351 3.408,-9.556 2.957,-9.641 2.332,-9.789 1.639,-9.895 1.188,-10.132 c -0.252,-0.13 -0.493,-0.245 -0.776,-0.294 -0.625,-0.083 -1.26,-0.123 -1.814,-0.364 -0.246,-0.103 -0.532,-0.237 -0.692,-0.393 -0.156,-0.131 -0.275,-0.352 -0.406,-0.54 -0.748,-1.071 -1.496,-2.222 -2.16,-3.382 -0.086,-0.16 -0.311,-0.438 -0.303,-0.626 0.006,-0.152 0.125,-0.279 0.225,-0.357 0.357,-0.298 0.822,-0.405 1.164,-0.711 0.97,-0.868 1.926,-1.808 2.959,-2.638 0.687,-0.556 1.49,-1.046 2.492,-1.244 0.932,-0.18 2.074,-0.09 3.014,0 0.121,0.012 0.263,0.029 0.336,-0.099 -0.004,-0.257 -0.204,-0.338 -0.348,-0.425 -0.16,-0.102 -0.34,-0.199 -0.533,-0.266 -0.344,-0.11 -0.664,-0.158 -0.989,-0.253 -0.605,-0.201 -1.162,-0.392 -1.634,-0.774 -0.276,-0.216 -0.491,-0.624 -0.875,-0.601 -0.803,0.058 -1.416,0.627 -1.848,1.151 -0.361,0.429 -0.619,0.788 -0.842,1.361 -0.056,0.18 -0.133,0.364 -0.224,0.535 -0.323,0.659 -0.715,1.302 -1.11,1.859 -0.426,0.596 -0.853,1.165 -1.433,1.574 -0.262,0.066 -0.385,0.261 -0.709,0.224 -0.207,-0.028 -0.491,-0.367 -0.659,-0.576 -0.58,-0.732 -1.005,-1.505 -1.734,-2.073 -0.939,-0.746 -1.926,-1.563 -2.916,-2.182 -1.023,-0.636 -2.182,-1.194 -3.35,-1.705 -0.5,-0.22 -1.265,-0.544 -1.775,-0.744 -0.451,-0.176 -0.826,-0.318 -1.338,-0.531 -0.127,-0.055 -0.348,-0.185 -0.402,-0.033 -0.012,0.052 -0.063,0.015 0.144,0.155 0.455,0.303 1.178,0.683 1.596,0.925 0.592,0.347 1.223,0.73 1.758,1.096 1.185,0.801 2.131,1.82 3.076,2.757 0.922,0.916 1.924,1.979 2.799,2.993 0.431,0.5 0.879,1.057 1.289,1.625 0.379,0.532 0.846,1.178 1.059,1.82 0.164,0.462 0.058,0.822 -0.268,1.014 -0.232,0.143 -0.705,0.192 -0.842,0.401 -0.098,0.168 0,0.495 -0.123,0.663 -0.18,0.229 -0.58,0.2 -0.83,0.364 -0.27,0.193 -0.508,0.495 -0.752,0.752 -0.119,0.118 -0.228,0.246 -0.352,0.381 -0.115,0.123 -0.242,0.265 -0.285,0.417 0.178,0.114 0.383,0.004 0.563,-0.044 1.076,-0.365 2.148,-0.802 3.742,-0.802 0.25,0 0.537,-0.042 0.756,0 0.148,0.02 0.391,0.171 0.525,0.281 0.258,0.213 0.485,0.532 0.703,0.831 0.627,0.879 1.174,1.889 1.643,2.941 0.488,1.087 0.857,2.139 1.176,3.428 0.105,0.421 0.234,0.911 0.209,1.26 -0.03,0.29 -0.209,0.601 -0.274,0.846 C -0.16,-0.061 -0.027,-0.017 0,0" /></g><g
           transform="translate(186.1426,90.6704)"
           id="g32"><path
             id="path34"
             style="fill:#332d2b;fill-opacity:1;fill-rule:evenodd;stroke:none"
             d="m 0,0 c -0.457,-0.229 -0.855,-0.555 -1.252,-0.875 -1.17,-0.929 -2.348,-1.914 -3.27,-3.076 -0.644,-0.863 -1.501,-1.673 -2.946,-1.721 -0.531,-0.018 -1.101,0.114 -1.74,0.114 -0.274,0 -0.567,-0.066 -0.87,-0.046 0.889,0.667 1.795,1.326 2.691,1.993 0.437,0.339 0.871,0.694 1.322,1.018 1.845,1.313 3.975,2.111 5.901,3.33 0.238,0.151 0.455,0.327 0.631,0.551 0.289,0.349 0.502,0.884 1.144,0.77 C 2.049,1.98 2.785,1.567 2.836,1.21 2.871,0.953 2.74,0.606 2.68,0.478 2.5,0.139 2.176,-0.246 1.869,-0.548 1.127,-1.31 0.275,-1.934 -0.549,-2.741 c -0.172,-0.167 -0.42,-0.355 -0.394,-0.649 0.027,-0.255 0.359,-0.476 0.58,-0.642 0.236,-0.181 0.506,-0.349 0.654,-0.545 0.176,-0.225 0.088,-0.479 -0.107,-0.642 -0.495,-0.401 -1.313,-0.503 -1.955,-0.712 -0.508,-0.168 -0.881,-0.478 -1.316,-0.728 -0.119,-0.057 -0.296,-0.208 -0.439,-0.044 0.082,0.167 0.273,0.265 0.439,0.387 0.425,0.332 1.087,0.712 1.337,1.223 0.041,0.091 0.072,0.205 0.078,0.296 0.031,0.392 -0.242,0.744 -0.223,1.169 0.008,0.381 0.385,0.736 0.655,1.05 0.119,0.14 0.242,0.295 0.355,0.419 0.344,0.381 0.494,0.519 0.834,0.96 C 0.225,-0.852 0.682,-0.209 0,0" /></g><g
           transform="translate(135.0449,84.3882)"
           id="g36"><path
             id="path38"
             style="fill:#332d2b;fill-opacity:1;fill-rule:evenodd;stroke:none"
             d="m 0,0 c 0.165,0.211 0.357,0.449 0.602,0.519 0.224,0.242 0.635,0.38 0.9,0.7 C 1.736,1.501 1.998,1.947 1.939,2.388 1.931,2.45 1.879,2.5 1.857,2.573 1.829,2.653 1.846,2.74 1.81,2.802 1.719,2.994 1.494,3.047 1.363,3.219 0.889,3.416 0.357,3.751 -0.154,4.168 -0.366,4.348 -0.608,4.543 -0.834,4.732 -1.059,4.92 -1.391,5.072 -1.541,5.264 -1.623,5.37 -1.74,5.672 -1.585,5.734 -1.021,5.698 -0.525,5.399 0.025,5.313 0.291,5.272 0.586,5.264 0.859,5.214 0.941,5.199 1.014,5.158 1.101,5.154 1.432,5.121 1.805,5.207 2.104,5.166 2.342,5.136 2.574,4.949 2.795,4.859 3.02,4.777 3.213,4.736 3.408,4.613 3.494,4.568 3.588,4.516 3.684,4.454 4.027,4.25 4.295,4.037 4.549,3.705 4.73,3.464 4.908,3.207 5,2.945 5.15,2.528 5.017,1.959 4.725,1.705 4.594,1.586 4.324,1.423 4.16,1.341 3.96,1.227 3.684,1.128 3.498,1.091 3.363,1.076 3.19,1.108 3.064,1.076 2.811,1.026 2.611,0.814 2.369,0.699 2.074,0.568 1.719,0.626 1.363,0.532 1.143,0.47 0.93,0.294 0.729,0.175 0.541,0.065 0.291,-0.115 0,0" /></g><g
           transform="translate(216.2754,85.6563)"
           id="g40"><path
             id="path42"
             style="fill:#332d2b;fill-opacity:1;fill-rule:evenodd;stroke:none"
             d="M 0,0 C 0.051,-0.018 0.125,-0.018 0.188,-0.018 0.779,-0.778 1.613,-1.648 2.219,-2.54 2.402,-2.814 2.676,-3.158 2.77,-3.473 2.908,-3.956 2.578,-5.044 2.086,-4.97 c -0.33,0.049 -1.031,0.585 -1.084,0.953 -0.061,0.31 0.021,0.613 0,0.92 -0.029,0.266 -0.117,0.564 -0.193,0.83 C 0.578,-1.522 0.299,-0.798 0.014,-0.05 0,-0.033 -0.004,-0.018 0,0" /></g><g
           transform="translate(131.1563,81.3452)"
           id="g44"><path
             id="path46"
             style="fill:#332d2b;fill-opacity:1;fill-rule:evenodd;stroke:none"
             d="M 0,0 C 0.208,0.146 0.539,0.065 0.871,0.049 1.32,0.023 1.85,-0.042 2.16,0.097 c 0.08,0.034 0.144,0.119 0.221,0.14 0.224,0.074 0.515,-0.049 0.728,0 0.098,0.029 0.151,0.118 0.232,0.163 0.639,0.184 1.212,0.451 1.716,0.741 0.448,0.27 1.089,0.463 1.72,0.745 0.071,0.028 0.136,0.065 0.197,0.126 0.69,0.159 1.085,0.609 1.61,0.965 0.336,0.132 0.643,0.169 0.996,0.34 0.299,0.135 0.589,0.557 0.916,0.564 0.265,0.004 0.551,-0.204 0.789,-0.355 C 11.408,3.452 11.87,3.182 11.854,2.96 11.842,2.859 11.59,2.724 11.447,2.621 11.109,2.396 10.9,2.262 10.56,2.057 10.406,1.966 10.271,1.836 10.127,1.771 9.93,1.693 9.723,1.66 9.535,1.594 9.154,1.448 8.813,1.247 8.438,1.125 8.246,1.059 8.037,1.039 7.846,0.961 7.678,0.907 7.497,0.784 7.324,0.687 6.99,0.515 6.65,0.343 6.275,0.229 6.087,0.159 5.901,0.065 5.714,0.008 5.529,-0.033 5.342,-0.054 5.167,-0.103 4.846,-0.189 4.52,-0.291 4.2,-0.421 3.955,-0.512 3.742,-0.65 3.412,-0.692 3.26,-0.72 3.096,-0.705 2.943,-0.733 2.807,-0.749 2.684,-0.802 2.572,-0.802 2.371,-0.819 2.106,-0.778 1.881,-0.757 c -0.248,0.016 -0.52,0 -0.756,0.024 C 0.879,-0.692 0.289,-0.512 0.146,-0.372 0.053,-0.279 0.008,-0.135 0,0" /></g><g
           transform="translate(162.0352,82.2441)"
           id="g48"><path
             id="path50"
             style="fill:#332d2b;fill-opacity:1;fill-rule:evenodd;stroke:none"
             d="m 0,0 c -0.35,0.103 -0.671,0.213 -1.056,0.357 -0.11,0.041 -0.229,0.122 -0.324,0.109 -0.452,0 -0.706,-0.506 -1.352,-0.404 -0.15,0.229 0.011,0.347 0.158,0.519 0.008,0.009 0.049,0.094 0.094,0.143 0.126,0.148 0.242,0.283 0.376,0.45 0.065,0.091 0.209,0.218 0.224,0.323 0.048,0.328 -0.388,0.659 -0.629,0.712 C -2.99,2.299 -3.441,2.095 -3.686,1.866 -3.932,1.637 -4.096,1.314 -4.279,1.031 -4.66,0.446 -5.096,-0.04 -5.745,-0.375 -6.397,-0.695 -7.27,-0.711 -8.113,-0.866 -9.11,-1.051 -9.797,-1.57 -10.641,-1.997 c -0.16,-0.076 -0.405,-0.215 -0.519,-0.215 -0.315,0.032 -0.266,0.499 -0.151,0.715 0.303,0.622 1.026,1.104 1.636,1.497 0.23,0.143 0.458,0.262 0.644,0.405 0.845,0.646 1.365,1.486 2.077,2.107 0.255,-0.368 -0.496,-0.88 -0.128,-1.268 0.106,-0.115 0.439,-0.152 0.658,-0.098 0.291,0.069 0.582,0.196 0.875,0.307 0.807,0.298 1.789,0.703 2.574,1.017 0.307,0.209 0.58,0.435 1.095,0.406 C -0.643,2.822 0.58,2.221 0.694,1.068 0.76,0.405 0.379,0.171 0,0" /></g><g
           transform="translate(180.4463,75.3896)"
           id="g52"><path
             id="path54"
             style="fill:#332d2b;fill-opacity:1;fill-rule:evenodd;stroke:none"
             d="M 0,0 C -0.042,-0.315 0.166,-0.59 0.371,-0.598 0.865,-0.623 0.938,0.535 0.354,0.396 0.178,0.36 0.019,0.151 0,0 m -0.226,3.132 c 0.082,-0.286 0.77,-0.408 0.953,-0.118 0.2,0.324 -0.017,1.112 -0.311,1.182 0,0.013 -0.013,0.021 -0.013,0 C 0.208,4.049 -0.35,3.522 -0.226,3.132 M 2.207,-3.735 C 2.605,-3.498 2.894,-4.05 3.245,-4.009 3.38,-4 3.544,-3.83 3.64,-3.678 c 0.199,0.356 0.306,0.79 0.4,1.245 0.201,0.894 0.264,1.872 0.291,2.94 C 4.343,1.018 4.259,1.538 4.31,2.122 4.345,2.486 4.474,2.846 4.552,3.198 4.728,3.934 4.87,4.61 5.005,5.358 5.12,5.979 5.356,6.79 4.728,6.982 4.46,7.068 3.946,6.817 3.683,6.711 3.085,6.462 2.58,6.171 2.062,5.791 1.852,5.641 1.508,5.383 1.464,5.116 1.382,4.704 1.718,4.146 1.693,3.796 1.663,3.569 1.533,3.452 1.508,3.235 1.489,2.986 1.594,2.789 1.726,2.638 2.101,2.184 2.894,2.02 3.144,1.497 3.435,0.85 2.78,0.311 2.396,-0.098 2.257,-0.257 2.08,-0.435 1.926,-0.619 1.804,-0.773 1.626,-1.019 1.575,-1.223 1.523,-1.47 1.553,-1.759 1.545,-1.985 1.523,-2.48 1.5,-2.958 1.482,-3.46 1.46,-3.949 1.489,-4.226 1.205,-4.529 1.146,-4.59 0.968,-4.765 0.85,-4.794 0.653,-4.831 0.166,-4.81 0.096,-4.705 c -0.106,0.161 0.038,0.561 0.063,0.713 0.089,0.482 0.156,0.911 0.23,1.444 0.044,0.372 0.118,0.723 -0.035,1.034 -0.236,0.463 -0.781,0.684 -1.21,0.981 -0.318,0.221 -0.318,0.357 -0.111,0.676 0.223,0.332 0.495,0.678 0.658,1.063 0.112,0.245 0.217,0.577 0.173,0.945 -0.03,0.323 -0.191,0.724 -0.573,0.578 C -0.885,2.663 -0.9,2.4 -0.982,2.266 -1.174,1.955 -1.514,1.718 -1.683,1.268 -1.861,0.748 -1.887,0.003 -1.887,-0.598 v -1.067 c 0,-0.336 0.066,-0.749 0,-1.06 -0.042,-0.192 -0.347,-0.577 -0.547,-0.58 -0.136,0 -0.325,0.151 -0.402,0.261 -0.314,0.4 -0.552,1.265 -0.675,1.803 -0.04,0.182 -0.119,0.463 -0.119,0.726 0.014,0.445 0.229,0.948 0.36,1.345 0.135,0.417 0.283,0.847 0.417,1.19 0.315,0.843 0.67,1.599 0.807,2.516 0.617,-0.041 0.171,-0.703 0.159,-1.081 -0.011,-0.298 0.071,-0.653 0.388,-0.609 0.284,0.036 0.446,0.492 0.561,0.676 0.487,0.752 1.063,1.456 1.681,2.061 C 1.489,6.336 2.559,7.276 3.7,7.617 3.872,7.661 4.04,7.682 4.204,7.727 4.515,7.816 4.784,8.025 5.038,8.07 5.239,8.099 5.64,8.094 5.831,8.029 6.015,7.967 6.188,7.784 6.306,7.617 6.425,7.463 6.614,7.202 6.614,7.043 6.62,6.806 6.261,6.409 6.212,6.144 6.163,5.836 6.243,5.514 6.212,5.223 6.19,5.001 6.101,4.756 6.04,4.536 5.903,4.085 5.761,3.684 5.618,3.219 5.55,3.014 5.45,2.761 5.421,2.556 5.386,2.277 5.468,2.02 5.421,1.742 5.401,1.558 5.29,1.365 5.233,1.194 5.026,0.617 5.038,-0.07 4.991,-0.827 4.94,-1.559 4.911,-2.308 4.829,-2.901 4.8,-3.13 4.735,-3.363 4.728,-3.564 4.728,-3.83 4.854,-4.009 4.862,-4.304 4.882,-5.265 4.036,-5.71 3.366,-5.174 3.038,-4.917 2.729,-4.492 2.428,-4.156 2.33,-4.05 2.166,-3.919 2.207,-3.735" /></g><g
           transform="translate(142.2979,80.7476)"
           id="g56"><path
             id="path58"
             style="fill:#332d2b;fill-opacity:1;fill-rule:evenodd;stroke:none"
             d="m 0,0 c 0.013,-0.188 0.049,-0.491 0.017,-0.626 -0.09,-0.246 -0.485,-0.355 -0.737,-0.536 -0.365,-0.249 -0.581,-0.478 -0.937,-0.576 -0.24,-0.561 -0.633,-0.966 -1.002,-1.404 -0.373,-0.425 -0.904,-0.691 -1.235,-1.161 -0.319,-0.078 -0.67,-0.234 -0.748,-0.606 0.331,-0.036 0.621,0.066 1.034,0.034 0.124,0.089 0.054,0.233 0.148,0.338 0.135,0.14 0.556,0.107 0.839,0.124 0.34,0.016 0.678,0.032 0.899,-0.029 0.062,-0.229 0.179,-0.463 0.127,-0.725 -0.011,-0.082 -0.16,-0.266 -0.224,-0.339 -0.078,-0.09 -0.21,-0.18 -0.325,-0.286 -0.223,-0.242 -0.363,-0.278 -0.707,-0.393 -0.242,-0.081 -0.507,-0.151 -0.757,-0.237 -0.126,-0.049 -0.254,-0.065 -0.368,-0.094 -0.347,-0.11 -0.56,-0.429 -0.935,-0.442 -0.115,-0.004 -0.268,0.083 -0.358,0 -0.041,-0.163 0.055,-0.322 0.029,-0.511 0,-0.107 -0.06,-0.191 -0.06,-0.295 0.007,-0.314 0.264,-0.617 0.356,-0.912 0.056,-0.203 0.074,-0.432 0.142,-0.662 0.131,-0.405 0.148,-0.879 0.262,-1.35 0.049,-0.23 0.164,-0.435 0.187,-0.63 0.042,-0.23 0,-0.508 -0.011,-0.761 -0.042,-0.642 -0.213,-1.366 -0.58,-1.672 -0.098,-0.09 -0.452,-0.317 -0.608,-0.329 -0.191,-0.011 -0.51,0.151 -0.619,0.262 -0.119,0.131 -0.211,0.435 -0.319,0.606 -0.327,0.548 -0.77,1.194 -0.898,1.808 0.214,0.396 0.918,0.25 1.236,0.564 0.025,0.561 0.331,1.088 0.177,1.653 -0.463,-0.2 -0.728,-0.647 -1.06,-1.006 -0.235,-0.246 -0.521,-0.467 -0.807,-0.707 -0.093,-0.087 -0.162,-0.194 -0.262,-0.259 -0.084,-0.061 -0.2,-0.085 -0.282,-0.144 -0.2,-0.142 -0.355,-0.346 -0.535,-0.535 -0.508,-0.527 -1.154,-1.005 -1.546,-1.595 -0.274,-0.237 -0.594,-0.438 -0.887,-0.662 -0.385,0.019 -0.92,-0.139 -1.159,0.113 -0.109,0.123 -0.218,0.492 -0.305,0.644 -0.12,0.221 -0.226,0.446 -0.336,0.596 -0.075,0.099 -0.249,0.217 -0.245,0.328 0.012,0.094 0.256,0.273 0.355,0.368 0.135,0.126 0.254,0.274 0.373,0.335 0.086,0.049 0.207,0.078 0.315,0.114 0.27,0.099 0.629,0.171 0.904,0.341 0.248,0.151 0.461,0.371 0.711,0.547 0.118,0.074 0.246,0.148 0.373,0.227 0.127,0.076 0.232,0.195 0.349,0.272 0.153,0.087 0.303,0.159 0.456,0.263 0.273,0.183 0.547,0.376 0.822,0.596 0.123,0.094 0.254,0.23 0.381,0.299 0.215,0.118 0.476,0.209 0.695,0.311 0.109,0.045 0.204,0.101 0.311,0.159 0.441,0.238 0.954,0.437 1.312,0.848 0.014,0.175 0,0.314 -0.012,0.459 -0.008,0.137 0.026,0.309 -0.015,0.468 -0.02,0.07 -0.102,0.111 -0.14,0.172 -0.073,0.103 -0.163,0.275 -0.15,0.397 0.003,0.094 0.109,0.241 0.162,0.347 0.155,0.328 0.319,0.659 0.417,0.982 0.092,0.095 0.213,0.172 0.263,0.315 -0.397,0.205 -1.314,0.103 -1.613,-0.258 -0.008,-0.362 -0.053,-0.719 -0.066,-1.087 -0.023,-0.512 0.041,-1.051 -0.13,-1.449 -0.265,-0.356 -0.695,-0.555 -0.903,-0.968 -0.198,-0.143 -0.434,-0.287 -0.737,-0.275 -0.597,0.371 -0.814,1.215 -0.814,2.157 0,0.572 0.119,1.164 0.169,1.737 0.018,0.246 -0.046,0.47 -0.035,0.699 0,0.087 0.05,0.177 0.067,0.295 0.06,0.385 -0.096,0.912 0.098,1.186 0.123,0.185 0.384,0.243 0.529,0.352 0.334,-0.139 0.537,-0.364 0.838,-0.527 0.138,-0.082 0.326,-0.209 0.482,-0.209 0.34,-0.024 0.654,0.441 0.929,0.606 0.359,0.204 0.735,0.314 1.015,0.53 0.101,0.12 0.232,0.206 0.292,0.357 0.3,0.175 0.548,0.397 0.856,0.581 0.303,0.172 0.627,0.319 0.932,0.499 0.312,0.315 0.764,0.417 1.355,0.482 C -1.852,0.155 -1.411,0.2 -1.03,0.212 -0.655,0.225 -0.241,0.192 0,0" /></g><g
           transform="translate(172.0518,79.1196)"
           id="g60"><path
             id="path62"
             style="fill:#332d2b;fill-opacity:1;fill-rule:evenodd;stroke:none"
             d="M 0,0 C 0.29,0.065 0.564,-0.179 0.749,-0.34 1.239,-0.77 1.612,-1.228 2.02,-1.788 2.405,-2.324 2.786,-2.794 2.954,-3.587 3.031,-3.988 3.133,-4.409 2.827,-4.609 2.478,-4.818 1.71,-4.688 1.402,-4.475 1.022,-4.201 0.807,-3.729 0.663,-3.142 0.526,-2.574 0.536,-1.865 0.376,-1.314 0.315,-1.117 0.187,-0.978 0.082,-0.79 -0.062,-0.532 -0.229,-0.16 0,0" /></g><g
           transform="translate(215.9668,75.5327)"
           id="g64"><path
             id="path66"
             style="fill:#332d2b;fill-opacity:1;fill-rule:evenodd;stroke:none"
             d="M 0,0 C -0.029,0.037 -0.055,0.012 -0.1,0.065 0.688,1.021 1.434,1.934 2.162,2.932 2.313,2.887 2.457,2.843 2.416,2.646 2.379,2.45 2.078,2.151 1.965,2.007 1.475,1.407 0.924,0.834 0.371,0.286 0.248,0.167 0.113,0.073 0,0" /></g><g
           transform="translate(139.7871,73.2788)"
           id="g68"><path
             id="path70"
             style="fill:#332d2b;fill-opacity:1;fill-rule:evenodd;stroke:none"
             d="M 0,0 C 0.997,0.068 1.827,-0.348 2.396,-0.876 2.578,-1.023 2.801,-1.207 2.912,-1.351 3.055,-1.554 3.15,-1.824 3.252,-2.115 3.338,-2.355 3.504,-2.729 3.455,-2.982 3.439,-3.08 3.338,-3.15 3.301,-3.24 3.239,-3.399 3.224,-3.611 3.156,-3.706 2.867,-4.106 1.775,-4.074 1.365,-3.808 1.271,-3.739 1.025,-3.449 0.969,-3.321 0.898,-3.175 0.903,-3.006 0.854,-2.835 0.789,-2.614 0.633,-2.34 0.535,-2.062 0.424,-1.793 0.322,-1.514 0.191,-1.321 0.08,-1.17 -0.127,-1.044 -0.275,-0.904 -0.356,-0.826 -0.664,-0.544 -0.692,-0.438 -0.785,-0.02 -0.314,-0.02 0,0" /></g><g
           transform="translate(174.1172,73.1802)"
           id="g72"><path
             id="path74"
             style="fill:#332d2b;fill-opacity:1;fill-rule:evenodd;stroke:none"
             d="M 0,0 C 0.224,0.062 0.532,-0.138 0.692,-0.29 1.06,-0.634 1.366,-1.161 1.623,-1.71 1.709,-1.902 1.837,-2.135 1.837,-2.29 1.824,-2.765 1.121,-2.954 0.784,-2.643 0.555,-2.418 0.54,-1.841 0.384,-1.354 0.323,-1.149 0.212,-0.944 0.097,-0.757 -0.033,-0.556 -0.39,-0.11 0,0" /></g><g
           transform="translate(226.6895,69.188)"
           id="g76"><path
             id="path78"
             style="fill:#332d2b;fill-opacity:1;fill-rule:evenodd;stroke:none"
             d="M 0,0 C 0.109,0.185 0.311,0.274 0.512,0.417 0.672,0.522 0.926,0.7 0.9,0.966 0.863,1.362 0.092,1.235 -0.285,1.17 -0.613,1.122 -1.242,1.026 -1.314,0.72 -1.35,0.593 -1.254,0.323 -1.189,0.122 c 0.121,-0.392 0.201,-0.644 0.32,-1.058 0.058,-0.185 0.144,-0.384 0.162,-0.553 0.037,-0.273 -0.018,-0.559 0,-0.851 0.025,-0.364 0.143,-0.756 0.228,-1.125 0.075,-0.381 0.194,-0.766 0.227,-1.118 0.031,-0.351 -0.041,-0.689 0,-0.976 0.061,-0.494 0.391,-0.879 0.123,-1.375 0.01,-0.565 0.061,-1.121 0,-1.668 -0.025,-0.238 -0.137,-0.523 -0.209,-0.777 -0.156,-0.545 -0.332,-1.036 -0.955,-1.11 -0.469,-0.06 -0.928,0.172 -1.25,0.324 -0.746,0.356 -1.363,0.745 -2.023,1.166 -0.323,0.192 -0.659,0.428 -0.971,0.622 -0.344,0.205 -0.748,0.335 -1.147,0.494 -0.976,0.398 -1.91,0.761 -2.757,1.338 -0.11,0.082 -0.432,0.197 -0.358,0.4 0.055,0.197 0.344,0.043 0.412,0.018 0.793,-0.34 1.403,-0.655 2.19,-0.998 0.32,-0.135 0.646,-0.295 0.931,-0.323 0.25,-0.017 0.549,0.125 0.69,0.117 0.226,-0.015 0.476,-0.15 0.697,-0.24 0.213,-0.086 0.408,-0.221 0.65,-0.258 0.311,-0.054 0.711,0.045 1.045,-0.021 0.248,-0.049 0.454,-0.205 0.678,-0.221 0.36,-0.025 0.688,0.279 0.735,0.565 0.044,0.265 -0.102,0.459 -0.11,0.666 -0.012,0.185 0.098,0.523 0.154,0.769 0.069,0.237 0.166,0.504 0.186,0.748 0.07,0.815 0,1.713 0,2.61 v 1.306 c 0,0.756 0.172,1.636 -0.547,1.681 -0.178,0.004 -0.51,-0.212 -0.683,-0.311 -0.231,-0.122 -0.444,-0.271 -0.672,-0.363 -0.946,-0.425 -1.696,-0.998 -2.625,-1.507 -0.459,-0.252 -0.905,-0.558 -1.362,-0.711 -1.05,-0.343 -1.515,0.803 -1.908,1.501 -0.074,0.118 -0.201,0.312 -0.148,0.418 0.14,0.261 0.554,-0.106 0.711,-0.204 0.255,-0.16 0.607,-0.311 0.775,-0.303 0.213,0.004 0.57,0.188 0.818,0.303 1.518,0.636 3.217,1.017 4.639,1.847 0.115,0.075 0.248,0.141 0.352,0.209 0.115,0.082 0.187,0.189 0.295,0.229 0.265,0.115 0.742,0.14 1.08,0.197 C 0.283,1.751 1.314,2.017 1.967,2.68 2.086,2.798 2.164,3.019 2.291,3.101 2.496,3.269 2.873,3.376 3.143,3.428 3.428,3.481 3.996,3.157 4.252,3.035 4.447,2.958 4.615,2.868 4.783,2.798 4.979,2.72 5.232,2.667 5.363,2.603 5.58,2.499 6.018,2.159 5.992,1.865 5.977,1.665 5.648,1.513 5.43,1.444 5.127,1.362 4.848,1.362 4.625,1.272 4.426,1.194 4.178,0.944 4.014,0.819 3.875,0.707 3.629,0.478 3.367,0.45 3.08,0.417 2.822,0.549 2.578,0.561 2.379,0.572 2.139,0.536 1.92,0.508 1.709,0.491 1.48,0.478 1.289,0.417 1.084,0.352 0.877,0.185 0.68,0.062 0.508,-0.054 0.254,-0.261 0,0" /></g><g
           transform="translate(120.8145,67.5723)"
           id="g80"><path
             id="path82"
             style="fill:#332d2b;fill-opacity:1;fill-rule:evenodd;stroke:none"
             d="m 0,0 c -0.465,-0.654 -0.821,-1.465 -1.288,-2.025 -0.188,-0.315 -0.433,-0.629 -0.707,-0.928 -0.282,-0.295 -0.573,-0.625 -0.962,-0.721 -0.212,-0.045 -0.67,-0.053 -0.715,0.098 -0.029,0.099 0.131,0.263 0.226,0.406 0.452,0.658 0.869,1.301 1.21,2 0.273,0.541 0.651,1.403 -0.014,1.768 -0.395,0.213 -1.099,-0.099 -1.663,-0.144 -0.65,-0.053 -1.174,0.028 -1.514,0.446 0.193,0.314 0.479,0.045 0.765,0.037 0.643,-0.025 1.219,0.363 1.713,0.553 0.219,0.068 0.533,0.133 0.699,0.269 0.178,0.143 0.299,0.376 0.398,0.576 0.159,0.332 0.232,0.831 0.564,0.92 C -0.923,3.248 -0.589,3.039 -0.224,3.023 0.28,3.01 0.831,3.326 1.388,3.255 1.832,3.203 2.223,2.876 2.434,2.581 2.644,2.291 3.025,1.563 2.841,1.096 2.709,0.785 2.309,0.409 1.98,0.21 1.829,0.115 1.609,0.018 1.482,0 0.982,-0.069 0.479,0.058 0,0" /></g><g
           transform="translate(189.9961,66.5664)"
           id="g84"><path
             id="path86"
             style="fill:#332d2b;fill-opacity:1;fill-rule:evenodd;stroke:none"
             d="m 0,0 c -1.658,-0.766 -3.178,-1.703 -4.688,-2.619 -0.195,-0.11 -0.482,-0.33 -0.66,-0.367 -0.361,-0.071 -0.759,0.105 -1.058,0.224 -0.96,0.356 -1.865,0.901 -2.614,1.428 -0.531,0.381 -1.064,0.74 -1.561,1.129 -0.512,0.4 -1.011,0.798 -1.56,1.129 -1.109,0.68 -2.381,1.195 -3.755,1.497 -1.422,0.315 -2.556,1.019 -3.739,1.518 0.023,0.09 -0.035,0.258 0.034,0.294 0.823,0.065 1.566,-0.22 2.176,-0.4 1.567,-0.475 3.182,-0.983 4.679,-1.412 0.578,-0.159 1.031,-0.287 1.506,-0.53 0.912,-0.463 1.738,-0.921 2.723,-1.371 0.476,-0.213 1.015,-0.434 1.544,-0.463 0.338,-0.024 0.719,0.015 0.975,0 0.435,-0.034 0.828,-0.151 1.232,-0.209 0.418,-0.069 0.848,-0.133 1.301,-0.133 0.453,0.012 0.848,0.08 1.256,0.178 0.363,0.093 0.756,0.242 1.158,0.275 0.176,0.016 0.416,0 0.629,0 C -0.209,0.168 -0.08,0.217 0,0" /></g><g
           transform="translate(226.2246,88.1221)"
           id="g88"><path
             id="path90"
             style="fill:#332d2b;fill-opacity:1;fill-rule:evenodd;stroke:none"
             d="M 0,0 C -0.02,-0.221 0.164,-0.367 0.273,-0.499 0.412,-0.654 0.537,-0.81 0.596,-0.965 0.828,-1.542 0.443,-1.979 0.152,-2.314 -0.047,-2.54 -0.283,-2.765 -0.529,-3.01 -0.971,-3.448 -1.521,-3.918 -1.82,-4.462 -1.906,-4.613 -2.012,-4.838 -1.98,-5.04 c 0.044,-0.245 0.322,-0.433 0.519,-0.543 0.184,-0.124 0.516,-0.295 0.789,-0.277 0.238,0.019 0.537,0.253 0.774,0.387 0.515,0.316 0.953,0.602 1.41,0.933 0.23,0.16 0.508,0.315 0.679,0.495 0.182,0.212 0.258,0.43 0.373,0.695 0.102,0.258 0.225,0.561 0.225,0.835 0,0.281 -0.143,0.618 -0.25,0.908 C 2.432,-1.3 2.328,-1.059 2.191,-0.805 1.914,-0.29 1.469,0.491 0.76,0.418 0.453,0.389 0.031,0.303 0,0 M 7.586,2.818 C 7.316,2.79 7.014,2.855 6.695,2.818 6.482,2.794 6.229,2.7 5.986,2.639 4.777,2.332 3.645,2.008 2.588,1.53 2.314,1.403 1.574,1.077 1.574,0.741 1.578,0.601 1.807,0.389 1.896,0.279 2.547,-0.523 3.074,-1.125 3.574,-2.028 3.762,-2.364 4.012,-2.789 3.963,-3.235 3.91,-3.718 3.371,-4.103 2.998,-4.352 2.131,-4.916 1.24,-5.227 0.402,-5.717 0.045,-5.927 -0.529,-6.225 -0.57,-6.729 c -0.02,-0.38 0.299,-0.862 0.506,-1.156 0.207,-0.312 0.517,-0.724 0.947,-0.745 0.351,-0.013 0.646,0.25 0.873,0.45 0.629,0.544 1.221,1.346 1.66,1.967 1.518,2.131 2.904,4.394 4.203,6.68 0.143,0.249 0.254,0.527 0.43,0.773 0.15,0.209 0.369,0.405 0.568,0.65 C 8.783,2.086 9.072,2.43 9.068,2.654 9.057,2.883 8.83,3.117 8.52,3.08 8.152,3.027 7.906,2.851 7.586,2.818 M 10.438,-7.997 C 10.348,-8.364 10.029,-8.638 9.76,-8.884 9.584,-9.048 9.422,-9.228 9.26,-9.392 8.613,-10.018 7.818,-10.532 6.908,-10.929 6.43,-11.142 5.92,-11.362 5.41,-11.403 c -0.658,-0.05 -1.428,0.056 -1.994,0 -0.297,-0.025 -0.611,-0.188 -0.904,-0.218 -0.321,-0.044 -0.684,0.041 -0.969,0 -0.166,-0.024 -0.367,-0.158 -0.566,-0.245 -0.422,-0.192 -0.647,-0.319 -1.088,-0.486 -0.16,-0.062 -0.52,-0.148 -0.561,0 -0.064,0.192 0.213,0.318 0.43,0.4 0.273,0.111 0.41,0.132 0.578,0.197 0.318,0.134 0.6,0.322 0.924,0.471 0.931,0.424 1.859,0.767 2.945,1.063 1.108,0.298 2.045,0.535 3.041,1.01 0.299,0.151 0.649,0.339 0.82,0.548 0.151,0.184 0.248,0.483 0.01,0.663 -0.137,0.107 -0.371,0.143 -0.588,0.143 -1.424,0 -2.658,-0.38 -4.041,-0.479 C 3.238,-8.356 3.016,-8.328 2.871,-8.373 2.572,-8.458 2.502,-8.81 2.35,-9.015 2.025,-9.445 1.301,-9.83 0.512,-9.751 c -0.149,0.004 -0.36,0.111 -0.596,0.107 -0.334,-0.009 -0.816,-0.274 -1.09,-0.385 -0.701,-0.287 -1.33,-0.618 -2.041,-0.92 -0.371,-0.151 -0.769,-0.209 -1.096,-0.385 -0.335,-0.18 -0.628,-0.43 -0.919,-0.654 -0.297,-0.238 -0.59,-0.487 -0.858,-0.733 -1.107,-1.031 -2.424,-1.7 -3.478,-2.769 -0.514,-0.535 -1.016,-1.08 -1.561,-1.579 h -0.775 c -0.116,0.164 -0.157,0.389 -0.223,0.601 -0.061,0.205 -0.162,0.418 -0.176,0.635 -0.037,0.552 0.291,1.202 0.496,1.562 0.258,0.45 0.555,0.818 0.94,1.068 -0.117,-0.569 -0.625,-1.273 -0.744,-1.964 -0.061,-0.332 0.041,-0.708 0.308,-0.733 0.143,-0.002 0.535,0.337 0.658,0.43 1.422,1.085 2.819,2.213 4.266,3.203 0.838,0.566 1.787,1.125 2.643,1.612 0.425,0.233 0.908,0.523 1.414,0.711 0.541,0.185 1.154,0.237 1.562,0.536 0.123,0.095 0.268,0.266 0.309,0.458 0.058,0.324 -0.112,0.663 -0.207,0.95 -0.119,0.314 -0.268,0.588 -0.371,0.802 -0.098,0.057 -0.147,0.175 -0.233,0.212 -0.094,0.045 -0.398,0.028 -0.582,0.074 -0.193,0.06 -0.388,0.221 -0.554,0.323 -0.141,0.089 -0.418,0.29 -0.567,0.29 -0.193,0 -0.537,-0.454 -0.689,-0.613 -0.659,-0.679 -1.219,-1.461 -1.875,-2.103 -0.592,-0.045 -0.27,0.32 -0.106,0.557 0.625,0.96 1.11,1.729 1.719,2.691 0.092,0.143 0.269,0.336 0.293,0.45 0.062,0.356 -0.389,0.769 -0.703,0.777 -0.352,0.017 -0.699,-0.335 -1.039,-0.352 -0.348,-0.024 -0.61,0.279 -0.68,0.578 -0.082,0.392 0.088,1.026 -0.016,1.583 -0.029,0.188 -0.228,0.314 -0.232,0.497 -0.018,0.164 0.133,0.32 0.127,0.43 -0.018,0.214 -0.123,0.434 -0.186,0.61 -0.386,1.166 -0.898,2.238 -1.394,3.321 -0.065,0.144 -0.262,0.447 -0.229,0.512 0.041,0.106 0.229,0.138 0.385,0.082 0.277,-0.095 0.51,-0.365 0.684,-0.565 0.554,-0.642 1.013,-1.615 1.377,-2.413 0.429,-0.912 0.74,-1.768 1.076,-2.716 0.127,-0.315 0.205,-0.674 0.347,-0.929 0.094,-0.16 0.438,-0.376 0.756,-0.315 0.192,0.033 0.328,0.364 0.426,0.549 0.268,0.481 0.402,0.879 0.582,1.418 0.1,0.258 0.219,0.508 0.242,0.757 0.028,0.213 0,0.495 0,0.769 0,0.249 0.049,0.601 0,0.757 -0.041,0.184 -0.363,0.352 -0.496,0.471 -0.086,0.069 -0.164,0.134 -0.25,0.204 -0.056,0.062 -0.164,0.139 -0.179,0.245 0.179,0.217 0.466,-0.028 0.703,-0.016 0.146,0.008 0.232,0.127 0.369,0.107 0.109,-0.017 0.224,-0.209 0.328,-0.336 0.184,-0.221 0.363,-0.475 0.771,-0.442 0.282,0.013 0.647,0.21 0.934,0.335 1.814,0.802 3.238,1.567 5.066,2.328 0.303,0.127 0.598,0.295 0.872,0.323 0.261,0.033 0.529,-0.012 0.761,0 0.576,0.041 1.125,0.217 1.639,0.344 0.533,0.119 1.057,0.24 1.641,0.331 0.443,-0.327 0.21,-1.198 0.377,-1.759 V 2.042 C 10.379,0.867 9.51,0.111 8.811,-0.515 8.445,-0.842 8.066,-1.157 7.723,-1.493 6.65,-2.528 5.836,-3.779 4.965,-5.04 4.549,-5.636 4.094,-6.253 3.736,-6.969 3.633,-7.174 3.418,-7.539 3.545,-7.755 c 0.18,-0.335 1.107,0.045 1.449,0.069 0.258,0.03 0.572,-0.024 0.801,0 0.141,0.025 0.307,0.11 0.471,0.168 0.414,0.13 0.908,0.32 1.4,0.4 0.375,0.071 0.928,-0.052 1.381,0.022 0.131,0.015 0.221,0.106 0.375,0.11 0.601,0.028 0.943,-0.363 1.016,-0.92 z" /></g><g
           transform="translate(104.6787,94)"
           id="g92"><path
             id="path94"
             style="fill:#332d2b;fill-opacity:1;fill-rule:evenodd;stroke:none"
             d="M 0,0 C -0.143,0.057 -0.185,0.171 -0.138,0.274 -0.082,0.441 0.257,0.405 0.471,0.368 1.084,0.257 1.678,0.082 2.54,0.082 c 0.585,0 1.163,0.009 1.534,-0.099 0.417,-0.117 0.728,-0.314 1.035,-0.596 0.536,-0.483 0.937,-1.122 1.285,-2.03 C 6.692,-3.412 6.938,-4.274 6.876,-5.309 6.791,-6.891 6.136,-7.952 5.469,-9.163 5.296,-9.465 5.142,-9.759 5.044,-10.095 4.766,-11.068 4.475,-12.217 4.238,-13.305 4.07,-14.05 3.992,-14.815 3.992,-15.736 v -2.683 c 0,-0.511 -0.028,-0.94 0.033,-1.321 0.118,-0.7 0.384,-1.428 0.584,-2.081 0.099,-0.31 0.258,-0.713 0.287,-1.027 0.025,-0.275 -0.029,-0.54 0,-0.794 0.037,-0.282 0.16,-0.511 0.246,-0.77 0.078,-0.256 0.208,-0.532 0.221,-0.801 0.012,-0.309 -0.111,-0.683 -0.246,-0.985 -0.179,-0.438 -0.486,-0.913 -0.974,-0.913 -0.44,-0.012 -0.887,0.292 -1.226,0.558 -0.164,0.125 -0.316,0.293 -0.467,0.449 -0.115,0.124 -0.355,0.372 -0.368,0.532 -0.04,0.248 0.384,1.064 -0.278,0.945 -0.188,-0.021 -0.339,-0.307 -0.413,-0.446 -0.106,-0.189 -0.151,-0.435 -0.245,-0.615 -0.107,-0.212 -0.299,-0.444 -0.462,-0.67 -0.815,-1.089 -1.654,-2.05 -2.5,-3.134 -0.335,-0.408 -0.687,-0.867 -0.92,-1.334 -0.483,-0.961 -0.925,-2.912 -2.545,-2.363 -0.597,0.191 -1.145,0.625 -1.546,1.009 -0.183,0.172 -0.417,0.414 -0.605,0.68 -0.147,0.205 -0.393,0.535 -0.409,0.883 -0.009,0.193 0.07,0.377 0.114,0.545 0.091,0.332 0.201,0.666 0.405,0.957 0.07,0.101 0.209,0.285 0.385,0.285 0.237,0.01 0.355,-0.244 0.487,-0.387 0.167,-0.189 0.429,-0.422 0.723,-0.463 0.524,-0.082 1.113,0.075 1.413,0.299 0.338,0.258 0.6,0.635 0.903,0.961 0.896,0.941 1.972,1.715 2.966,2.554 0.625,0.542 1.275,1.16 1.869,1.844 0.543,0.634 1.157,1.484 1.218,2.413 0.033,0.413 -0.024,0.83 0,1.239 0.058,0.758 0.282,1.37 0.34,2.095 0.077,0.924 0.033,1.88 0.033,2.817 0,0.937 0.028,1.875 0.028,2.811 0,0.41 0.082,0.805 0.135,1.214 0.078,0.606 -0.053,1.415 0.127,1.968 0.057,0.172 0.139,0.343 0.175,0.531 0.099,0.393 0.083,0.864 0.083,1.33 0,0.974 0.004,1.943 0,2.851 C 3.55,-3.877 3.256,-3.162 2.929,-2.539 2.45,-1.644 1.799,-0.797 0.954,-0.261 0.737,-0.123 0.455,-0.012 0.196,0.045 0.171,0.057 0.024,0.119 -0.008,0.082 -0.037,0.057 0.086,-0.032 0,0" /></g><g
           transform="translate(120.4316,83.0825)"
           id="g96"><path
             id="path98"
             style="fill:#332d2b;fill-opacity:1;fill-rule:evenodd;stroke:none"
             d="m 0,0 c 0.052,-0.404 0.125,-0.916 0.315,-1.084 0.143,-0.114 0.453,-0.118 0.669,-0.109 0.487,0.028 0.721,0.249 0.639,0.854 C 1.563,0.185 1.14,0.986 0.837,1.273 0.707,1.395 0.51,1.506 0.315,1.465 -0.086,1.375 -0.075,0.586 0,0 M 1.381,-3.452 C 1.414,-3.476 1.324,-3.546 1.289,-3.59 1.063,-3.869 0.945,-4.16 0.612,-4.369 0.286,-4.561 -0.057,-4.667 -0.34,-4.892 -0.573,-5.084 -0.888,-5.459 -0.935,-5.91 c -0.032,-0.294 0.03,-0.564 0,-0.887 -0.032,-0.307 -0.191,-0.598 -0.359,-0.885 -0.156,-0.269 -0.334,-0.518 -0.494,-0.723 -1.094,-1.416 -2.398,-2.614 -3.62,-3.739 0.446,1.282 1.043,2.692 1.496,4.156 0.143,0.475 0.337,0.983 0.381,1.469 0.05,0.503 -0.138,0.813 -0.417,1.042 -0.233,0.201 -0.59,0.369 -0.945,0.328 -0.254,-0.028 -0.471,-0.164 -0.679,-0.25 -0.22,-0.078 -0.418,-0.188 -0.647,-0.232 -0.146,0.248 0.103,0.412 0.246,0.527 0.451,0.392 1.162,0.609 1.658,0.949 -0.018,0.052 -0.05,-0.005 -0.083,0 0.136,0.078 0.237,0.167 0.405,0.213 0.437,0.338 0.409,1.104 0.319,1.832 -0.03,0.254 -0.105,0.499 -0.127,0.728 -0.032,0.393 0.029,0.838 0.05,1.268 0.052,1.165 0.024,2.556 0.122,3.776 0.073,0.76 0.257,1.472 0.429,2.159 0.074,0.332 0.16,0.671 0.251,0.991 0.097,0.322 0.217,0.65 0.42,0.882 0.405,-0.081 0.642,-0.413 0.85,-0.671 0.573,-0.669 1.028,-1.431 1.518,-2.253 0.104,-0.171 0.229,-0.361 0.254,-0.499 0.057,-0.274 0,-0.609 0,-0.921 0,-0.289 -0.07,-0.65 0,-0.916 C 0.154,2.181 0.723,1.882 0.936,1.755 1.758,1.256 2.457,0.9 3.455,0.569 3.767,0.463 4.143,0.463 4.168,0.119 4.18,-0.053 4.031,-0.277 3.926,-0.433 3.641,-0.896 3.201,-1.382 2.88,-1.737 2.473,-2.195 2.167,-2.573 1.781,-3.01 1.652,-3.166 1.525,-3.325 1.381,-3.452" /></g><g
           transform="translate(147.3535,67.9814)"
           id="g100"><path
             id="path102"
             style="fill:#332d2b;fill-opacity:1;fill-rule:evenodd;stroke:none"
             d="M 0,0 C 0.639,0.67 1.632,0.936 2.414,1.329 2.799,1.526 3.158,1.849 3.49,2.143 3.834,2.434 4.178,2.72 4.54,2.978 5.682,3.772 6.111,5.211 6.872,6.368 7.003,6.573 7.171,6.725 7.322,6.892 7.54,7.113 7.957,7.42 7.924,7.89 7.898,8.213 7.457,8.668 7.275,8.888 6.541,9.8 5.759,10.619 4.976,11.465 c 0.145,0.245 0.4,0.2 0.645,0.139 C 6.245,11.449 6.803,10.839 7.184,10.39 7.385,10.139 7.568,9.858 7.764,9.608 7.947,9.379 8.173,9.023 8.406,8.873 c 0.216,-0.148 0.487,0.043 0.593,0.15 0.608,0.635 0.896,1.984 1.261,2.794 0.363,-0.152 0.678,-0.384 0.98,-0.626 0.291,-0.246 0.598,-0.516 0.758,-0.823 0.135,-0.265 0.151,-1.177 0.088,-1.577 C 12.035,8.348 11.52,7.953 11.195,7.666 11.061,7.551 10.845,7.399 10.696,7.272 10.574,7.17 10.308,7.007 10.295,6.864 10.26,6.63 10.559,6.328 10.709,6.156 c 0.496,-0.618 1.08,-1.223 1.641,-1.735 0.83,-0.748 1.537,-1.419 2.332,-2.122 1.206,-1.068 2.65,-1.882 4.172,-2.499 0.501,-0.199 1.095,-0.356 1.406,-0.838 -0.03,-0.053 -0.078,-0.09 -0.102,-0.141 -0.764,-0.105 -1.394,0.088 -1.965,0.194 -0.359,0.064 -0.752,0.134 -1.09,0.123 -0.271,-0.004 -0.566,-0.1 -0.856,-0.16 -0.276,-0.065 -0.575,-0.157 -0.892,-0.176 -0.511,-0.045 -1.095,0.008 -1.525,0.16 -0.806,0.295 -1.365,1.021 -1.935,1.631 -0.126,0.139 -0.267,0.306 -0.417,0.462 -0.13,0.151 -0.332,0.322 -0.41,0.471 C 10.896,1.825 10.877,2.319 10.811,2.704 10.654,3.518 10.482,4.375 10.129,5.022 9.92,5.407 9.302,6.029 8.713,5.677 8.463,5.534 8.287,5.264 8.104,5.002 7.568,4.288 7.023,3.514 6.328,2.942 6.286,2.879 6.172,2.782 6.066,2.688 5.787,2.442 5.42,2.193 5.109,1.959 4.164,1.292 2.937,0.748 1.67,0.286 1.498,0.212 1.281,0.136 1.063,0.045 0.691,-0.114 0.34,-0.315 0,0" /></g><g
           transform="translate(100.8218,69.021)"
           id="g104"><path
             id="path106"
             style="fill:#332d2b;fill-opacity:1;fill-rule:evenodd;stroke:none"
             d="m 0,0 c -0.029,0.191 0.171,0.289 0.266,0.408 0.233,0.328 0.498,0.658 0.678,1.064 0.067,0.127 0.09,0.274 0.16,0.397 0.049,0.094 0.172,0.155 0.217,0.262 0.033,0.094 0.045,0.273 0.074,0.43 0.077,0.375 0.195,0.907 0.229,1.275 0.013,0.156 0.016,0.377 0,0.471 C 1.559,4.662 1.173,4.998 0.883,5.042 0.744,5.067 0.597,5.031 0.445,5.042 0.073,5.08 -0.286,5.305 -0.564,5.489 -1.424,6.086 -2.115,6.913 -2.9,7.542 -2.872,7.619 -2.835,7.693 -2.79,7.751 -2.172,7.608 -1.534,7.416 -0.904,7.247 -0.503,7.142 -0.078,7.039 0.409,7.133 0.724,7.198 0.99,7.293 1.285,7.33 3.542,7.587 5.24,6.618 5.182,4.339 4.679,3.615 4.009,2.936 3.362,2.389 3.358,2.389 3.386,2.363 3.379,2.359 3.37,2.348 3.244,2.27 3.198,2.225 2.52,1.562 1.766,0.957 0.937,0.424 0.789,0.33 0.649,0.229 0.491,0.15 0.352,0.077 0.171,-0.045 0,0" /></g><g
           transform="translate(220.5215,73.438)"
           id="g108"><path
             id="path110"
             style="fill:#332d2b;fill-opacity:1;fill-rule:evenodd;stroke:none"
             d="m 0,0 c 0,0.013 0.014,0.013 0.014,0 0.386,-0.229 1.09,-0.242 1.664,-0.131 0.289,0.054 0.545,0.172 0.81,0.233 0.266,0.053 0.535,0.02 0.733,0.09 0.133,0.054 0.215,0.184 0.373,0.246 0.279,0.098 0.635,0.135 0.943,0.236 0.151,0.055 0.287,0.123 0.408,0.189 0.205,0.131 0.34,0.303 0.61,0.311 C 5.805,1.195 6.104,1.011 6.393,0.949 6.73,0.888 7.127,0.973 7.172,0.674 7.188,0.52 7.012,0.364 6.908,0.253 6.578,-0.106 6.105,-0.417 5.719,-0.675 5.131,-1.075 4.582,-1.431 4.078,-1.878 3.967,-1.866 3.93,-1.782 3.85,-1.755 c 0.123,0.217 0.316,0.414 0.482,0.606 0.195,0.224 0.486,0.54 0.406,0.859 C 4.693,-0.128 4.521,0.091 4.365,0.11 4.201,0.135 3.785,-0.054 3.605,-0.11 2.924,-0.352 2.094,-0.711 1.395,-0.843 0.752,-0.953 0.258,-0.43 0,0" /></g><g
           transform="translate(99.1079,46.3926)"
           id="g112"><path
             id="path114"
             style="fill:#332d2b;fill-opacity:1;fill-rule:nonzero;stroke:none"
             d="M 0,0 H 2.151 C 2.528,0 2.782,0.012 2.933,0.037 3.198,0.08 3.416,0.164 3.595,0.27 3.771,0.383 3.922,0.543 4.033,0.76 4.147,0.961 4.201,1.211 4.201,1.484 4.201,1.807 4.126,2.094 3.955,2.326 3.792,2.564 3.559,2.729 3.268,2.826 2.974,2.924 2.553,2.973 2,2.973 H 0 Z M 0,4 H 1.873 C 2.38,4 2.74,4.029 2.965,4.102 3.256,4.18 3.476,4.326 3.62,4.527 3.767,4.732 3.844,4.977 3.844,5.283 3.844,5.574 3.771,5.828 3.636,6.041 3.494,6.27 3.301,6.416 3.042,6.494 2.789,6.576 2.352,6.613 1.726,6.613 H 0 Z m -1.149,-5.027 v 8.66 H 2.102 C 2.761,7.633 3.297,7.551 3.693,7.375 4.094,7.203 4.414,6.924 4.631,6.568 4.855,6.205 4.975,5.82 4.975,5.42 4.975,5.051 4.872,4.699 4.667,4.381 4.467,4.049 4.168,3.779 3.763,3.582 4.291,3.432 4.692,3.166 4.97,2.801 5.252,2.43 5.395,1.986 5.395,1.484 5.395,1.084 5.309,0.699 5.137,0.355 4.961,0 4.752,-0.266 4.495,-0.455 4.246,-0.643 3.934,-0.777 3.55,-0.881 3.174,-0.973 2.704,-1.027 2.151,-1.027 Z" /></g><g
           transform="translate(106.7446,49.1113)"
           id="g116"><path
             id="path118"
             style="fill:#332d2b;fill-opacity:1;fill-rule:nonzero;stroke:none"
             d="M 0,0 H 3.509 C 3.453,0.523 3.321,0.918 3.104,1.186 2.766,1.596 2.328,1.793 1.788,1.793 1.296,1.793 0.883,1.641 0.553,1.305 0.221,0.979 0.028,0.541 0,0 M 3.494,-1.725 4.598,-1.852 C 4.417,-2.502 4.099,-3.002 3.627,-3.354 3.157,-3.705 2.56,-3.889 1.833,-3.889 c -0.916,0 -1.645,0.289 -2.181,0.846 -0.54,0.568 -0.814,1.365 -0.814,2.385 0,1.053 0.274,1.873 0.822,2.451 0.541,0.588 1.243,0.879 2.115,0.879 0.843,0 1.522,-0.285 2.058,-0.856 C 4.36,1.248 4.626,0.441 4.626,-0.588 v -0.295 h -4.687 c 0.044,-0.68 0.237,-1.219 0.589,-1.578 0.351,-0.373 0.789,-0.553 1.313,-0.553 0.393,0 0.719,0.098 0.998,0.311 0.27,0.201 0.491,0.527 0.655,0.978" /></g><path
           id="path120"
           style="fill:#332d2b;fill-opacity:1;fill-rule:nonzero;stroke:none"
           d="m 112.675,51.641 h 1.067 v -6.277 h -1.067 z m 0,2.384 h 1.067 v -1.217 h -1.067 z" /><path
           id="path122"
           style="fill:#332d2b;fill-opacity:1;fill-rule:nonzero;stroke:none"
           d="m 115.359,54.025 h 1.059 v -1.232 h -1.059 z m -1.351,-11.089 0.201,0.896 c 0.209,-0.051 0.381,-0.078 0.503,-0.078 0.213,0 0.377,0.078 0.488,0.217 0.106,0.142 0.159,0.504 0.159,1.076 v 6.594 h 1.059 v -6.62 c 0,-0.769 -0.098,-1.312 -0.294,-1.611 -0.262,-0.389 -0.687,-0.594 -1.281,-0.594 -0.285,0 -0.572,0.038 -0.835,0.12" /><path
           id="path124"
           style="fill:#332d2b;fill-opacity:1;fill-rule:nonzero;stroke:none"
           d="m 118.058,51.641 h 1.06 v -6.277 h -1.06 z m 0,2.384 h 1.06 v -1.217 h -1.06 z" /><g
           transform="translate(120.7412,45.3652)"
           id="g126"><path
             id="path128"
             style="fill:#332d2b;fill-opacity:1;fill-rule:nonzero;stroke:none"
             d="M 0,0 V 6.275 H 0.954 V 5.387 c 0.461,0.683 1.132,1.031 2.001,1.031 0.376,0 0.723,-0.07 1.04,-0.205 C 4.308,6.078 4.549,5.896 4.705,5.682 4.867,5.457 4.979,5.195 5.04,4.893 5.077,4.691 5.093,4.352 5.093,3.861 V 0 H 4.033 V 3.816 C 4.033,4.254 3.992,4.578 3.911,4.793 3.824,5.01 3.678,5.178 3.47,5.305 3.257,5.436 3.019,5.498 2.729,5.498 2.274,5.498 1.887,5.354 1.555,5.068 1.228,4.777 1.055,4.229 1.055,3.428 V 0 Z" /></g><g
           transform="translate(128.1504,48.6133)"
           id="g130"><path
             id="path132"
             style="fill:#332d2b;fill-opacity:1;fill-rule:nonzero;stroke:none"
             d="m 0,0 c 0,-0.822 0.166,-1.416 0.486,-1.797 0.334,-0.385 0.744,-0.572 1.239,-0.572 0.483,0 0.9,0.187 1.232,0.57 0.322,0.371 0.495,0.969 0.495,1.762 0,0.773 -0.173,1.353 -0.509,1.738 C 2.605,2.094 2.188,2.291 1.705,2.291 1.23,2.291 0.83,2.094 0.502,1.713 0.166,1.33 0,0.76 0,0 m -0.872,-3.768 1.035,-0.15 c 0.041,-0.316 0.159,-0.549 0.352,-0.701 0.265,-0.199 0.63,-0.293 1.079,-0.293 0.496,0 0.881,0.094 1.144,0.293 0.276,0.197 0.451,0.471 0.541,0.826 0.061,0.221 0.083,0.676 0.083,1.363 -0.467,-0.549 -1.044,-0.818 -1.736,-0.818 -0.862,0 -1.532,0.307 -2.008,0.934 -0.465,0.625 -0.706,1.369 -0.706,2.24 0,0.597 0.106,1.148 0.321,1.662 0.213,0.498 0.538,0.891 0.945,1.168 0.414,0.273 0.897,0.414 1.453,0.414 0.745,0 1.349,-0.303 1.837,-0.897 v 0.754 h 0.973 v -5.423 c 0,-0.985 -0.102,-1.67 -0.298,-2.079 C 3.942,-4.881 3.631,-5.203 3.197,-5.445 2.762,-5.678 2.236,-5.797 1.606,-5.797 c -0.752,0 -1.354,0.176 -1.807,0.508 -0.467,0.344 -0.694,0.842 -0.671,1.521" /></g><path
           id="path134"
           style="fill:#332d2b;fill-opacity:1;fill-rule:nonzero;stroke:none"
           d="m 137.555,54.025 h 1.07 v -1.232 h -1.07 z m -1.343,-11.089 0.204,0.896 c 0.213,-0.051 0.376,-0.078 0.496,-0.078 0.221,0 0.379,0.078 0.49,0.217 0.102,0.142 0.153,0.504 0.153,1.076 v 6.594 h 1.07 v -6.62 c 0,-0.769 -0.107,-1.312 -0.303,-1.611 -0.259,-0.389 -0.682,-0.594 -1.276,-0.594 -0.287,0 -0.569,0.038 -0.834,0.12" /><path
           id="path136"
           style="fill:#332d2b;fill-opacity:1;fill-rule:nonzero;stroke:none"
           d="m 140.262,51.641 h 1.059 v -6.277 h -1.059 z m 0,2.384 h 1.059 v -1.217 h -1.059 z" /><g
           transform="translate(146.9453,48.5234)"
           id="g138"><path
             id="path140"
             style="fill:#332d2b;fill-opacity:1;fill-rule:nonzero;stroke:none"
             d="m 0,0 c -0.385,-0.16 -0.967,-0.299 -1.736,-0.414 -0.436,-0.061 -0.744,-0.131 -0.926,-0.205 -0.182,-0.086 -0.324,-0.195 -0.419,-0.352 -0.103,-0.142 -0.15,-0.318 -0.15,-0.502 0,-0.283 0.105,-0.515 0.321,-0.713 0.219,-0.179 0.533,-0.273 0.945,-0.273 0.41,0 0.77,0.09 1.088,0.262 0.324,0.183 0.563,0.422 0.706,0.732 C -0.057,-1.223 0,-0.871 0,-0.393 Z m 0.094,-2.381 c -0.399,-0.336 -0.778,-0.568 -1.137,-0.707 -0.369,-0.148 -0.754,-0.213 -1.18,-0.213 -0.687,0 -1.213,0.17 -1.59,0.502 -0.367,0.34 -0.552,0.774 -0.552,1.301 0,0.299 0.07,0.586 0.215,0.836 0.136,0.256 0.316,0.457 0.546,0.617 0.225,0.15 0.478,0.262 0.77,0.344 0.203,0.056 0.516,0.099 0.939,0.158 0.856,0.107 1.495,0.229 1.895,0.369 0.004,0.147 0.008,0.242 0.008,0.278 0,0.429 -0.104,0.74 -0.299,0.916 -0.274,0.234 -0.682,0.361 -1.219,0.361 -0.491,0 -0.867,-0.092 -1.101,-0.262 C -2.852,1.943 -3.023,1.631 -3.139,1.186 l -1.047,0.142 c 0.095,0.445 0.258,0.799 0.467,1.076 0.221,0.276 0.531,0.487 0.946,0.631 0.408,0.151 0.878,0.225 1.421,0.225 0.541,0 0.971,-0.063 1.305,-0.188 C 0.293,2.949 0.535,2.785 0.691,2.594 0.851,2.404 0.965,2.156 1.021,1.869 1.06,1.693 1.08,1.361 1.08,0.891 v -1.418 c 0,-0.987 0.024,-1.612 0.066,-1.879 0.044,-0.258 0.131,-0.516 0.268,-0.752 H 0.303 c -0.112,0.224 -0.185,0.482 -0.209,0.777" /></g><g
           transform="translate(150.3691,48.5059)"
           id="g142"><path
             id="path144"
             style="fill:#332d2b;fill-opacity:1;fill-rule:nonzero;stroke:none"
             d="m 0,0 c 0,-0.805 0.175,-1.41 0.521,-1.803 0.354,-0.404 0.792,-0.605 1.331,-0.605 0.525,0 0.961,0.201 1.31,0.605 0.359,0.408 0.531,1.014 0.531,1.836 C 3.693,0.811 3.521,1.4 3.162,1.801 2.807,2.193 2.377,2.398 1.852,2.398 1.313,2.398 0.875,2.201 0.521,1.801 0.175,1.4 0,0.799 0,0 m -1.097,0 c 0,1.158 0.324,2.025 0.969,2.578 0.541,0.471 1.194,0.699 1.98,0.699 0.863,0 1.567,-0.279 2.112,-0.843 C 4.516,1.869 4.789,1.086 4.789,0.086 4.789,-0.723 4.658,-1.354 4.422,-1.816 4.18,-2.285 3.828,-2.633 3.365,-2.891 2.898,-3.156 2.396,-3.283 1.852,-3.283 c -0.883,0 -1.59,0.289 -2.135,0.845 -0.543,0.565 -0.814,1.375 -0.814,2.438" /></g><g
           transform="translate(158.7246,46.3223)"
           id="g146"><path
             id="path148"
             style="fill:#332d2b;fill-opacity:1;fill-rule:nonzero;stroke:none"
             d="m 0,0 0.152,-0.949 c -0.295,-0.057 -0.564,-0.09 -0.802,-0.09 -0.388,0 -0.691,0.057 -0.9,0.185 -0.214,0.122 -0.363,0.282 -0.446,0.477 -0.088,0.209 -0.133,0.619 -0.133,1.256 V 4.49 h -0.779 v 0.828 h 0.779 V 6.877 L -1.07,7.51 V 5.318 H 0 V 4.49 H -1.07 V 0.826 c 0,-0.306 0.022,-0.498 0.052,-0.584 0.038,-0.092 0.102,-0.156 0.184,-0.209 0.09,-0.056 0.204,-0.078 0.365,-0.078 0.115,0 0.278,0.016 0.469,0.045" /></g><g
           transform="translate(160.4668,48.5059)"
           id="g150"><path
             id="path152"
             style="fill:#332d2b;fill-opacity:1;fill-rule:nonzero;stroke:none"
             d="m 0,0 c 0,-0.805 0.172,-1.41 0.516,-1.803 0.356,-0.404 0.798,-0.605 1.33,-0.605 0.519,0 0.964,0.201 1.316,0.605 0.357,0.408 0.52,1.014 0.52,1.836 C 3.682,0.811 3.51,1.4 3.162,1.801 2.807,2.193 2.365,2.398 1.846,2.398 1.314,2.398 0.872,2.201 0.516,1.801 0.172,1.4 0,0.799 0,0 m -1.1,0 c 0,1.158 0.324,2.025 0.967,2.578 0.543,0.471 1.193,0.699 1.979,0.699 0.862,0 1.566,-0.279 2.115,-0.843 0.547,-0.565 0.822,-1.348 0.822,-2.348 0,-0.809 -0.128,-1.44 -0.37,-1.902 C 4.174,-2.285 3.824,-2.633 3.359,-2.891 2.896,-3.156 2.398,-3.283 1.846,-3.283 c -0.885,0 -1.592,0.289 -2.131,0.845 C -0.826,-1.873 -1.1,-1.063 -1.1,0" /></g><g
           transform="translate(166.4922,45.3652)"
           id="g154"><path
             id="path156"
             style="fill:#332d2b;fill-opacity:1;fill-rule:nonzero;stroke:none"
             d="M 0,0 V 6.275 H 0.962 V 5.387 C 1.416,6.07 2.087,6.418 2.959,6.418 3.335,6.418 3.682,6.348 4,6.213 4.32,6.078 4.557,5.896 4.713,5.682 4.865,5.457 4.979,5.195 5.044,4.893 5.085,4.691 5.109,4.352 5.109,3.861 V 0 H 4.037 V 3.816 C 4.037,4.254 3.996,4.578 3.914,4.793 3.834,5.01 3.685,5.178 3.475,5.305 3.256,5.436 3.017,5.498 2.73,5.498 2.278,5.498 1.891,5.354 1.555,5.068 1.232,4.777 1.06,4.229 1.06,3.428 V 0 Z" /></g><g
           transform="translate(173.9043,48.6133)"
           id="g158"><path
             id="path160"
             style="fill:#332d2b;fill-opacity:1;fill-rule:nonzero;stroke:none"
             d="m 0,0 c 0,-0.822 0.172,-1.416 0.5,-1.797 0.325,-0.385 0.736,-0.572 1.223,-0.572 0.486,0 0.899,0.187 1.235,0.57 0.327,0.371 0.495,0.969 0.495,1.762 0,0.773 -0.173,1.353 -0.512,1.738 C 2.602,2.094 2.189,2.291 1.706,2.291 1.236,2.291 0.831,2.094 0.5,1.713 0.172,1.33 0,0.76 0,0 m -0.874,-3.768 1.034,-0.15 c 0.045,-0.316 0.163,-0.549 0.36,-0.701 0.261,-0.199 0.626,-0.293 1.075,-0.293 0.496,0 0.875,0.094 1.145,0.293 0.267,0.197 0.451,0.471 0.545,0.826 0.054,0.221 0.082,0.676 0.082,1.363 -0.468,-0.549 -1.053,-0.818 -1.74,-0.818 -0.866,0 -1.536,0.307 -2.003,0.934 -0.476,0.625 -0.708,1.369 -0.708,2.24 0,0.597 0.1,1.148 0.318,1.662 0.217,0.498 0.537,0.891 0.946,1.168 0.413,0.273 0.893,0.414 1.447,0.414 0.745,0 1.355,-0.303 1.838,-0.897 v 0.754 h 0.977 v -5.423 c 0,-0.985 -0.102,-1.67 -0.296,-2.079 -0.203,-0.406 -0.514,-0.728 -0.948,-0.97 -0.432,-0.233 -0.961,-0.352 -1.59,-0.352 -0.754,0 -1.35,0.176 -1.808,0.508 -0.467,0.344 -0.687,0.842 -0.674,1.521" /></g><g
           transform="translate(189.1406,54.0254)"
           id="g162"><path
             id="path164"
             style="fill:#332d2b;fill-opacity:1;fill-rule:nonzero;stroke:none"
             d="m 0,0 h 1.15 v -5.004 c 0,-0.871 -0.103,-1.562 -0.302,-2.068 -0.202,-0.516 -0.553,-0.93 -1.067,-1.252 -0.51,-0.328 -1.187,-0.483 -2.023,-0.483 -0.813,0 -1.481,0.139 -1.992,0.416 -0.516,0.282 -0.883,0.688 -1.104,1.219 -0.217,0.527 -0.33,1.244 -0.33,2.168 V 0 h 1.141 v -4.996 c 0,-0.752 0.074,-1.309 0.213,-1.664 0.146,-0.356 0.382,-0.629 0.726,-0.826 0.336,-0.184 0.752,-0.282 1.244,-0.282 0.846,0 1.444,0.188 1.799,0.573 C -0.184,-6.824 0,-6.084 0,-4.996 Z" /></g><g
           transform="translate(192.0527,45.3652)"
           id="g166"><path
             id="path168"
             style="fill:#332d2b;fill-opacity:1;fill-rule:nonzero;stroke:none"
             d="M 0,0 V 6.275 H 0.967 V 5.387 C 1.432,6.07 2.082,6.418 2.959,6.418 3.334,6.418 3.684,6.348 4,6.213 4.316,6.078 4.563,5.896 4.713,5.682 4.873,5.457 4.979,5.195 5.049,4.893 5.08,4.691 5.107,4.352 5.107,3.861 V 0 H 4.037 V 3.816 C 4.037,4.254 4,4.578 3.914,4.793 3.834,5.01 3.693,5.178 3.469,5.305 3.264,5.436 3.016,5.498 2.732,5.498 2.283,5.498 1.891,5.354 1.568,5.068 1.229,4.777 1.072,4.229 1.072,3.428 V 0 Z" /></g><path
           id="path170"
           style="fill:#332d2b;fill-opacity:1;fill-rule:nonzero;stroke:none"
           d="m 198.791,51.641 h 1.072 v -6.277 h -1.072 z m 0,2.384 h 1.072 v -1.217 h -1.072 z" /><g
           transform="translate(203.2188,45.3652)"
           id="g172"><path
             id="path174"
             style="fill:#332d2b;fill-opacity:1;fill-rule:nonzero;stroke:none"
             d="m 0,0 -2.383,6.275 h 1.115 L 0.084,2.523 C 0.23,2.111 0.361,1.693 0.486,1.26 0.582,1.588 0.713,1.98 0.881,2.451 L 2.275,6.275 H 3.373 L 0.996,0 Z" /></g><g
           transform="translate(208.3281,49.1113)"
           id="g176"><path
             id="path178"
             style="fill:#332d2b;fill-opacity:1;fill-rule:nonzero;stroke:none"
             d="M 0,0 H 3.51 C 3.461,0.523 3.326,0.918 3.109,1.186 2.766,1.596 2.328,1.793 1.791,1.793 1.301,1.793 0.889,1.641 0.553,1.305 0.229,0.979 0.031,0.541 0,0 M 3.496,-1.725 4.598,-1.852 C 4.418,-2.502 4.104,-3.002 3.633,-3.354 3.162,-3.705 2.564,-3.889 1.836,-3.889 c -0.92,0 -1.643,0.289 -2.188,0.846 -0.539,0.568 -0.81,1.365 -0.81,2.385 0,1.053 0.271,1.873 0.818,2.451 0.545,0.588 1.248,0.879 2.123,0.879 0.836,0 1.518,-0.285 2.055,-0.856 0.531,-0.568 0.799,-1.375 0.799,-2.404 0,-0.066 -0.006,-0.16 -0.006,-0.295 h -4.676 c 0.033,-0.68 0.225,-1.219 0.58,-1.578 0.35,-0.373 0.785,-0.553 1.311,-0.553 0.392,0 0.722,0.098 0.996,0.311 0.275,0.201 0.5,0.527 0.658,0.978" /></g><g
           transform="translate(214.2422,45.3652)"
           id="g180"><path
             id="path182"
             style="fill:#332d2b;fill-opacity:1;fill-rule:nonzero;stroke:none"
             d="M 0,0 V 6.275 H 0.953 V 5.322 c 0.25,0.449 0.477,0.744 0.68,0.887 0.213,0.139 0.439,0.209 0.683,0.209 0.36,0 0.725,-0.111 1.098,-0.348 L 3.047,5.088 C 2.783,5.244 2.533,5.314 2.264,5.314 2.033,5.314 1.826,5.244 1.641,5.109 1.453,4.965 1.326,4.773 1.24,4.531 1.123,4.152 1.064,3.734 1.064,3.285 V 0 Z" /></g><g
           transform="translate(217.8633,47.2422)"
           id="g184"><path
             id="path186"
             style="fill:#332d2b;fill-opacity:1;fill-rule:nonzero;stroke:none"
             d="m 0,0 1.051,0.168 c 0.058,-0.426 0.23,-0.748 0.498,-0.979 0.267,-0.228 0.648,-0.334 1.123,-0.334 0.49,0 0.853,0.098 1.09,0.295 0.234,0.196 0.357,0.442 0.357,0.704 0,0.242 -0.107,0.433 -0.314,0.572 C 3.666,0.512 3.297,0.646 2.713,0.785 1.934,0.982 1.395,1.154 1.092,1.293 0.789,1.449 0.564,1.637 0.404,1.895 c -0.146,0.25 -0.23,0.529 -0.23,0.837 0,0.284 0.068,0.541 0.193,0.778 0.129,0.238 0.307,0.441 0.531,0.59 0.157,0.13 0.383,0.232 0.67,0.31 0.286,0.086 0.592,0.131 0.92,0.131 0.494,0 0.928,-0.07 1.301,-0.209 C 4.16,4.189 4.432,4 4.609,3.76 4.791,3.51 4.906,3.18 4.975,2.781 L 3.932,2.643 C 3.881,2.961 3.744,3.215 3.525,3.398 3.297,3.58 2.982,3.662 2.561,3.662 2.074,3.662 1.73,3.58 1.518,3.424 1.311,3.27 1.205,3.072 1.205,2.855 1.205,2.721 1.246,2.598 1.338,2.492 1.428,2.377 1.559,2.275 1.738,2.195 1.854,2.16 2.162,2.074 2.684,1.928 3.436,1.734 3.955,1.566 4.258,1.432 4.557,1.301 4.791,1.121 4.967,0.889 5.125,0.635 5.205,0.332 5.205,-0.033 5.205,-0.381 5.107,-0.725 4.906,-1.039 4.695,-1.346 4.396,-1.592 4.004,-1.764 3.607,-1.934 3.172,-2.02 2.684,-2.02 1.871,-2.02 1.242,-1.85 0.814,-1.518 0.389,-1.174 0.119,-0.67 0,0" /></g><path
           id="path188"
           style="fill:#332d2b;fill-opacity:1;fill-rule:nonzero;stroke:none"
           d="m 224.346,51.641 h 1.061 v -6.277 h -1.061 z m 0,2.384 h 1.061 v -1.217 h -1.061 z" /><g
           transform="translate(229.3438,46.3223)"
           id="g190"><path
             id="path192"
             style="fill:#332d2b;fill-opacity:1;fill-rule:nonzero;stroke:none"
             d="m 0,0 0.166,-0.949 c -0.309,-0.057 -0.568,-0.09 -0.807,-0.09 -0.384,0 -0.687,0.057 -0.902,0.185 -0.215,0.122 -0.361,0.282 -0.445,0.477 -0.09,0.209 -0.133,0.619 -0.133,1.256 V 4.49 h -0.777 v 0.828 h 0.777 V 6.877 L -1.063,7.51 V 5.318 H 0 V 4.49 H -1.063 V 0.826 c 0,-0.306 0.016,-0.498 0.053,-0.584 0.045,-0.092 0.104,-0.156 0.184,-0.209 0.084,-0.056 0.209,-0.078 0.373,-0.078 0.115,0 0.269,0.016 0.453,0.045" /></g><g
           transform="translate(230.3398,42.9512)"
           id="g194"><path
             id="path196"
             style="fill:#332d2b;fill-opacity:1;fill-rule:nonzero;stroke:none"
             d="M 0,0 -0.113,1 C 0.119,0.938 0.324,0.904 0.494,0.904 0.732,0.904 0.92,0.945 1.059,1.02 1.197,1.096 1.324,1.207 1.41,1.352 1.477,1.461 1.582,1.719 1.736,2.145 1.754,2.201 1.781,2.283 1.822,2.406 L -0.551,8.689 H 0.592 L 1.896,5.053 C 2.068,4.598 2.215,4.107 2.354,3.605 2.473,4.096 2.629,4.568 2.793,5.037 L 4.135,8.689 H 5.199 L 2.809,2.313 C 2.551,1.625 2.354,1.139 2.215,0.881 2.023,0.537 1.805,0.273 1.566,0.111 1.324,-0.049 1.025,-0.135 0.691,-0.135 0.48,-0.135 0.252,-0.09 0,0" /></g><g
           transform="translate(42.3452,50.21)"
           id="g198"><path
             id="path200"
             style="fill:#332d2b;fill-opacity:1;fill-rule:nonzero;stroke:none"
             d="m 0,0 c -0.139,-0.006 -0.244,0.027 -0.317,0.098 -0.09,0.088 -0.136,0.24 -0.136,0.451 0.024,0.482 0.26,0.553 0.435,0.566 C 0.159,1.109 0.407,1.047 0.419,0.582 0.407,0.084 0.174,0.012 0,0 M -0.022,1.631 C -0.618,1.607 -0.933,1.238 -0.965,0.537 c 0.021,-0.646 0.335,-1.002 0.906,-1.037 0.214,0.006 0.369,0.08 0.496,0.184 -0.09,-0.504 -0.254,-0.77 -0.502,-0.762 -0.141,0 -0.329,0.041 -0.373,0.398 l -0.01,0.076 h -0.495 l 0.008,-0.095 c 0.042,-0.531 0.341,-0.817 0.865,-0.83 0.402,0 0.692,0.205 0.863,0.607 0.131,0.303 0.199,0.678 0.199,1.111 -0.022,0.946 -0.363,1.43 -1.014,1.442 m -2.731,-2.692 c -0.3,0.01 -0.449,0.168 -0.468,0.5 0.018,0.297 0.163,0.442 0.459,0.452 0.301,-0.01 0.447,-0.164 0.455,-0.487 0,-0.312 -0.137,-0.455 -0.446,-0.465 m -0.038,2.174 c 0.34,-0.011 0.398,-0.193 0.41,-0.334 -0.018,-0.246 -0.141,-0.371 -0.39,-0.388 -0.238,0.017 -0.362,0.138 -0.378,0.375 0.016,0.228 0.127,0.339 0.358,0.347 m 0.619,-0.949 c 0.181,0.147 0.29,0.35 0.29,0.629 C -1.925,1.32 -2.234,1.607 -2.776,1.631 -3.315,1.619 -3.619,1.314 -3.662,0.75 c 0,-0.283 0.12,-0.469 0.31,-0.594 -0.249,-0.152 -0.398,-0.383 -0.398,-0.717 -10e-4,-0.015 -10e-4,-0.031 -10e-4,-0.046 0,-0.307 0.1,-0.545 0.298,-0.706 0.196,-0.132 0.424,-0.205 0.684,-0.216 h 0.001 c 0.31,0 0.549,0.08 0.712,0.236 0.185,0.205 0.277,0.455 0.277,0.748 0,0.328 -0.146,0.557 -0.393,0.709 M 2.819,-1.061 C 2.625,-1.055 2.37,-0.986 2.348,-0.492 2.37,-0.016 2.622,0.047 2.809,0.053 2.983,0.049 3.226,-0.014 3.249,-0.482 3.226,-0.973 2.993,-1.047 2.819,-1.061 M 2.857,0.553 H 2.855 C 2.629,0.553 2.466,0.469 2.332,0.346 2.397,0.836 2.564,1.098 2.855,1.115 2.982,1.113 3.166,1.076 3.221,0.746 L 3.232,0.674 H 3.727 L 3.717,0.77 C 3.664,1.297 3.366,1.596 2.855,1.631 2.547,1.631 2.295,1.498 2.103,1.236 1.896,0.963 1.791,0.533 1.791,-0.039 c 0,-0.447 0.067,-0.801 0.201,-1.053 0.176,-0.279 0.432,-0.424 0.766,-0.437 0.344,-0.012 0.591,0.084 0.737,0.281 0.185,0.217 0.281,0.482 0.281,0.785 C 3.756,0.156 3.438,0.506 2.857,0.553 M -5.577,1.559 C -5.611,1.355 -5.678,1.223 -5.774,1.16 -5.829,1.119 -5.946,1.072 -6.216,1.059 L -6.299,1.057 V 0.592 h 0.633 V -1.48 h 0.513 v 3.111 h -0.411 z m 2.442,30.719 h -6.868 v -1.935 h 6.868 z m -6.868,-6.333 h 1.552 l 0.356,1.088 2.623,-1.071 2.337,-0.017 v 1.926 h -6.868 z m 19.687,0.392 1.44,1.398 -4.658,9.993 -2.138,-0.889 V 32.562 L 6.825,26.337 Z M 7.718,25.602 H -5.664 l -2.517,-8.514 1.491,-0.861 c 0,0 10.4,-0.065 11.162,0 0.662,0.828 3.246,2.816 3.246,2.816 z M -5.929,13.412 H 4.604 v 1.723 H -5.929 Z M -7.957,10.336 V 8.85 H 6.416 v 1.527 L 4.741,12.426 -6.363,12.412 Z M 3.666,39.07 H 1.416 V 26.409 h 2.25 z M -10.003,28.121 h 6.868 v 1.98 h -6.868 z m 18.681,-8.316 1.26,0.862 v 4.967 l -1.26,-0.032 z m 9.146,-4.055 0.645,-0.371 -0.016,-1.92 -0.629,-0.305 -0.645,0.305 0.032,1.936 z m -0.645,3.708 0.032,1.936 0.613,0.355 0.645,-0.372 -0.016,-1.919 -0.629,-0.305 z m -0.613,-3.081 v -3.902 l 0.807,-0.387 0.016,-3.742 h 0.822 v 3.759 l 0.871,0.37 v 3.886 l -0.887,0.516 v 0.469 h 0.016 v 0.758 l 0.871,0.371 v 3.886 l -0.887,0.515 v 0.6 c 0.208,0.022 0.322,0.039 0.322,0.039 l 0.033,1.59 -7.851,-0.033 0.067,-3.942 c 0,0 4.703,2.219 6.591,2.286 0.017,0 0.032,0.001 0.047,0.002 v -0.573 l -0.838,-0.468 v -3.902 l 0.807,-0.387 0.016,-0.742 h 0.015 v -0.5 z M -9.504,3.541 H 8.198 V 7.896 H -9.504 Z m 6.383,34.605 c -2.389,-2.39 -4.215,-2.064 -5.492,-2.375 -1.277,-0.313 -2.969,-1.827 -2.969,-1.827 v -1.083 h 8.461 z m -3.377,-12.526 -1.121,0.531 -6.076,-19.094 -1.318,0.49 -0.728,-1.592 1.633,-0.865 c 0,0 2.182,-0.512 2.93,-0.139 0.217,0.592 0.334,0.904 0.334,0.904 l -1.613,0.709 z M 0.534,39.158 H -2.775 V 26.453 H 0.534 Z M -13.479,25.639 h -3.54 v -3.46 l 3.54,-2.104 z m 4.838,0 h -4.307 v -5.82 l 2.124,-1.219 z m 8.384,-29.86 c -13.203,0 -23.908,10.703 -23.908,23.908 0,13.204 10.705,23.91 23.908,23.91 13.205,0 23.909,-10.706 23.909,-23.91 0,-13.205 -10.704,-23.908 -23.909,-23.908 m 13.181,2.446 0.494,-0.782 0.934,0.608 -0.518,0.744 0.915,0.674 0.551,-0.739 0.873,0.68 -0.574,0.697 0.854,0.733 0.619,-0.695 0.823,0.777 -0.668,0.654 0.796,0.805 0.662,-0.635 0.763,0.818 -0.702,0.586 0.747,0.877 0.68,-0.566 0.699,0.894 -0.755,0.541 0.657,0.924 0.752,-0.527 0.608,0.967 -0.798,0.469 0.56,0.99 0.797,-0.461 0.525,0.974 -0.823,0.43 0.483,1.031 0.809,-0.388 0.434,1.039 -0.884,0.328 0.401,1.07 0.868,-0.318 0.355,1.068 -0.91,0.27 0.272,1.068 0.891,-0.205 0.257,1.09 -0.895,0.172 0.177,1.123 0.911,-0.155 0.147,1.122 -0.926,0.097 0.087,1.119 0.934,-0.072 0.033,1.152 -0.925,0.004 0.003,1.133 0.93,0.01 -0.045,1.096 -0.93,-0.03 -0.094,1.107 0.895,0.098 -0.144,1.1 -0.928,-0.152 -0.197,1.149 0.903,0.146 -0.227,1.093 -0.914,-0.22 -0.283,1.091 0.861,0.265 -0.325,1.049 -0.865,-0.338 -0.393,1.083 0.861,0.343 -0.441,1.029 -0.839,-0.39 -0.48,1.013 0.827,0.434 -0.54,1.008 -0.789,-0.472 -0.571,0.955 0.79,0.507 -0.616,0.944 -0.763,-0.529 -0.646,0.904 0.74,0.559 -0.694,0.884 -0.699,-0.586 -0.722,0.835 0.672,0.619 -0.759,0.831 -0.661,-0.657 -0.793,0.796 0.642,0.666 -0.842,0.767 -0.609,-0.7 -0.864,0.719 0.581,0.709 -0.887,0.68 -0.559,-0.748 -0.91,0.661 0.521,0.725 -0.956,0.62 -0.48,-0.801 -0.944,0.571 0.419,0.773 -0.974,0.537 -0.42,-0.815 -1.034,0.476 0.389,0.834 -1.035,0.415 -0.336,-0.846 -1.066,0.378 0.314,0.839 -1.076,0.359 -0.265,-0.899 -1.084,0.309 0.219,0.873 -1.099,0.238 -0.14,-0.899 -1.14,0.204 0.151,0.898 -1.118,0.133 -0.091,-0.91 -1.118,0.102 0.053,0.898 -1.107,0.042 -0.015,-0.91 -1.133,-0.004 0.007,0.914 -1.144,-0.042 0.038,-0.936 -1.111,-0.08 -0.064,0.892 -1.126,-0.132 0.129,-0.929 -1.107,-0.193 -0.154,0.907 -1.118,-0.246 0.23,-0.887 -1.088,-0.314 -0.235,0.895 -1.072,-0.359 0.272,-0.854 -1.031,-0.4 -0.332,0.857 -1.043,-0.449 0.374,-0.808 -0.99,-0.495 -0.418,0.823 -1.005,-0.536 0.438,-0.786 -0.948,-0.578 -0.487,0.801 -0.948,-0.627 0.51,-0.759 -0.892,-0.627 -0.547,0.733 -0.9,-0.725 0.567,-0.688 -0.823,-0.699 -0.609,0.661 -0.826,-0.771 0.619,-0.656 -0.782,-0.793 -0.65,0.656 -0.747,-0.853 0.664,-0.616 -0.706,-0.85 -0.699,0.582 -0.694,-0.895 0.724,-0.559 -0.627,-0.892 -0.732,0.499 -0.608,-0.933 0.774,-0.506 -0.563,-0.94 -0.789,0.438 -0.514,-0.998 0.812,-0.43 -0.476,-1.008 -0.805,0.378 -0.434,-1.036 0.85,-0.362 -0.381,-1.027 -0.854,0.309 -0.34,-1.076 0.865,-0.265 -0.279,-1.076 -0.892,0.208 -0.246,-1.104 0.911,-0.17 -0.17,-1.11 -0.907,0.144 -0.131,-1.122 0.898,-0.103 -0.09,-1.085 -0.914,0.05 -0.018,-1.126 h 0.887 l 0.011,-1.153 -0.898,-0.003 0.022,-1.118 0.948,0.045 0.083,-1.141 -0.891,-0.056 0.121,-1.104 0.906,0.15 0.212,-1.129 -0.899,-0.162 0.253,-1.115 0.865,0.254 0.336,-1.107 -0.903,-0.241 0.363,-1.101 0.849,0.314 0.401,-1.054 -0.842,-0.313 0.423,-1.051 0.842,0.375 0.461,-1.009 -0.812,-0.397 0.521,-1.008 0.801,0.457 0.57,-0.974 -0.778,-0.469 0.612,-0.959 0.74,0.527 0.665,-0.902 -0.729,-0.547 0.695,-0.893 0.691,0.59 0.725,-0.853 -0.676,-0.643 0.744,-0.785 0.657,0.641 0.794,-0.785 -0.639,-0.676 0.835,-0.752 0.616,0.703 0.861,-0.748 -0.574,-0.695 0.88,-0.68 0.551,0.736 0.926,-0.65 -0.517,-0.744 0.932,-0.608 0.506,0.793 0.948,-0.566 -0.438,-0.789 1.005,-0.526 0.423,0.842 1.016,-0.498 -0.389,-0.816 1.039,-0.416 0.343,0.855 1.05,-0.394 -0.321,-0.875 1.073,-0.334 0.283,0.91 1.054,-0.313 -0.211,-0.881 1.094,-0.23 0.182,0.91 1.1,-0.203 -0.133,-0.9 1.137,-0.131 0.075,0.892 1.122,-0.084 -0.064,-0.922 1.141,-0.023 -0.001,0.914 1.148,-0.008 0.005,-0.89 1.11,0.041 -0.053,0.91 1.099,0.111 0.106,-0.889 1.103,0.133 -0.143,0.891 1.099,0.209 0.181,-0.897 1.107,0.268 -0.238,0.857 1.081,0.319 0.271,-0.889 1.058,0.342 -0.313,0.863 1.069,0.408 0.344,-0.869 1.02,0.432 -0.389,0.826 1.027,0.492 0.427,-0.834 0.982,0.535 -0.46,0.78 z m 10.318,34.513 c 0.03,-0.196 0.042,-0.673 0.273,-0.658 0.23,0.015 0.552,0.223 0.888,0.56 0.337,0.337 0.534,0.586 0.61,0.635 0.075,0.05 0.284,0.435 0.333,0.435 0.049,0 0.374,-0.173 0.382,-0.298 0.007,-0.125 -0.242,-0.091 -0.299,-0.046 -0.057,0.046 -0.076,-0.053 0.106,-0.121 0.181,-0.068 0.333,-0.208 0.378,-0.344 0.046,-0.136 0.193,-0.08 0.273,-0.129 0.079,-0.049 0.306,-0.242 0.352,-0.215 0.045,0.026 0.128,0.166 0.053,0.348 -0.076,0.181 -0.072,0.359 -0.152,0.431 -0.08,0.072 -0.31,0.03 -0.461,0.124 -0.152,0.095 -0.443,0.288 -0.561,0.413 -0.117,0.125 -0.102,0 -0.348,0.155 -0.245,0.156 -0.741,0.386 -0.843,0.496 0,0 -0.155,0.003 -0.178,0.261 -0.023,0.257 -0.038,0.227 -0.079,0.125 -0.042,-0.103 -0.314,-0.378 -0.046,-0.595 0.269,-0.214 1.286,-0.404 1.279,-0.604 -0.008,-0.099 -0.098,-0.121 -0.258,-0.262 0,0 -0.427,-0.42 -0.639,-0.53 -0.211,-0.109 -0.351,-0.143 -0.427,-0.283 -0.08,-0.094 -0.144,-0.015 -0.205,0.061 -0.06,0.075 -0.124,0.227 -0.196,0.34 -0.072,0.113 0.003,0.132 -0.095,0.265 -0.098,0.133 -0.17,0.208 -0.245,0.537 -0.076,0.329 -0.091,0.443 -0.13,0.401 -0.037,-0.042 0.008,-0.518 0.08,-0.738 0.072,-0.219 0.125,-0.567 0.155,-0.764 m 2.577,1.385 c -0.211,-0.011 -0.34,-0.014 -0.31,-0.05 0.03,-0.036 0.443,-0.099 0.615,-0.179 0.171,-0.081 0.331,-0.044 0.301,0.052 -0.03,0.097 -0.094,0.26 -0.221,0.34 -0.128,0.08 -0.407,0.172 -0.571,0.338 -0.163,0.166 -0.246,0.197 -0.268,0.263 0,0 -0.058,0.097 -0.069,0.155 -0.011,0.058 -0.111,-0.08 -0.042,-0.233 0.069,-0.152 0.465,-0.307 0.573,-0.417 0.108,-0.112 0.202,-0.258 -0.008,-0.269 m 0.028,1.954 c 0.049,0.038 -0.114,0.099 -0.208,0.083 -0.094,-0.016 -0.468,-0.034 -0.523,-0.014 -0.055,0.019 -0.099,-0.031 -0.099,-0.031 0.019,-0.041 0.168,-0.044 0.334,-0.063 0.166,-0.02 0.446,-0.014 0.496,0.025 M 30,35.98 c 0.231,0.071 0.472,0.317 0.283,1.095 -0.037,-0.047 -0.037,-0.07 -0.037,-0.07 0,0 -0.038,-0.407 -0.742,-0.435 -0.481,-0.033 -0.783,-0.014 -0.788,-0.061 0,0 0.42,-0.189 0.628,-0.288 0.207,-0.099 0.425,-0.312 0.656,-0.241 m -2.575,-0.703 c 0.163,0 0.919,-0.337 1.142,-0.332 0.223,0.006 0.37,0.745 0.381,0.892 0.01,0.147 0.124,0.087 0.124,0.087 0.147,-0.12 0.608,-0.237 0.833,-0.5 0.19,-0.223 0.451,-0.332 0.456,-0.462 0.006,-0.131 -0.32,-0.066 -0.548,-0.098 -0.23,-0.033 -1.153,-0.196 -1.817,-0.234 -0.664,-0.038 -0.751,0.081 -0.767,0.179 -0.016,0.098 0.033,0.468 0.196,0.468 m 0.862,0.463 c 0.312,-0.024 0.278,0.202 0.306,0.321 0.026,0.104 0.173,-0.006 0.206,-0.033 0.005,-0.004 0.007,-0.006 0.007,-0.006 0.174,-0.136 -0.118,-0.641 -0.213,-0.731 -0.094,-0.09 -0.259,-0.165 -0.58,-0.108 -0.321,0.056 -0.604,0.226 -0.59,0.462 0.015,0.236 0.552,0.118 0.864,0.095 m -3.998,-0.15 c 0.476,-0.031 0.811,-0.128 1.045,-0.177 0.236,-0.05 0.576,-0.073 0.781,-0.18 0.204,-0.108 0.67,-0.33 0.755,-0.421 0.087,-0.091 0.219,-0.368 0.443,-0.387 0.224,-0.019 0.255,0.03 0.308,-0.025 0.052,-0.056 0.569,-0.54 0.65,-0.672 0.08,-0.133 0.11,-0.258 -0.037,-0.239 -0.146,0.02 -0.663,0.358 -0.893,0.526 -0.23,0.169 -0.823,0.42 -0.909,0.478 -0.085,0.058 -0.073,-0.051 0.132,-0.156 0.061,-0.031 0.11,-0.057 0.17,-0.094 0.142,-0.088 0.279,-0.218 0.424,-0.383 0.208,-0.235 0.534,-0.587 0.961,-0.658 0.425,-0.072 0.658,-0.036 0.655,0.089 -0.003,0.124 -0.055,0.243 -0.313,0.486 -0.125,0.119 -0.237,0.163 -0.316,0.244 -0.072,0.075 -0.132,0.112 -0.215,0.199 -0.16,0.169 -0.21,0.16 -0.077,0.246 0.132,0.086 0.664,0.077 0.96,0.097 0.296,0.019 1.17,-0.163 1.453,-0.075 0.282,0.089 0.434,0.319 0.44,0.386 0.005,0.065 -0.202,0.195 -0.388,0.359 -0.185,0.163 -0.246,0.238 -0.342,0.318 -0.098,0.08 -0.499,0.268 -0.767,0.404 -0.269,0.136 -0.656,0.227 -0.681,0.368 -0.025,0.141 0.028,0.171 -0.006,0.263 -0.033,0.091 -0.146,0.177 -0.146,0.177 0,0 0.083,-0.305 -0.205,-0.442 -0.288,-0.139 -0.603,-0.355 -0.722,-0.244 -0.119,0.111 -0.053,0.207 0.039,0.343 0.091,0.136 0.329,0.583 0.42,0.767 0.092,0.182 0.185,0.494 0.158,0.591 -0.028,0.097 -0.075,0.08 -0.075,0.08 0,0 -0.016,-0.011 -0.111,-0.227 -0.094,-0.214 -0.359,-0.647 -0.42,-0.702 -0.061,-0.055 -0.093,-0.039 -0.111,-0.061 -0.024,-0.031 -0.163,-0.191 -0.263,-0.274 -0.1,-0.083 -0.132,-0.21 -0.027,-0.279 0.105,-0.07 0.221,-0.086 0.204,-0.183 -0.016,-0.097 0.025,-0.163 -0.204,-0.177 -0.23,-0.014 -0.681,-0.075 -0.753,-0.094 -0.072,-0.019 -0.064,-0.086 0.116,-0.086 0.18,0 0.7,0.019 0.711,-0.083 0.011,-0.102 -0.025,-0.169 0.033,-0.252 0.059,-0.083 0.136,-0.122 0.028,-0.266 -0.108,-0.143 -0.152,-0.282 -0.24,-0.271 -0.089,0.012 -0.344,0.238 -0.773,0.401 -0.429,0.164 -1.074,0.335 -1.336,0.399 -0.263,0.064 -0.595,0.075 -0.551,0.186 0.044,0.11 0.41,0.24 0.501,0.24 0.091,0 -0.208,0.106 -0.46,-0.008 -0.251,-0.113 -0.522,-0.501 -0.046,-0.531 m 2.345,0.958 c 0.063,0.14 0.208,0.699 0.189,0.933 0,0 -0.216,-0.433 -0.364,-0.565 -0.149,-0.133 -0.353,-0.254 -0.203,-0.48 0.103,-0.153 0.315,-0.026 0.378,0.112 m -10.163,5.401 c 0.386,0.08 0.428,0.093 0.781,0.194 0.353,0.1 0.811,0.428 0.92,0.487 0.109,0.058 0.244,-0.042 0.345,-0.269 0.1,-0.227 0.146,-0.5 0.184,-0.882 0.038,-0.382 0.269,-0.819 0.412,-0.802 0.142,0.016 0.319,0.114 0.55,0.114 0.231,0 0.571,-0.009 0.613,0.041 0.042,0.051 -0.424,0.055 -0.827,0.391 -0.404,0.336 -0.711,1.063 -0.841,1.252 -0.129,0.188 -0.31,0.192 -0.168,0.339 0.144,0.147 0.84,0.773 1.063,0.786 0.223,0.013 1.15,-0.181 1.386,-0.109 0.235,0.072 0.248,0.159 -0.004,0.336 -0.252,0.176 -0.853,-0.03 -0.937,0.084 -0.084,0.114 0.105,0.327 0.286,0.47 0.181,0.143 0.718,0.597 0.714,0.807 -0.005,0.21 -0.147,0.73 -0.227,0.727 -0.079,-0.005 0.038,-0.105 -0.126,-0.399 -0.164,-0.294 -1.092,-1.454 -1.508,-1.454 -0.415,0 -0.816,0.399 -0.816,0.399 0,0 -0.252,0.182 -0.278,0.182 -0.027,0 0.082,-0.343 0.22,-0.508 0.138,-0.164 0.111,-0.103 0.117,-0.22 0.006,-0.118 0.162,-0.176 0.167,-0.252 0.006,-0.077 -0.126,-0.303 -0.534,-0.561 -0.408,-0.258 -1.11,-0.636 -1.586,-0.835 -0.476,-0.2 -1.35,-0.363 -1.425,-0.387 -0.075,-0.026 -0.019,-0.026 0.163,-0.036 0.183,-0.011 0.97,0.026 1.356,0.105 m -9.499,7.084 c 0,0 0.062,-0.031 0.065,-0.112 0.003,-0.082 -0.085,-0.193 -0.19,-0.095 -0.106,0.098 0.125,0.207 0.125,0.207 M 6.968,49.784 C 7.013,49.855 7.081,49.91 7.081,49.91 7.112,49.907 7.2,49.811 7.183,49.703 7.166,49.594 7.104,49.618 7.006,49.631 6.907,49.645 6.925,49.712 6.968,49.784 m -0.82,-1.553 c 0.214,0.024 0.218,0.618 0.258,0.823 0.04,0.206 0.237,0.388 0.313,0.476 0.074,0.087 0.217,0.059 0.186,-0.068 C 6.873,49.335 6.837,49.205 6.722,49.09 6.608,48.976 6.62,48.872 6.663,48.837 c 0.044,-0.036 0.21,-0.206 0.21,-0.313 0,-0.107 -0.258,-0.645 -0.19,-0.681 0.067,-0.035 0.23,-0.087 0.313,0.028 0.083,0.115 0.118,0.638 0.186,0.756 0.067,0.119 0.486,0.325 0.463,0.483 -0.024,0.158 -0.226,0.257 -0.329,0.424 -0.103,0.166 0.071,0.13 0.067,0.392 -0.004,0.261 -0.019,0.209 0.234,0.324 0.253,0.115 0.645,0.321 0.664,0.087 0.02,-0.233 -0.28,-0.732 -0.327,-0.95 C 7.906,49.17 7.858,48.564 7.74,48.295 7.621,48.025 7.581,47.855 7.458,47.879 c -0.066,0.013 -0.206,0.115 -0.229,0.115 -0.023,0 0.028,-0.115 0.075,-0.198 0.048,-0.084 0.171,-0.292 0.313,-0.277 0.221,0.023 0.186,0.23 0.217,0.443 0.032,0.214 0.127,0.713 0.246,1.014 0.119,0.3 0.107,0.332 0.146,0.439 0.04,0.107 0.274,0.499 0.285,0.657 0.012,0.158 0.111,0.175 0.138,0.273 C 8.678,50.444 8.551,50.757 8.191,50.65 7.831,50.543 7.866,50.626 7.272,50.25 6.679,49.875 6.647,49.51 6.544,49.656 6.441,49.803 6.564,50.1 6.564,50.1 6.564,50.1 6.52,50.044 6.457,49.926 6.394,49.807 6.101,49.367 6.034,49.15 5.967,48.932 5.935,48.208 6.148,48.231 M 4.964,47.708 c 0.131,-0.057 0.628,-0.225 0.964,-0.529 0.336,-0.304 0.833,-0.865 1.088,-1.001 0.255,-0.137 0.367,-0.224 0.678,-0.069 0.311,0.156 0.833,0.354 1.02,0.38 0.08,0 0.087,0.089 -0.137,0.081 -0.491,-0.019 -0.448,-0.016 -1.014,0.133 -0.565,0.149 -0.539,0.049 -0.896,0.326 -0.289,0.224 -0.322,0.293 -0.608,0.429 -0.287,0.137 -1.449,0.685 -1.599,0.747 0,0 -0.198,0.074 -0.18,-0.044 0.019,-0.118 0.554,-0.398 0.684,-0.453 m 0.517,0.227 C 5.625,47.929 5.62,48.138 5.583,48.291 5.546,48.444 5.324,48.633 5.241,48.656 5.158,48.68 5.282,48.439 5.282,48.439 5.407,48.222 5.223,47.944 5.481,47.935 m -0.365,1.143 c 0.157,-0.2 0.5,-0.26 0.472,-0.01 -0.028,0.25 -0.227,0.874 -0.592,1.074 0,0 -0.051,-0.065 0.037,-0.288 0.088,-0.222 -0.075,-0.577 0.083,-0.776 m 2.429,2.507 c 0.291,0.255 1.064,0.75 1.166,0.736 C 8.813,52.307 8.873,52.21 8.734,52.095 8.595,51.979 8.137,51.668 8.142,51.501 8.146,51.336 8.267,51.257 7.975,51.081 7.684,50.905 7.605,50.85 7.651,50.85 c 0.046,0 0.482,0.157 0.569,0.157 0.089,0 0.505,0.069 0.449,0.195 -0.055,0.124 -0.286,0.263 -0.277,0.369 0.009,0.107 0.962,0.556 1.004,0.834 C 9.438,52.683 9.215,52.779 9.127,52.77 9.04,52.761 8.859,52.534 8.716,52.493 8.572,52.45 7.799,52.183 7.549,52.085 7.3,51.988 6.884,51.734 6.578,51.595 6.273,51.456 6.157,51.367 6.157,51.367 c 0,0 0.5,-0.064 0.694,-0.096 0.194,-0.033 0.402,0.06 0.694,0.314 M -7.101,46.789 c 0.183,0.147 0.708,0.458 0.94,0.861 0.231,0.402 0.244,0.391 0.329,0.586 0.086,0.195 0.336,0.195 0.446,0 0.11,-0.195 0.261,-0.458 0.305,-0.617 0.042,-0.158 0.14,-0.274 0.402,-0.457 0.262,-0.183 0.433,-0.287 0.775,-0.201 0.342,0.085 0.458,0.189 0.854,0.17 0.397,-0.018 0.439,0.086 0.287,0.14 -0.153,0.056 -0.848,0.159 -1.556,0.617 -0.708,0.458 -1.104,0.665 -1.086,0.811 0.067,0.08 0.317,0.318 0.323,0.5 0.006,0.184 0.098,0.47 -0.518,0.677 -0.061,-0.03 -0.03,-0.244 -0.08,-0.359 -0.049,-0.116 -0.146,-0.513 -0.237,-0.458 -0.092,0.055 -0.415,0.397 -0.549,0.477 0,0 -0.373,0.182 -0.391,0.06 -0.018,-0.122 0.866,-0.628 0.83,-0.787 -0.037,-0.158 -0.128,-0.256 -0.22,-0.463 -0.091,-0.208 -0.073,-0.44 -0.189,-0.598 -0.116,-0.159 -0.359,-0.44 -0.549,-0.641 -0.189,-0.202 -0.622,-0.421 -0.604,-0.494 0.018,-0.073 0.305,0.03 0.488,0.176 m 0.257,3.135 c 0.217,0.144 0.262,0.152 0.511,0.235 0.249,0.083 0.425,0.224 0.494,0.355 0.068,0.131 0.19,0.573 0.414,0.573 0.225,0 0.311,-0.142 0.128,-0.359 -0.183,-0.217 -0.032,-0.186 0.09,-0.114 0.121,0.073 0.362,0.083 0.452,0.052 0.09,-0.031 0.246,0.076 0.232,0.187 -0.015,0.11 -0.142,0.438 -0.567,0.421 -0.425,-0.018 -0.947,-0.643 -1.226,-0.649 -0.28,-0.007 -0.134,0.224 -0.104,0.282 0,0 -0.014,0.091 -0.131,-0.106 -0.117,-0.197 -0.186,-0.349 -0.501,-0.622 -0.314,-0.273 -0.266,-0.401 -0.241,-0.494 0.023,-0.093 0.231,0.093 0.449,0.239 m -0.079,3 c 0.192,-0.134 0.811,-0.523 0.59,-0.845 -0.221,-0.321 -0.557,-0.662 -0.609,-0.676 -0.053,-0.014 0.125,-0.081 0.48,0.134 0.355,0.216 0.883,0.691 0.993,0.571 0.11,-0.12 -0.144,-0.302 -0.307,-0.393 -0.053,-0.063 0.038,-0.039 0.158,0.024 0.12,0.062 0.796,0.503 0.916,0.518 0.12,0.014 0.235,0.029 0.355,0.129 0.12,0.101 0.288,0.177 0.029,0.274 -0.259,0.095 -0.451,0.043 -0.566,-0.048 -0.115,-0.091 -0.12,-0.139 -0.326,-0.158 -0.207,-0.02 -0.226,-0.154 -0.379,-0.081 -0.154,0.071 -0.073,0.407 -0.221,0.484 -0.148,0.076 -1.045,0.202 -1.098,0.202 0,0 -0.207,-10e-4 -0.015,-0.135 m -9.45,-8.506 c 0.156,-0.021 0.205,-0.015 0.326,-0.113 0.12,-0.097 0.362,-0.284 0.454,-0.27 0.093,0.014 0.429,0.1 0.38,0.31 -0.049,0.211 -0.409,0.498 -0.734,0.429 -0.325,-0.068 -0.457,-0.118 -0.518,-0.207 0,0 -0.063,-0.129 0.092,-0.149 m -1.154,1.505 c -0.11,-0.245 -0.2,-0.436 -0.244,-0.583 -0.046,-0.147 -0.116,-0.216 -0.132,-0.31 0,0 -0.003,-0.163 -0.118,-0.168 -0.114,-0.003 -0.322,0.062 -0.371,-0.052 -0.049,-0.114 0.037,-0.168 0.085,-0.294 0.05,-0.126 0.523,-1.053 0.706,-0.967 0.184,0.086 0.314,0.47 0.233,0.612 -0.082,0.143 -0.294,0.334 -0.261,0.441 0.033,0.106 0.212,0.249 0.273,0.224 0.061,-0.025 -0.065,-0.323 0.074,-0.441 0.138,-0.117 0.366,-0.203 0.179,-0.477 -0.188,-0.273 -0.444,-0.844 -0.518,-1.052 -0.073,-0.208 -0.208,-0.335 -0.253,-0.424 -0.045,-0.09 -0.106,-0.213 0.143,-0.302 0.249,-0.09 0.224,-0.151 0.387,-0.033 0.163,0.119 0.143,0.265 0.183,0.473 0.041,0.209 0.021,0.245 0.098,0.473 0.078,0.229 0.107,0.246 0.135,0.396 0.029,0.151 0.029,0.384 0.081,0.384 0.054,0 0.242,-0.258 0.188,-0.351 -0.053,-0.094 -0.212,-0.22 -0.171,-0.278 0.041,-0.057 0.518,-0.346 0.612,-0.334 0.093,0.012 0.24,0.147 0.196,0.327 -0.045,0.179 -0.176,0.464 -0.522,0.741 -0.347,0.278 -0.453,0.396 -0.437,0.469 0.017,0.074 0.041,-0.016 0.16,0.176 0.118,0.192 0.346,0.425 0.35,0.554 0.004,0.131 -0.077,0.233 -0.134,0.233 -0.058,0 -0.282,-0.163 -0.323,-0.297 -0.04,-0.135 -0.106,-0.172 -0.151,-0.167 -0.045,0.003 -0.073,0.011 0,0.167 0.074,0.154 0.168,0.599 0.16,0.782 -0.009,0.184 0.138,0.425 0.15,0.506 0.013,0.082 -0.052,0.176 -0.15,0.11 -0.099,-0.065 -0.498,-0.294 -0.608,-0.538 m -1.081,-0.355 c -0.156,-0.1 -0.3,-0.237 -0.366,-0.271 -0.066,-0.033 -0.177,-0.072 -0.172,-0.116 0,0 0,-0.199 0.255,-0.061 0.255,0.138 0.426,0.211 0.647,0.531 0.223,0.321 0.3,0.249 0.455,0.542 0.155,0.294 0.409,0.637 0.492,0.77 0.083,0.133 0.193,0.282 0.139,0.349 -0.056,0.066 -0.365,0.06 -0.416,-0.044 -0.05,-0.106 -0.143,-0.278 -0.238,-0.377 -0.094,-0.099 -0.044,-0.233 -0.182,-0.387 -0.139,-0.155 -0.46,-0.837 -0.614,-0.936 m -0.484,1.524 c 0.385,0.006 0.562,-0.116 0.452,-0.373 -0.11,-0.257 -0.152,-0.453 -0.122,-0.453 0.031,0 0.202,0.281 0.294,0.38 0.091,0.098 0.11,0.189 0.189,0.262 0.08,0.074 0.398,0.374 0.19,0.575 -0.208,0.202 -0.716,0.296 -0.949,0.104 -0.28,-0.233 -0.917,-0.355 -0.8,-0.421 0,0 0.36,-0.08 0.746,-0.074 m -4.551,-12.351 c 0.14,0.221 0.256,0.14 0.338,-0.017 0.082,-0.158 0.245,-0.689 0.245,-0.765 0,-0.075 0.251,0.03 0.193,0.391 -0.059,0.362 -0.228,0.665 -0.222,0.8 0.006,0.133 0.361,0.221 0.28,0.559 -0.082,0.339 -0.455,0.374 -0.578,0.28 -0.122,-0.093 -0.239,-0.332 -0.314,-0.402 -0.076,-0.07 -0.257,-0.111 -0.158,-0.292 0.099,-0.18 0.076,-0.536 -0.076,-0.712 -0.151,-0.174 -0.268,-0.174 -0.204,-0.209 0,0 0.257,-0.053 0.496,0.367 m -2.066,3.101 c 0.31,-0.188 0.171,-0.26 0.088,-0.393 -0.083,-0.133 -0.559,0.238 -0.525,0.365 0.033,0.127 0.437,0.028 0.437,0.028 m -0.898,-0.89 c 0.256,-0.228 0.772,-0.577 0.762,-0.743 -0.01,-0.166 -0.166,-0.52 -0.102,-0.627 0.063,-0.109 0.108,0.428 0.384,0.4 0.277,-0.027 0.537,-0.524 0.641,-0.76 0.104,-0.236 0.252,-0.549 0.293,-0.549 0.04,0 0.159,1.232 -0.261,1.664 -0.155,0.177 -0.233,0.235 -0.2,0.42 0.058,0.322 0.027,0.411 -0.038,0.869 -0.066,0.465 -0.122,0.73 -0.21,0.73 -0.089,0 -0.671,-0.504 -0.937,-0.423 -0.266,0.082 -0.219,0.49 -1.28,0.445 0,0 -0.244,0 -0.097,-0.205 0.146,-0.205 0.771,-1.035 1.045,-1.221 m -1.037,-3.748 c 0,0 -0.08,-0.257 -0.45,-0.473 -0.372,-0.216 -0.274,-0.212 -0.231,-0.209 0,0 0.704,-0.029 0.944,0.156 0.238,0.185 0.405,0.131 0.549,-0.095 0.144,-0.228 0.281,-0.491 0.287,-0.729 0.06,0.018 0.078,0.029 0.078,0.029 0,0 0.215,1.195 0.011,1.5 -0.203,0.305 -0.711,0.454 -1.188,-0.179 m -1.252,3.104 c 0.367,-0.35 0.55,-0.436 0.69,-0.664 0.143,-0.233 0.421,-0.427 0.909,-0.929 0.486,-0.501 0.677,-0.64 0.915,-0.919 0.258,-0.301 0.507,-0.294 0.545,-0.967 0.02,-0.337 -0.018,-0.763 -0.019,-1.136 0,-0.383 0.035,-0.71 -0.018,-0.815 -0.063,-0.126 -0.154,-0.199 -0.435,-0.17 -0.081,-0.111 0.052,-0.62 0.502,-0.561 0.45,0.06 0.723,0.192 0.708,0.429 -0.014,0.235 -0.295,0.508 -0.324,0.966 -0.03,0.458 -0.185,1.041 -0.236,1.196 -0.052,0.154 0.003,0.226 0.086,0.183 0.082,-0.041 0.06,-0.193 0.226,-0.171 0.166,0.023 0.379,0.014 0.46,0.13 0.08,0.117 0.086,0.358 -0.089,0.493 -0.276,0.215 -0.216,0.121 -0.545,0.332 -0.301,0.193 -0.542,0.241 -0.985,0.615 -0.443,0.373 -0.673,0.614 -0.811,0.808 -0.139,0.193 -0.519,0.679 -0.66,1.166 -0.14,0.487 -0.819,0.981 -1.225,0.989 -0.405,0.008 -0.597,-0.111 -0.819,-0.413 -0.177,-0.17 -0.427,-0.293 -0.412,-0.36 l 0.036,-0.048 c 0,0 0.717,0.445 1.501,-0.154 M 28.165,12.1 27.486,12.309 26.651,9.6 27.33,9.391 l 0.306,0.994 3.372,-1.041 0.223,0.722 -3.372,1.039 z M 28.861,7.17 C 28.365,7.473 27.814,7.297 27.21,6.648 27.17,6.609 27.147,6.584 27.141,6.572 26.835,6.195 26.55,6.1 26.286,6.283 c -0.285,0.18 -0.344,0.444 -0.178,0.793 0.193,0.334 0.478,0.401 0.855,0.197 l 0.379,0.657 c -0.735,0.379 -1.321,0.234 -1.759,-0.436 -0.439,-0.883 -0.292,-1.56 0.442,-2.029 0.49,-0.281 1.031,-0.125 1.621,0.471 0.027,0.015 0.063,0.048 0.11,0.097 0.325,0.352 0.613,0.453 0.865,0.309 C 28.918,6.154 28.954,5.85 28.728,5.426 28.496,5.084 28.168,5.037 27.745,5.281 L 27.346,4.588 c 0.8,-0.477 1.44,-0.299 1.918,0.529 0.492,0.914 0.358,1.6 -0.403,2.053 m -2.667,1.609 3.94,-1.564 0.295,0.742 -3.94,1.564 z m 4.527,4.838 -2.594,1.664 -0.14,-0.717 1.774,-1.076 -2.046,-0.306 -0.165,-0.844 3.033,0.578 1.349,-0.264 0.137,0.7 z m -15.317,-17.902 -0.68,-0.418 1.214,-1.971 c 0.275,-0.424 0.41,-0.744 0.404,-0.963 0.01,-0.244 -0.115,-0.447 -0.376,-0.607 -0.26,-0.16 -0.503,-0.184 -0.729,-0.072 -0.197,0.093 -0.424,0.359 -0.676,0.795 l -1.213,1.97 -0.68,-0.418 1.393,-2.263 c 0.576,-0.885 1.319,-1.063 2.23,-0.539 0.856,0.564 1.025,1.304 0.506,2.222 z m 2.056,1.545 1.949,-2.692 v -0.027 l -2.942,2 -0.826,-0.598 2.487,-3.433 0.518,0.375 -2.057,2.84 0.001,0.027 3.077,-2.127 0.797,0.576 -2.486,3.434 z m 7.263,2.109 -0.886,0.69 0.957,1.226 -0.559,0.438 -0.958,-1.227 -0.777,0.606 1.031,1.322 -0.56,0.437 -1.522,-1.951 3.343,-2.607 1.559,1.998 -0.56,0.435 z m -6.418,-1.541 2.796,-3.187 0.601,0.527 -2.797,3.187 z m 2.46,2.424 1.779,-2.945 -0.011,-0.012 -2.927,1.812 -0.513,-0.509 3.793,-2.209 0.513,0.507 -2.168,3.819 z m 4.883,3.352 -0.368,-0.545 -0.93,0.629 0.369,0.544 c 0.195,0.317 0.445,0.373 0.749,0.168 0.329,-0.222 0.389,-0.488 0.18,-0.796 m 1.771,0.369 c -0.521,0.32 -0.904,0.314 -1.147,-0.02 l -0.019,0.014 c 0.162,0.484 0.018,0.887 -0.43,1.205 -0.602,0.391 -1.144,0.244 -1.626,-0.442 l -0.883,-1.306 3.513,-2.373 0.447,0.66 -1.405,0.949 0.469,0.695 c 0.112,0.165 0.327,0.157 0.645,-0.027 0.337,-0.211 0.68,-0.387 1.028,-0.525 l 0.481,0.711 C 28.3,3.529 27.984,3.662 27.544,3.912 27.519,3.93 27.478,3.949 27.419,3.973 m -38.931,-11.399 -0.24,-1.863 -0.976,0.41 1.198,1.461 z m -2.977,-2.455 0.699,-0.293 0.603,0.717 1.344,-0.564 -0.089,-0.932 0.737,-0.309 0.445,4.41 -0.866,0.364 z m 20.035,-0.416 0.155,-0.693 0.627,0.14 0.195,-0.871 c -0.031,-0.023 -0.043,-0.025 -0.035,-0.008 -0.218,-0.113 -0.415,-0.187 -0.59,-0.226 -0.595,-0.117 -1.009,0.314 -1.24,1.295 -0.212,1.002 -0.024,1.576 0.565,1.724 0.43,0.096 0.696,-0.087 0.8,-0.548 l 0.732,0.162 c -0.189,0.898 -0.788,1.232 -1.799,1.008 -0.967,-0.311 -1.31,-1.147 -1.031,-2.51 0.321,-1.321 0.983,-1.908 1.987,-1.762 0.301,0.066 0.543,0.137 0.721,0.207 0.244,0.055 0.472,0.154 0.685,0.295 l -0.465,2.08 z m -32.329,20.215 -3.982,-1.455 0.274,-0.75 3.982,1.455 z m -4.043,1.012 1.075,0.324 0.45,-1.488 0.68,0.205 -0.451,1.49 0.943,0.285 0.486,-1.603 0.68,0.205 -0.717,2.369 -4.058,-1.229 0.734,-2.425 0.681,0.205 z m 16.064,-15.758 -1.466,-2.406 c -0.008,-0.014 -0.02,-0.034 -0.036,-0.061 -0.303,-0.422 -0.569,-0.564 -0.797,-0.426 -0.25,0.151 -0.239,0.45 0.03,0.893 l -0.681,0.416 c -0.459,-0.83 -0.349,-1.443 0.33,-1.838 0.709,-0.395 1.311,-0.199 1.807,0.59 l 1.477,2.428 z m 1.192,-0.629 -1.978,-3.748 0.706,-0.373 1.978,3.75 z m -10.902,6.768 c -1.071,-0.84 -1.316,-1.707 -0.736,-2.604 0.196,-0.262 0.367,-0.463 0.512,-0.603 0.158,-0.211 0.349,-0.389 0.574,-0.534 l 1.702,1.282 -0.849,1.127 -0.567,-0.426 0.407,-0.541 -0.714,-0.539 c -0.034,0.021 -0.042,0.031 -0.022,0.031 -0.2,0.162 -0.356,0.318 -0.47,0.471 -0.372,0.519 -0.159,1.088 0.638,1.703 0.825,0.607 1.436,0.658 1.833,0.158 0.28,-0.371 0.23,-0.699 -0.149,-0.984 l 0.476,-0.631 c 0.74,0.543 0.781,1.248 0.125,2.119 -0.715,0.797 -1.635,0.785 -2.76,-0.029 m -0.86,5.062 -3.716,-2.039 0.383,-0.701 3.717,2.041 z m 1.869,-2.98 -2.814,-1.768 -0.029,0.002 2.19,2.807 -0.544,0.865 -3.59,-2.254 0.341,-0.543 2.969,1.865 0.029,-0.004 -2.326,-2.931 0.525,-0.836 3.59,2.254 z m -4.631,2.142 2.59,1.168 -0.32,0.709 -2.57,-1.158 c -0.013,-0.006 -0.034,-0.016 -0.062,-0.027 -0.49,-0.178 -0.79,-0.145 -0.899,0.097 -0.121,0.266 0.057,0.508 0.53,0.721 l -0.328,0.726 C -30,7.346 -30.256,6.779 -29.919,6.07 c 0.361,-0.728 0.97,-0.906 1.825,-0.535 m 24.662,-14.217 -2.956,0.469 -0.111,-0.701 1.083,-0.174 -0.553,-3.484 0.788,-0.125 0.554,3.484 1.084,-0.17 z m 1.539,-3.83 c -0.626,0.014 -0.927,0.532 -0.906,1.555 0.022,1.039 0.345,1.553 0.97,1.539 0.612,-0.014 0.907,-0.539 0.886,-1.576 -0.022,-1.026 -0.339,-1.529 -0.95,-1.518 m 0.078,3.758 c -1.144,-0.006 -1.751,-0.734 -1.822,-2.185 -0.003,-1.405 0.574,-2.135 1.73,-2.19 1.132,0.006 1.732,0.711 1.801,2.117 -0.009,1.451 -0.579,2.203 -1.709,2.258 m 4.427,-0.066 0.106,-3.323 -0.016,-0.023 -1.338,3.307 -1.038,-0.036 0.136,-4.236 0.65,0.022 -0.112,3.504 0.017,0.023 1.379,-3.486 1.003,0.031 -0.136,4.238 z m -10.304,-1.299 c -0.292,-0.981 -0.732,-1.383 -1.318,-1.209 -0.6,0.18 -0.753,0.76 -0.46,1.74 0.297,0.996 0.745,1.404 1.344,1.225 0.586,-0.174 0.731,-0.76 0.434,-1.756 m -0.244,2.392 c -1.106,0.299 -1.884,-0.242 -2.337,-1.621 -0.377,-1.355 -0.015,-2.213 1.085,-2.572 1.092,-0.295 1.859,0.227 2.299,1.561 0.377,1.402 0.028,2.279 -1.047,2.632 m -22.552,22.313 0.114,-0.607 c 0.111,-0.426 -0.037,-0.672 -0.445,-0.735 -0.388,-0.086 -0.607,0.09 -0.658,0.526 l -0.114,0.609 z m 1.667,0.312 0.114,-0.607 c 0.064,-0.34 -0.069,-0.541 -0.399,-0.603 -0.316,-0.059 -0.505,0.082 -0.569,0.419 l -0.115,0.61 z m -2.001,-2.507 c 0.569,0.121 0.879,0.457 0.93,1.007 l 0.023,0.004 c 0.244,-0.386 0.584,-0.547 1.022,-0.478 0.714,0.174 0.992,0.681 0.835,1.517 l -0.258,1.373 -4.167,-0.783 0.258,-1.373 c 0.222,-0.931 0.674,-1.355 1.357,-1.267 M 0.014,-16.152 c -19.701,0 -35.729,16.027 -35.729,35.728 0,19.701 16.028,35.729 35.729,35.729 19.7,0 35.728,-16.028 35.728,-35.729 0,-19.701 -16.028,-35.728 -35.728,-35.728 m 0,73.228 c -20.678,0 -37.5,-16.823 -37.5,-37.5 0,-20.678 16.822,-37.5 37.5,-37.5 20.677,0 37.499,16.822 37.499,37.5 0,20.677 -16.822,37.5 -37.499,37.5" /></g></g></g></g></svg>