<?xml version="1.0" encoding="UTF-8" standalone="no"?>
<svg
   xmlns:dc="http://purl.org/dc/elements/1.1/"
   xmlns:cc="http://creativecommons.org/ns#"
   xmlns:rdf="http://www.w3.org/1999/02/22-rdf-syntax-ns#"
   xmlns:svg="http://www.w3.org/2000/svg"
   xmlns="http://www.w3.org/2000/svg"
   viewBox="0 0 337.33334 328"
   height="328"
   width="337.33334"
   xml:space="preserve"
   id="svg2"
   version="1.1"><metadata
     id="metadata8"><rdf:RDF><cc:Work
         rdf:about=""><dc:format>image/svg+xml</dc:format><dc:type
           rdf:resource="http://purl.org/dc/dcmitype/StillImage" /></cc:Work></rdf:RDF></metadata><defs
     id="defs6"><clipPath
       id="clipPath18"
       clipPathUnits="userSpaceOnUse"><path
         id="path16"
         d="M 0,0 H 253 V 246 H 0 Z" /></clipPath></defs><g
     transform="matrix(1.3333333,0,0,-1.3333333,0,328)"
     id="g10"><g
       id="g12"><g
         clip-path="url(#clipPath18)"
         id="g14"><g
           transform="translate(29.1216,187.2808)"
           id="g20"><path
             id="path22"
             style="fill:#1a5aa9;fill-opacity:1;fill-rule:nonzero;stroke:none"
             d="m 0,0 c -11.376,-17.684 -17.986,-38.722 -17.986,-61.315 0,-22.594 6.61,-43.632 17.986,-61.316 v 11.794 c -7.704,14.817 -12.067,31.665 -12.067,49.522 0,17.855 4.363,34.704 12.067,49.521 z m 4.363,-118.44 v -10.484 c -1.512,2.045 -2.967,4.148 -4.363,6.293 v 11.794 c 1.354,-2.593 2.822,-5.127 4.363,-7.603 m 0,124.733 V -4.19 C 2.822,-6.668 1.354,-9.202 0,-11.794 V 0 c 1.396,2.146 2.851,4.248 4.363,6.293 m 1.512,-127.066 v -10.123 c -0.504,0.647 -1.008,1.31 -1.512,1.972 v 10.484 c 0.504,-0.778 1.008,-1.57 1.512,-2.333 m 0,129.052 V -1.857 C 5.371,-2.621 4.867,-3.398 4.363,-4.19 V 6.293 Z m 5.155,-136.151 v -9.188 c -1.785,1.988 -3.499,4.046 -5.155,6.164 v 10.123 c 1.627,-2.449 3.341,-4.81 5.155,-7.099 m 0,142.301 V 5.241 C 9.216,2.952 7.502,0.59 5.875,-1.857 V 8.279 c 1.656,2.103 3.37,4.162 5.155,6.15 m 2.405,-145.24 v -8.855 c -0.806,0.864 -1.613,1.728 -2.405,2.606 v 9.188 c 0.778,-0.994 1.584,-1.974 2.405,-2.939 m 0,147.846 V 8.179 C 12.614,7.214 11.808,6.235 11.03,5.241 v 9.188 c 0.792,0.878 1.599,1.757 2.405,2.606 m 3.183,-151.416 v -8.468 c -1.08,1.037 -2.146,2.103 -3.183,3.183 v 8.855 c 1.037,-1.223 2.088,-2.404 3.183,-3.57 m 0,154.599 V 11.75 C 15.523,10.584 14.472,9.403 13.435,8.179 v 8.856 c 1.037,1.08 2.103,2.146 3.183,3.183 m 1.194,-155.881 v -8.323 c -0.402,0.375 -0.806,0.763 -1.194,1.137 v 8.468 c 0.388,-0.432 0.792,-0.864 1.194,-1.282 m 0,157.017 V 13.032 C 17.41,12.614 17.006,12.183 16.618,11.75 v 8.468 c 0.388,0.374 0.792,0.762 1.194,1.136 m 0.159,-157.175 v -8.309 c -0.057,0.043 -0.115,0.101 -0.159,0.144 v 8.323 c 0.044,-0.058 0.102,-0.101 0.159,-0.158 m 0,157.32 V 13.19 c -0.057,-0.044 -0.115,-0.101 -0.159,-0.158 v 8.322 c 0.044,0.044 0.102,0.102 0.159,0.145 m 0.144,-157.465 v -8.294 c -0.057,0.043 -0.101,0.086 -0.144,0.13 v 8.309 c 0.043,-0.058 0.087,-0.101 0.144,-0.145 m 0,157.595 V 13.334 C 18.058,13.291 18.014,13.248 17.971,13.19 v 8.309 c 0.043,0.043 0.087,0.086 0.144,0.13 m 0.965,-158.603 v -8.208 c -0.317,0.303 -0.648,0.62 -0.965,0.922 v 8.294 c 0.317,-0.345 0.648,-0.677 0.965,-1.008 m 0,159.524 V 14.342 C 18.763,14.011 18.432,13.68 18.115,13.334 v 8.295 c 0.317,0.302 0.648,0.619 0.965,0.921 m 0.432,-159.955 v -8.151 c -0.144,0.13 -0.288,0.245 -0.432,0.374 v 8.208 c 0.144,-0.143 0.288,-0.288 0.432,-0.431 m 0,160.33 V 14.774 L 19.08,14.342 v 8.208 c 0.144,0.13 0.288,0.245 0.432,0.375 m 5.285,-165.255 v -7.704 c -1.815,1.44 -3.571,2.937 -5.285,4.478 v 8.151 c 1.699,-1.699 3.47,-3.341 5.285,-4.925 m 0,169.733 v -7.704 c -1.815,-1.584 -3.586,-3.225 -5.285,-4.925 v 8.151 c 1.714,1.541 3.47,3.038 5.285,4.478 M 38.578,-152.54 v -6.912 c -4.839,2.808 -9.447,5.962 -13.781,9.418 v 7.704 c 4.306,-3.744 8.913,-7.157 13.781,-10.21 m 0,189.36 V 29.908 C 33.71,26.87 29.103,23.443 24.797,19.699 v 7.704 c 4.334,3.456 8.942,6.61 13.781,9.417 m 1.828,-190.483 v -6.825 c -0.604,0.345 -1.224,0.69 -1.828,1.036 v 6.912 c 0.604,-0.374 1.224,-0.749 1.828,-1.123 m 0,191.52 v -6.825 c -0.604,-0.375 -1.224,-0.749 -1.828,-1.124 v 6.912 c 0.604,0.346 1.224,0.692 1.828,1.037 m 6.567,-195.12 v -6.595 c -2.232,1.051 -4.421,2.174 -6.567,3.37 v 6.825 c 2.146,-1.268 4.335,-2.477 6.567,-3.6 m 0,198.49 v -6.595 c -2.232,-1.123 -4.421,-2.333 -6.567,-3.6 v 6.825 c 2.146,1.196 4.335,2.319 6.567,3.37 m 0.82,-198.908 v -6.566 c -0.273,0.13 -0.546,0.259 -0.82,0.389 v 6.595 c 0.274,-0.144 0.547,-0.273 0.82,-0.418 m 0,199.297 V 35.05 c -0.273,-0.145 -0.546,-0.275 -0.82,-0.418 v 6.595 c 0.274,0.129 0.547,0.259 0.82,0.389 m 12.168,-204.409 v -6.249 c -4.161,1.368 -8.222,2.966 -12.168,4.795 v 6.566 c 3.932,-1.944 7.993,-3.657 12.168,-5.112 m 0,209.204 v -6.25 C 55.786,38.707 51.725,36.993 47.793,35.05 v 6.566 c 3.946,1.828 8.007,3.427 12.168,4.795 M 72.634,-166.35 v -6.062 c -4.321,0.879 -8.54,2.016 -12.673,3.37 v 6.249 c 4.119,-1.439 8.338,-2.62 12.673,-3.557 m 0,216.13 V 43.718 C 68.299,42.797 64.08,41.602 59.961,40.161 v 6.25 c 4.133,1.354 8.352,2.491 12.673,3.369 m 6.336,-217.31 v -5.976 c -2.132,0.302 -4.248,0.662 -6.336,1.094 v 6.062 c 2.088,-0.461 4.204,-0.849 6.336,-1.18 m 0,218.405 v -5.976 c -2.132,-0.332 -4.248,-0.72 -6.336,-1.181 v 6.062 c 2.088,0.433 4.204,0.792 6.336,1.095 m 6.278,-219.168 v -5.947 c -2.117,0.186 -4.205,0.431 -6.278,0.734 v 5.976 c 2.073,-0.317 4.161,-0.576 6.278,-0.763 m 0,219.902 V 45.662 C 83.131,45.475 81.043,45.216 78.97,44.899 v 5.976 c 2.073,0.303 4.161,0.547 6.278,0.734 m 6.264,-220.305 v -5.934 c -2.102,0.072 -4.19,0.202 -6.264,0.39 v 5.947 c 2.074,-0.202 4.162,-0.332 6.264,-0.403 m 0,220.694 v -5.933 c -2.102,-0.072 -4.19,-0.201 -6.264,-0.403 v 5.947 c 2.074,0.188 4.162,0.317 6.264,0.389 m 8.007,-220.694 v -5.919 c -1.369,-0.058 -2.736,-0.086 -4.119,-0.086 -1.296,0 -2.592,0.028 -3.888,0.071 v 5.934 c 1.296,-0.058 2.592,-0.087 3.888,-0.087 1.383,0 2.75,0.043 4.119,0.087 m 0,220.679 v -5.918 c -1.369,0.043 -2.736,0.086 -4.119,0.086 -1.296,0 -2.592,-0.028 -3.888,-0.086 v 5.933 c 1.296,0.043 2.592,0.072 3.888,0.072 1.383,0 2.75,-0.029 4.119,-0.087 m 7.819,-220.104 v -5.961 c -2.578,-0.26 -5.199,-0.446 -7.819,-0.533 v 5.919 c 2.635,0.1 5.241,0.301 7.819,0.575 m 0,219.572 v -5.962 c -2.578,0.288 -5.184,0.476 -7.819,0.576 v 5.918 c 2.62,-0.086 5.241,-0.273 7.819,-0.532 m 4.838,-218.924 v -5.99 c -1.598,-0.245 -3.211,-0.446 -4.838,-0.619 v 5.961 c 1.627,0.187 3.24,0.403 4.838,0.648 m 0,218.305 v -5.99 c -1.598,0.244 -3.211,0.46 -4.838,0.647 v 5.962 c 1.627,-0.173 3.24,-0.375 4.838,-0.619 m 4.551,-217.483 v -6.035 c -1.498,-0.288 -3.024,-0.546 -4.551,-0.777 v 5.99 c 1.527,0.245 3.053,0.504 4.551,0.822 m 0,216.706 v -6.02 c -1.498,0.303 -3.024,0.562 -4.551,0.807 v 5.99 c 1.527,-0.23 3.053,-0.49 4.551,-0.777 m 0.288,-216.663 v -6.02 c -0.087,-0.028 -0.188,-0.043 -0.288,-0.058 v 6.035 c 0.1,0.013 0.201,0.028 0.288,0.043 m 0,216.605 v -6.019 c -0.087,0.014 -0.188,0.028 -0.288,0.057 v 6.02 c 0.1,-0.015 0.201,-0.03 0.288,-0.058 m 6.839,-214.964 v -6.135 c -2.26,-0.576 -4.536,-1.094 -6.839,-1.526 v 6.02 c 2.303,0.474 4.579,1.022 6.839,1.641 m 0,213.438 v -6.135 c -2.26,0.619 -4.536,1.166 -6.839,1.642 v 6.019 c 2.303,-0.433 4.579,-0.951 6.839,-1.526 m 22.062,-204.654 v -6.668 c -6.985,-3.469 -14.357,-6.263 -22.062,-8.251 v 6.135 c 7.733,2.116 15.121,5.083 22.062,8.784 m 0,196.402 v -6.667 c -6.941,3.701 -14.329,6.667 -22.062,8.784 v 6.135 c 7.705,-1.988 15.077,-4.782 22.062,-8.252 m 3.916,-194.198 v -6.812 c -1.281,-0.72 -2.592,-1.396 -3.916,-2.06 v 6.668 c 1.324,0.705 2.635,1.44 3.916,2.204 m 0,192.153 v -6.825 c -1.281,0.762 -2.592,1.497 -3.916,2.203 v 6.667 c 1.324,-0.662 2.635,-1.339 3.916,-2.045 m 7.748,-187.143 v -7.171 c -2.506,-1.641 -5.098,-3.211 -7.748,-4.651 v 6.812 c 2.664,1.554 5.256,3.225 7.748,5.01 m 0,182.478 v -7.172 c -2.492,1.786 -5.084,3.456 -7.748,5.012 v 6.825 c 2.65,-1.454 5.242,-3.024 7.748,-4.665 m 8.582,-175.696 v -7.717 c -2.75,-2.203 -5.616,-4.291 -8.582,-6.236 v 7.171 c 2.98,2.117 5.846,4.378 8.582,6.782 m 0,169.46 v -7.718 c -2.736,2.405 -5.602,4.666 -8.582,6.782 v 7.172 c 2.966,-1.945 5.832,-4.032 8.582,-6.236 m 2.203,-167.486 v -7.891 c -0.735,-0.605 -1.454,-1.21 -2.203,-1.8 v 7.717 c 0.749,0.649 1.468,1.311 2.203,1.974 m 0,165.687 v -7.892 c -0.735,0.662 -1.454,1.325 -2.203,1.973 v 7.718 c 0.749,-0.59 1.468,-1.195 2.203,-1.799 m 4.061,-161.713 v -8.28 c -1.325,-1.224 -2.678,-2.419 -4.061,-3.585 v 7.891 c 1.383,1.296 2.736,2.62 4.061,3.974 m 0,158.127 v -8.281 c -1.325,1.369 -2.678,2.679 -4.061,3.975 v 7.892 c 1.383,-1.167 2.736,-2.363 4.061,-3.586 m 1.224,-156.86 v -8.41 c -0.403,-0.374 -0.821,-0.748 -1.224,-1.137 v 8.28 c 0.417,0.418 0.821,0.836 1.224,1.267 m 0,155.722 v -8.409 c -0.403,0.431 -0.807,0.849 -1.224,1.266 v 8.281 c 0.403,-0.389 0.821,-0.763 1.224,-1.138 m 2.909,-152.496 v -8.741 c -0.951,-0.979 -1.916,-1.944 -2.909,-2.895 v 8.41 c 0.993,1.051 1.958,2.131 2.909,3.226 m 0,149.601 V 9.129 c -0.951,1.095 -1.916,2.16 -2.909,3.212 v 8.409 c 0.993,-0.95 1.958,-1.915 2.909,-2.895 m 6.091,-141.912 v -9.676 c -1.944,-2.333 -3.975,-4.579 -6.091,-6.754 v 8.741 c 2.146,2.462 4.176,5.025 6.091,7.689 m 0,135.16 V 1.426 c -1.915,2.663 -3.945,5.226 -6.091,7.703 v 8.726 c 2.116,-2.173 4.147,-4.42 6.091,-6.752 m 0,-144.836 v 9.676 c 12.715,17.655 20.218,39.313 20.218,62.742 0,23.428 -7.503,45.086 -20.218,62.741 v 9.677 c 16.315,-19.642 26.136,-44.886 26.136,-72.418 0,-27.534 -9.821,-52.777 -26.136,-72.418" /></g><g
           transform="translate(222.3906,110.0054)"
           id="g24"><path
             id="path26"
             style="fill:#1a5aa9;fill-opacity:1;fill-rule:nonzero;stroke:none"
             d="m 0,0 -4.766,0.728 -7.045,-2.192 0.316,2.064 4.793,1.367 -4.173,2.694 0.311,2.028 6.082,-4.21 4.75,-0.725 z m -2.379,-10.804 -9.186,2.483 -0.683,-2.527 -1.871,0.506 1.828,6.766 1.871,-0.506 -0.682,-2.521 9.187,-2.481 z m -2.389,-7.394 -10.786,3.85 0.599,1.678 10.787,-3.851 z m -7.71,-8.617 0.518,1.668 c 0.731,-0.218 1.323,-0.255 1.777,-0.112 0.454,0.144 0.794,0.462 1.018,0.955 0.237,0.523 0.272,0.981 0.106,1.376 -0.167,0.395 -0.442,0.68 -0.826,0.855 -0.246,0.112 -0.482,0.151 -0.705,0.119 -0.224,-0.033 -0.463,-0.159 -0.717,-0.378 -0.172,-0.151 -0.52,-0.516 -1.045,-1.092 -0.675,-0.741 -1.295,-1.195 -1.863,-1.36 -0.797,-0.233 -1.609,-0.161 -2.433,0.214 -0.532,0.241 -0.976,0.583 -1.332,1.025 -0.358,0.441 -0.558,0.936 -0.602,1.483 -0.043,0.545 0.075,1.126 0.355,1.744 0.458,1.007 1.09,1.635 1.895,1.884 0.806,0.249 1.693,0.168 2.662,-0.241 l -0.644,-1.663 c -0.567,0.174 -1.02,0.2 -1.358,0.078 -0.339,-0.121 -0.611,-0.41 -0.819,-0.866 -0.214,-0.472 -0.256,-0.897 -0.126,-1.278 0.084,-0.244 0.26,-0.429 0.53,-0.551 0.247,-0.112 0.494,-0.128 0.743,-0.047 0.316,0.103 0.774,0.494 1.373,1.173 0.601,0.679 1.116,1.148 1.546,1.408 0.431,0.261 0.918,0.397 1.463,0.406 0.546,0.01 1.148,-0.134 1.807,-0.434 0.596,-0.272 1.098,-0.654 1.505,-1.147 0.404,-0.492 0.629,-1.03 0.67,-1.612 0.041,-0.583 -0.097,-1.223 -0.415,-1.92 -0.46,-1.016 -1.119,-1.656 -1.976,-1.924 -0.857,-0.266 -1.893,-0.188 -3.107,0.237 m -7.29,-6.905 0.686,1.125 c 0.445,0.729 0.684,1.208 0.715,1.439 0.03,0.23 -0.021,0.456 -0.154,0.678 -0.132,0.222 -0.346,0.423 -0.639,0.602 -0.328,0.201 -0.636,0.296 -0.92,0.284 -0.285,-0.012 -0.529,-0.125 -0.733,-0.339 -0.098,-0.109 -0.335,-0.471 -0.71,-1.088 l -0.725,-1.186 z m 4.712,-4.964 -9.774,5.969 1.953,3.198 c 0.491,0.805 0.936,1.336 1.334,1.593 0.398,0.257 0.889,0.359 1.472,0.304 0.583,-0.056 1.163,-0.26 1.741,-0.612 0.732,-0.449 1.237,-0.985 1.512,-1.608 0.275,-0.624 0.273,-1.305 -0.005,-2.041 0.449,0.177 0.887,0.281 1.317,0.314 0.428,0.031 1.133,-0.003 2.115,-0.105 l 2.467,-0.246 -1.109,-1.817 -2.798,0.201 c -0.998,0.073 -1.64,0.098 -1.926,0.076 -0.286,-0.023 -0.514,-0.093 -0.686,-0.209 -0.171,-0.115 -0.364,-0.349 -0.577,-0.697 l -0.188,-0.308 4.081,-2.492 z m -7.024,-9.359 -8.982,7.106 4.058,5.128 1.52,-1.202 -2.953,-3.731 1.992,-1.575 2.746,3.471 1.513,-1.197 -2.747,-3.473 2.445,-1.933 3.056,3.863 1.514,-1.197 z m -6.363,-6.785 -10.328,5.87 1.366,1.365 7.572,-4.416 -4.467,7.522 1.336,1.335 5.864,-10.332 z m -6.017,-5.436 -7.405,8.738 1.358,1.151 7.405,-8.738 z m -9.101,-6.81 -6.612,9.35 1.414,1.001 7.363,-4.161 -4.416,6.245 1.351,0.955 6.612,-9.351 -1.458,-1.031 -7.215,4.045 4.312,-6.098 z m -16.291,3.91 1.572,0.837 2.915,-5.475 c 0.463,-0.869 0.782,-1.422 0.958,-1.658 0.288,-0.378 0.625,-0.625 1.011,-0.741 0.387,-0.115 0.799,-0.057 1.238,0.177 0.447,0.238 0.72,0.535 0.82,0.892 0.101,0.358 0.082,0.721 -0.056,1.09 -0.137,0.37 -0.419,0.954 -0.845,1.754 l -2.978,5.593 1.572,0.837 2.828,-5.31 c 0.646,-1.214 1.06,-2.094 1.242,-2.641 0.181,-0.545 0.25,-1.051 0.205,-1.518 -0.045,-0.467 -0.203,-0.903 -0.477,-1.312 -0.273,-0.408 -0.718,-0.776 -1.334,-1.104 -0.743,-0.396 -1.366,-0.585 -1.869,-0.567 -0.503,0.019 -0.96,0.147 -1.373,0.385 -0.413,0.237 -0.759,0.532 -1.037,0.886 -0.412,0.524 -0.918,1.351 -1.52,2.483 z m -18.119,-13.718 -0.399,1.888 3.755,0.793 0.943,-4.464 c -0.268,-0.536 -0.712,-1.052 -1.33,-1.547 -0.619,-0.495 -1.284,-0.817 -1.994,-0.968 -0.902,-0.19 -1.741,-0.111 -2.516,0.24 -0.775,0.349 -1.427,0.946 -1.958,1.79 -0.531,0.843 -0.909,1.802 -1.136,2.878 -0.247,1.167 -0.278,2.244 -0.093,3.23 0.185,0.986 0.59,1.799 1.214,2.437 0.474,0.488 1.124,0.82 1.948,0.994 1.071,0.226 1.969,0.111 2.695,-0.345 0.725,-0.457 1.283,-1.182 1.673,-2.174 l -1.642,-0.786 c -0.237,0.524 -0.558,0.91 -0.96,1.158 -0.403,0.248 -0.855,0.319 -1.358,0.213 -0.761,-0.161 -1.3,-0.602 -1.617,-1.324 -0.317,-0.722 -0.345,-1.699 -0.085,-2.933 0.281,-1.33 0.719,-2.279 1.315,-2.847 0.596,-0.57 1.262,-0.776 2,-0.621 0.365,0.078 0.711,0.248 1.038,0.511 0.328,0.264 0.596,0.556 0.802,0.876 l -0.3,1.422 z m -15.697,-6.279 -0.883,11.419 1.728,0.134 4.188,-7.348 -0.59,7.626 1.65,0.127 0.883,-11.419 -1.782,-0.138 -4.12,7.173 0.575,-7.446 z m -11.526,5.963 c -0.067,-1.295 0.112,-2.288 0.538,-2.981 0.426,-0.692 0.993,-1.056 1.702,-1.093 0.709,-0.038 1.308,0.264 1.797,0.904 0.489,0.639 0.768,1.622 0.837,2.949 0.068,1.311 -0.103,2.3 -0.512,2.968 -0.409,0.668 -0.98,1.02 -1.713,1.058 -0.733,0.039 -1.34,-0.257 -1.823,-0.886 -0.482,-0.63 -0.757,-1.603 -0.826,-2.919 m -1.836,0.017 c 0.06,1.165 0.245,2.136 0.554,2.912 0.231,0.573 0.531,1.081 0.902,1.527 0.37,0.444 0.767,0.768 1.192,0.971 0.564,0.272 1.205,0.39 1.922,0.353 1.297,-0.067 2.308,-0.644 3.033,-1.729 0.725,-1.086 1.039,-2.56 0.942,-4.422 -0.096,-1.847 -0.557,-3.272 -1.384,-4.275 -0.827,-1.002 -1.887,-1.469 -3.181,-1.403 -1.31,0.068 -2.324,0.641 -3.043,1.719 -0.72,1.078 -1.032,2.527 -0.937,4.347 m -8.546,-4.428 1.607,9.379 -2.579,0.441 0.327,1.91 6.907,-1.184 -0.327,-1.91 -2.573,0.442 -1.607,-9.379 z m -11.525,8.793 c -0.373,-1.243 -0.435,-2.25 -0.186,-3.024 0.249,-0.773 0.714,-1.263 1.394,-1.467 0.68,-0.204 1.333,-0.053 1.96,0.452 0.627,0.504 1.132,1.393 1.514,2.665 0.377,1.257 0.447,2.258 0.209,3.004 -0.239,0.747 -0.71,1.225 -1.413,1.436 -0.703,0.212 -1.363,0.068 -1.981,-0.428 -0.619,-0.497 -1.118,-1.377 -1.497,-2.638 m -1.779,0.453 c 0.336,1.117 0.746,2.016 1.231,2.697 0.36,0.501 0.773,0.924 1.238,1.268 0.466,0.344 0.929,0.564 1.389,0.66 0.613,0.131 1.263,0.093 1.951,-0.114 1.244,-0.374 2.089,-1.173 2.535,-2.401 0.446,-1.226 0.4,-2.733 -0.136,-4.519 -0.532,-1.771 -1.319,-3.045 -2.361,-3.823 -1.042,-0.777 -2.183,-0.979 -3.423,-0.606 -1.256,0.377 -2.106,1.175 -2.547,2.392 -0.443,1.218 -0.402,2.7 0.123,4.446 m -6.845,1.583 0.641,4.374 -2.834,-3.384 z m 1.125,-5.479 -1.766,0.797 0.368,2.689 -3.213,1.449 -1.733,-2.072 -1.722,0.777 7.841,9.027 1.717,-0.774 z m -12.546,6.166 5.611,9.985 1.553,-0.872 -5.612,-9.985 z m 1.416,12.56 1.479,-0.981 -4.007,-6.042 c -0.524,-0.79 -0.98,-1.362 -1.369,-1.716 -0.513,-0.461 -1.069,-0.734 -1.67,-0.82 -0.6,-0.086 -1.21,0.076 -1.828,0.486 -0.726,0.481 -1.109,1.115 -1.15,1.902 -0.041,0.786 0.274,1.69 0.947,2.713 l 1.537,-0.719 c -0.346,-0.559 -0.54,-0.985 -0.583,-1.282 -0.067,-0.449 0.063,-0.782 0.391,-1 0.331,-0.219 0.646,-0.252 0.946,-0.098 0.3,0.154 0.705,0.618 1.218,1.391 z m -23.315,10.668 1.45,1.274 2.534,-2.882 -3.426,-3.012 c -0.599,-0.03 -1.265,0.103 -2,0.399 -0.736,0.296 -1.343,0.717 -1.823,1.262 -0.609,0.692 -0.951,1.462 -1.027,2.309 -0.075,0.847 0.124,1.708 0.599,2.585 0.474,0.876 1.124,1.677 1.949,2.403 0.895,0.788 1.818,1.343 2.769,1.667 0.951,0.322 1.856,0.369 2.718,0.138 0.659,-0.174 1.267,-0.576 1.823,-1.209 0.723,-0.822 1.063,-1.661 1.022,-2.517 -0.041,-0.857 -0.398,-1.698 -1.072,-2.526 l -1.491,1.045 c 0.341,0.465 0.52,0.934 0.538,1.407 0.018,0.471 -0.143,0.901 -0.481,1.286 -0.515,0.585 -1.163,0.838 -1.948,0.759 -0.784,-0.078 -1.65,-0.534 -2.596,-1.366 -1.02,-0.897 -1.633,-1.745 -1.836,-2.544 -0.203,-0.798 -0.055,-1.48 0.443,-2.047 0.246,-0.279 0.564,-0.498 0.955,-0.653 0.389,-0.156 0.775,-0.246 1.156,-0.268 l 1.091,0.959 z m -13.162,10.56 9.51,6.383 0.965,-1.438 -4.339,-7.26 6.35,4.263 0.922,-1.374 -9.51,-6.383 -0.995,1.483 4.22,7.114 -6.201,-4.162 z m -2.98,5.261 10.034,5.523 0.858,-1.559 -10.033,-5.524 z m 7.828,9.924 0.739,-1.613 -6.592,-3.02 c -0.861,-0.394 -1.552,-0.64 -2.068,-0.735 -0.679,-0.121 -1.295,-0.06 -1.851,0.184 -0.556,0.243 -0.988,0.703 -1.297,1.377 -0.363,0.792 -0.354,1.532 0.026,2.223 0.38,0.689 1.126,1.292 2.237,1.805 l 0.926,-1.422 c -0.588,-0.291 -0.979,-0.552 -1.172,-0.782 -0.294,-0.346 -0.359,-0.698 -0.195,-1.055 0.166,-0.361 0.416,-0.555 0.752,-0.582 0.335,-0.027 0.925,0.153 1.768,0.539 z m -13.778,3.378 10.737,3.987 0.62,-1.669 -10.737,-3.988 z m -3.111,10.144 11.033,3.074 1.755,-6.299 -1.866,-0.521 -1.278,4.584 -2.445,-0.681 1.188,-4.265 -1.859,-0.518 -1.188,4.265 -3.003,-0.836 1.322,-4.746 -1.859,-0.519 z m 7.521,11.848 -2.618,-0.396 0.174,-1.153 c 0.104,-0.686 0.181,-1.11 0.232,-1.273 0.091,-0.294 0.262,-0.511 0.512,-0.65 0.25,-0.138 0.558,-0.18 0.924,-0.126 0.35,0.053 0.623,0.171 0.819,0.353 0.197,0.182 0.296,0.423 0.298,0.723 0,0.178 -0.063,0.682 -0.188,1.51 z m -4.503,-0.68 -3.029,-0.456 0.246,-1.63 c 0.096,-0.634 0.18,-1.033 0.252,-1.197 0.101,-0.252 0.284,-0.442 0.548,-0.571 0.265,-0.128 0.598,-0.162 0.999,-0.102 0.34,0.051 0.619,0.158 0.837,0.321 0.218,0.163 0.362,0.372 0.435,0.628 0.072,0.256 0.047,0.785 -0.074,1.586 z m 6.124,2.725 0.525,-3.486 c 0.103,-0.69 0.144,-1.21 0.12,-1.561 -0.023,-0.35 -0.133,-0.677 -0.33,-0.98 -0.196,-0.303 -0.479,-0.575 -0.845,-0.812 -0.367,-0.238 -0.796,-0.393 -1.285,-0.468 -0.53,-0.08 -1.033,-0.043 -1.51,0.111 -0.475,0.153 -0.853,0.401 -1.131,0.745 -0.121,-0.562 -0.402,-1.023 -0.842,-1.381 -0.442,-0.359 -0.99,-0.587 -1.644,-0.686 -0.514,-0.077 -1.029,-0.06 -1.544,0.051 -0.514,0.11 -0.941,0.304 -1.28,0.579 -0.339,0.276 -0.577,0.642 -0.715,1.1 -0.086,0.287 -0.218,0.991 -0.397,2.112 l -0.448,2.968 z" /></g><g
           transform="translate(195.2832,167.4224)"
           id="g28"><path
             id="path30"
             style="fill:#1a5aa9;fill-opacity:1;fill-rule:nonzero;stroke:none"
             d="m 0,0 v -3.269 c -0.345,0.822 -0.432,2.636 -0.489,2.867 -0.245,1.022 -0.648,1.814 -0.663,2.965 l 0.101,0.087 c 0.029,-0.029 0.057,0 0.115,-0.072 0.086,-0.1 0.447,-2.073 0.691,-2.376 C -0.201,0.145 -0.086,0.072 0,0 M 2.203,-1.612 V -3.053 C 2.074,-3.153 1.901,-3.283 1.671,-3.47 1.109,-3.686 0.591,-4.075 0.145,-3.542 0.101,-3.47 0.043,-3.384 0,-3.269 V 0 c 0.043,-0.043 0.072,-0.071 0.087,-0.086 0.071,-0.072 0.259,-0.85 0.316,-0.922 l 0.389,-0.504 c 0.072,-0.072 0.13,-0.388 0.187,-0.461 0.173,-0.215 0.476,-0.244 0.677,-0.086 0.073,0.058 0.158,0.216 0.231,0.274 0.028,0.029 0.158,0.087 0.316,0.173 m 0,5.458 V 2.65 C 1.901,2.779 1.685,2.895 1.613,2.981 1.181,3.514 1.569,4.004 1.829,4.738 1.887,4.724 1.973,4.767 2.03,4.695 2.088,4.623 2.074,4.119 2.203,3.846 m 0,3.815 V 7.071 L 2.017,7.302 C 2.03,7.388 2.103,7.518 2.203,7.661 M 6.265,0.115 V -0.086 L 6.207,-0.014 6.221,0.102 C 6.235,0.115 6.25,0.115 6.265,0.115 m 0,1.455 C 6.221,1.613 6.178,1.642 6.135,1.671 5.429,1.801 4.22,2.578 3.326,3.125 2.765,3.471 2.29,3.701 2.261,3.744 2.232,3.773 2.218,3.802 2.203,3.846 V 2.65 C 2.794,2.391 3.687,2.074 4.406,1.814 4.882,1.527 5.4,1.412 5.486,1.311 5.559,1.21 5.602,0.922 5.415,0.764 L 2.837,-1.31 C 2.794,-1.339 2.463,-1.497 2.203,-1.612 v -1.441 c 0.346,0.275 0.36,0.288 0.36,0.288 0.101,0.058 0.216,0.102 0.289,0.16 0.072,0.057 0.316,0.446 0.388,0.503 l 0.476,0.374 c 0.071,0.073 0.921,1.138 0.993,1.196 l 0.432,0.345 c 0.072,0.058 0.792,1.181 0.864,1.239 0.072,0.043 0.158,0.043 0.26,0 z m 0,2.808 V 3.802 C 6.092,3.932 5.962,4.032 5.919,4.09 5.76,4.277 5.659,4.753 5.861,5.112 5.933,4.753 6.077,4.623 6.192,4.465 6.221,4.436 6.25,4.407 6.265,4.378 m 0,2.232 C 4.709,7.042 2.938,7.431 2.895,7.474 2.809,7.589 2.895,7.776 2.981,7.849 3.313,8.107 3.989,8.194 4.493,8.396 3.845,8.611 2.924,8.381 2.491,8.036 c 0,0 -0.158,-0.187 -0.288,-0.375 V 7.071 L 2.333,6.912 C 2.391,6.841 3.658,6.812 4.248,6.696 4.666,6.61 5.429,6.423 5.817,6.308 5.962,6.25 6.105,6.222 6.265,6.192 Z m 0,1.8 V 8.18 C 5.717,8.209 5.17,8.28 5.04,8.31 5.04,8.31 5.012,8.353 5.025,8.425 5.443,8.41 5.847,8.41 6.265,8.41 M 7.488,0.576 v -1.469 c -0.115,0.13 -0.316,0.331 -0.461,0.447 -0.187,0.159 -0.662,0.23 -0.719,0.302 l -0.043,0.058 v 0.201 c 0.172,0 0.619,-0.259 0.82,-0.1 C 7.215,0.13 7.128,0.288 7.07,0.375 7.013,0.418 6.596,0.907 6.265,1.052 V 1.57 C 6.624,1.268 7.042,0.864 7.488,0.576 m 0,1.815 V 1.944 C 7.143,2.045 6.812,2.146 6.596,2.16 6.566,2.204 6.538,2.305 6.552,2.362 6.782,2.391 7.215,2.319 7.488,2.391 m 0,1.051 V 3.039 C 7.172,3.227 6.624,3.558 6.265,3.802 V 4.378 C 6.48,4.133 6.696,4.019 6.941,3.831 7.057,3.744 7.186,3.571 7.301,3.5 7.373,3.456 7.431,3.456 7.488,3.442 m 0,2.808 V 5.962 C 7.1,6.049 6.667,6.106 6.265,6.192 V 6.61 C 6.711,6.495 7.128,6.365 7.488,6.25 m 0,2.16 V 8.223 C 7.474,8.209 7.459,8.194 7.445,8.194 7.373,8.137 6.826,8.137 6.265,8.18 v 0.23 c 0.402,0 0.805,0.015 1.209,0.028 0,-0.013 0,-0.013 0.014,-0.028 m 0,-0.187 V 8.41 c 0.029,-0.043 0.029,-0.13 0,-0.187 m 0,-6.279 C 8.193,1.729 9,1.47 9.202,1.628 9.216,1.642 9.273,1.714 9.23,1.858 9.202,1.944 9.058,2.074 9.029,2.189 8.942,2.405 8.856,2.606 8.813,2.679 8.641,2.881 8.525,2.766 8.107,3.024 7.935,3.111 7.719,3.313 7.574,3.398 7.546,3.428 7.517,3.442 7.488,3.442 V 3.039 C 7.618,2.952 7.704,2.895 7.719,2.881 7.776,2.809 7.762,2.563 7.618,2.448 7.589,2.42 7.546,2.405 7.488,2.391 Z m 0,-2.837 V 0.576 C 7.862,0.332 8.28,0.159 8.727,0.217 8.842,0.23 9.303,-0.043 9.36,-0.114 9.433,-0.216 9.576,-0.72 9.677,-1.194 9.706,-1.354 9.821,-1.497 9.835,-1.642 9.879,-1.929 9.807,-2.159 9.734,-2.217 9.461,-2.447 8.899,-1.8 8.784,-1.771 c -0.36,0.101 -0.806,0.159 -0.95,0.332 -0.058,0.072 -0.202,0.374 -0.26,0.446 -0.013,0.014 -0.043,0.057 -0.086,0.1 m 2.909,3.86 V 2.636 C 10.138,2.794 9.331,3.169 9.288,3.227 l -0.13,0.158 c 0.015,0.057 -0.013,0.043 0.058,0.1 0.13,0.116 0.663,-0.288 0.706,-0.316 0.173,-0.058 0.331,-0.13 0.475,-0.202 m 0,1.887 V 4.551 C 9.777,4.896 8.684,5.415 8.597,5.487 8.323,5.731 7.935,5.861 7.488,5.962 V 6.25 C 7.676,6.178 7.862,6.12 8.007,6.049 8.568,5.832 9.202,5.603 9.706,5.328 9.864,5.257 10.123,5.012 10.397,4.854 m 0,2.952 V 7.287 C 9.764,7.315 9.029,7.33 8.871,7.359 L 8.77,7.488 c 0.014,0.058 -0.029,0.087 0.043,0.145 0.014,0.013 0.835,0.1 1.584,0.173 m 0,4.579 V 11.779 C 10.253,11.002 9.979,9.648 9.691,9.418 9.433,9.202 8.928,8.986 8.741,9.23 8.626,9.36 8.583,10.066 8.77,10.225 l 0.418,0.345 c 0.258,0.201 1.05,1.512 1.209,1.815 m 0,-0.606 v 0.606 c 0.014,0.013 0.029,0.028 0.029,0.043 l 0.087,-0.115 C 10.498,12.27 10.455,12.054 10.397,11.779 m 6.091,-3.426 c -0.446,0.215 -0.763,0.403 -0.835,0.489 -0.259,0.317 0.043,0.792 -0.044,0.893 -0.057,0.072 -0.143,0.072 -0.201,0.144 -0.072,0.072 -0.1,0.245 -0.158,0.316 -0.058,0.073 -0.101,0.058 -0.173,0.058 C 15.063,10.095 15.063,9.62 15.034,9.39 L 14.271,8.771 C 14.112,8.641 12.456,8.05 12.283,8.266 c -0.115,0.13 -0.216,0.403 -0.129,0.547 0.605,0.965 2.462,3.975 1.915,4.652 -0.057,0.071 -0.101,0.057 -0.173,0.071 -0.115,-0.244 -1.238,-2.577 -1.555,-2.822 -0.072,-0.058 -0.173,-0.043 -0.259,-0.101 -0.072,-0.057 -0.101,-0.288 -0.173,-0.345 L 11.247,9.749 C 11.06,9.591 10.857,9.303 11.088,9.015 11.146,8.929 11.621,8.713 11.693,8.641 11.794,8.496 11.837,8.122 11.592,7.935 c 0,0 -0.562,-0.072 -1.195,-0.129 V 7.287 c 0.49,-0.015 0.908,-0.058 0.951,-0.115 0.086,-0.087 0.086,-0.476 0.143,-0.749 0.043,-0.188 0.158,-0.288 0.216,-0.418 0.102,-0.259 -0.475,-1.094 -0.59,-1.181 -0.216,-0.173 -0.475,-0.1 -0.72,0.03 V 4.551 c 0.23,-0.13 0.389,-0.231 0.432,-0.274 0.058,-0.072 0.158,-0.316 0.216,-0.388 0.26,-0.331 0.691,-0.634 1.138,-0.619 0.172,0 0.461,0.115 0.59,-0.043 C 13.335,2.549 14.198,1.944 14.76,1.253 14.774,1.239 15.308,0.764 15.005,0.519 14.501,0.115 12.298,1.814 12.183,1.916 11.636,2.305 11.045,2.65 10.397,2.967 V 2.636 C 10.44,2.606 10.469,2.593 10.483,2.578 L 10.857,2.117 C 10.915,2.045 11.333,1.771 11.391,1.699 L 12.14,0.764 c 0.489,-0.591 2.045,-1.224 2.923,-1.268 0.345,-0.014 0.821,-0.173 1.051,0.015 0.259,0.202 0.374,0.561 0.072,0.936 -0.058,0.072 -0.173,0.101 -0.245,0.173 l -0.503,0.648 c -0.102,0.115 -1.11,0.763 -1.11,0.777 L 14.025,2.42 c -0.057,0.071 -0.575,0.461 -0.632,0.532 -0.015,0.029 -0.145,0.188 0.013,0.318 0.275,0.215 1.902,0.331 3.082,0.374 v 0.475 c -2.102,-0.26 -4.348,-0.403 -4.709,0.043 -0.316,0.403 0.173,1.426 0.346,1.569 0.648,0.519 3.01,-1.468 3.787,-0.835 0.245,0.188 0.432,0.634 0.576,1.109 v 1.08 C 16.301,6.523 15.927,5.919 15.739,5.774 15.552,5.616 14.962,5.43 14.702,5.443 c -0.129,0.015 -1.973,0.519 -2.159,0.749 -0.13,0.159 -0.303,0.85 -0.087,1.023 0.533,0.431 2.534,-0.245 2.982,0.115 0.416,0.331 0.215,0.764 0.431,0.936 0.201,0.159 0.576,-0.23 0.59,-0.259 0.015,0 0.029,-0.015 0.029,-0.028 z m 0,1.21 V 9.317 c -0.13,0.073 -0.245,0.13 -0.36,0.202 0,0 -0.028,0.044 -0.014,0.115 C 16.2,9.591 16.33,9.576 16.488,9.563 m 0,-0.246 c 0.619,-0.302 1.339,-0.546 1.958,-0.821 0.331,-0.143 0.649,-0.475 1.009,-0.547 0.547,-0.086 0.806,0.015 1.108,0.26 0.735,0.59 0.361,2.231 0.361,3.023 -0.072,0.015 -0.058,0.03 -0.13,-0.028 C 20.779,11.189 20.506,10.397 20.362,10.268 19.829,9.851 17.496,9.505 16.488,9.563 Z m 0,-5.673 c 0.634,0.029 1.138,0.043 1.239,0.029 1.699,-0.072 2.692,-0.692 3.628,0.071 0.086,0.058 0.274,0.245 0.72,0.663 0.043,0.043 0.115,0.231 0.072,0.302 -0.072,0.072 -1.626,1.282 -1.684,1.353 L 20.146,6.466 C 19.915,6.739 17.727,7.719 16.488,8.353 V 7.979 c 0.144,-0.203 0.116,-0.548 0,-0.894 v -1.08 c 0.245,0.792 0.361,1.685 0.432,1.743 0.476,0.374 3.24,-1.786 3.24,-1.801 L 20.521,5.516 C 20.578,5.443 21.053,5.155 21.11,5.084 21.212,4.954 21.11,4.709 21.067,4.666 20.866,4.508 20.017,4.638 19.857,4.608 19.152,4.479 17.842,4.277 16.488,4.119 Z" /></g><g
           transform="translate(175.0371,194.5952)"
           id="g32"><path
             id="path34"
             style="fill:#1a5aa9;fill-opacity:1;fill-rule:nonzero;stroke:none"
             d="m 0,0 v -1.181 c -1.642,-0.331 -3.37,-0.345 -5.026,-0.431 l -0.057,0.13 c 1.051,0.258 2.318,0.374 3.528,0.792 C -1.325,-0.604 -0.749,-0.359 0,0 M 3.917,2.103 V 0.317 C 3.528,0.058 3.139,-0.216 2.98,-0.259 2.044,-0.575 1.051,-0.979 0,-1.181 V 0 c 1.166,0.548 2.736,1.34 3.917,2.103 m 7.747,6.883 V 6.797 C 10.886,6.034 10.022,5.271 9.921,4.997 9.864,4.824 10.08,4.608 10.181,4.58 10.454,4.479 11.117,4.479 11.664,4.493 V 3.485 C 11.419,3.528 11.203,3.558 11.117,3.558 10.757,3.558 10.699,3.471 10.339,3.5 10.109,3.528 9.72,3.658 9.417,3.687 9.014,3.744 8.697,3.673 8.395,3.615 8.078,3.543 5.4,1.368 5.356,1.253 5.256,0.951 5.89,0.447 5.99,0.274 c 1.383,-2.448 1.671,-3.658 3.586,-4.335 0.101,-0.028 0.576,-0.201 1.368,-0.388 0.029,-0.058 0.072,-0.072 0.043,-0.158 C 10.93,-4.78 10.281,-4.823 10.209,-4.823 8.049,-4.521 7.978,-5.241 7.545,-5.097 6.753,-4.81 6.264,-3.441 6.292,-2.62 6.292,-2.462 5.947,0.519 4.968,0.85 4.824,0.907 4.363,0.62 3.917,0.317 V 2.103 C 4.81,2.679 5.5,3.227 5.645,3.644 5.789,4.032 5.27,4.277 5.126,4.45 4.982,4.638 5.155,4.796 5.155,4.954 5.126,5.242 4.781,5.271 4.637,5.516 4.435,5.904 4.248,6.337 4.075,6.826 4.133,6.869 4.162,6.854 4.262,6.826 4.435,6.769 5.515,5.703 6.609,5.328 l 0.634,-0.23 c 0.763,-0.274 3.341,2.247 4.118,3.442 0.087,0.129 0.202,0.288 0.303,0.446 m 0,-2.189 v 2.189 c 0.216,0.317 0.446,0.662 0.547,0.951 0.029,0.085 0.029,0.417 0.015,0.648 0.071,0.043 0.1,0.028 0.172,0.058 0.533,-0.894 0.807,-1.642 0.576,-2.32 -0.129,-0.359 -0.691,-0.935 -1.31,-1.526 m 0,-3.312 v 1.008 c 0.432,0 0.792,0.015 0.893,-0.028 C 12.787,4.393 13.421,3.889 13.32,3.586 13.205,3.298 12.297,3.398 11.664,3.485" /></g><g
           transform="translate(141.2979,210.8247)"
           id="g36"><path
             id="path38"
             style="fill:#1a5aa9;fill-opacity:1;fill-rule:nonzero;stroke:none"
             d="M 0,0 C -1.253,0.59 -2.722,1.311 -2.967,1.339 -3.082,1.354 -3.226,1.382 -3.37,1.396 L -3.398,1.166 C -2.563,0.662 -1.814,0.028 -0.907,-0.317 -0.619,-0.418 -0.303,-0.562 0,-0.72 Z M 0,2.391 V 0.576 C -0.086,0.619 -0.173,0.691 -0.202,0.763 -0.303,1.037 -0.274,1.411 -0.332,1.742 -0.375,1.987 -0.619,2.419 -0.605,2.52 -0.59,2.621 -0.504,2.692 -0.403,2.679 -0.259,2.649 -0.115,2.549 0,2.391 M 0,5.572 V 3.499 c -0.043,-0.015 -0.101,0 -0.13,0 -0.432,0.072 -0.792,0.288 -0.936,0.821 -0.158,0.547 -0.043,1.209 -0.086,1.785 -0.015,0.259 -0.259,0.591 -0.216,0.85 0.014,0.101 0.086,0.173 0.187,0.158 C -0.893,7.07 -0.375,6.321 0,5.572 M 0,3.499 V 5.572 C 0.202,5.184 0.36,4.78 0.417,4.507 0.46,4.32 0.46,3.902 0.446,3.802 0.417,3.542 0.173,3.499 0,3.499 M 0,0.576 V 2.391 C 0.389,1.93 0.648,1.022 0.619,0.864 0.576,0.59 0.245,0.519 0.129,0.547 0.101,0.547 0.058,0.562 0,0.576 M 4.55,-2.693 V -4.551 C 3.686,-3.902 2.793,-2.995 2.376,-2.521 1.699,-1.786 0.835,-1.167 0,-0.72 V 0 c 0.734,-0.36 1.396,-0.662 1.699,-0.792 0.648,-0.26 1.843,-1.383 2.851,-1.901 m 0,9.418 V 6.076 C 4.507,6.005 4.478,5.933 4.464,5.875 4.449,5.789 4.493,5.717 4.55,5.659 V 3.802 C 4.406,3.758 4.291,3.6 4.277,3.499 4.262,3.456 4.277,3.11 4.493,3.081 H 4.55 V 0.144 C 4.478,0.086 4.392,0.058 4.334,0.058 L 3.888,0.13 C 3.859,0.187 3.801,0.201 3.816,0.302 3.83,0.316 4.349,1.872 4.392,2.131 4.493,2.837 3.398,3.211 3.456,3.528 3.485,3.715 4.306,4.306 4.42,4.982 4.449,5.17 4.449,5.515 4.147,5.559 3.989,5.587 3.989,5.457 3.816,5.256 3.614,5.025 3.326,4.824 3.211,4.536 3.024,4.075 2.938,3.672 2.865,3.226 L 2.664,1.872 C 2.635,1.699 2.275,1.439 2.232,1.454 1.642,1.541 1.642,3.542 1.642,3.542 1.757,4.263 3.514,6.868 3.283,6.998 L 3.427,6.983 C 3.514,6.926 3.542,6.825 3.528,6.725 3.514,6.624 3.341,6.278 3.326,6.178 3.297,6.048 3.283,5.774 3.528,5.745 3.628,5.731 3.701,5.774 3.758,5.86 3.974,6.134 4.248,6.422 4.55,6.725 m 0,5.414 v -1.598 c -0.201,-0.015 -0.403,0 -0.619,0.028 C 3.83,10.584 2.98,10.8 2.88,10.814 c -0.101,0.015 -0.432,0.029 -0.692,0.073 0.75,0.388 1.455,0.734 2.362,1.252 M 4.838,-2.837 v -1.93 C 4.752,-4.694 4.651,-4.623 4.55,-4.551 v 1.858 c 0.101,-0.058 0.202,-0.101 0.288,-0.144 m 0,8.381 V 0.417 C 4.781,0.316 4.666,0.216 4.55,0.144 v 2.937 c 0.173,0.029 0.274,0.288 0.288,0.375 0.015,0.058 0,0.316 -0.187,0.346 H 4.55 V 5.659 C 4.622,5.602 4.723,5.559 4.81,5.544 Z m 0,1.439 V 6.379 C 4.737,6.278 4.622,6.178 4.55,6.076 v 0.649 c 0.101,0.087 0.202,0.172 0.288,0.258 m 0,5.315 V 10.569 C 4.752,10.555 4.651,10.541 4.55,10.541 v 1.598 c 0.101,0.044 0.202,0.101 0.288,0.159 m 0,-11.881 V 5.544 C 5.098,5.501 5.169,5.616 5.212,5.875 5.241,6.062 5.241,6.321 5.04,6.494 4.968,6.466 4.91,6.422 4.838,6.379 v 0.604 c 0.965,0.822 2.175,1.556 3.14,1.584 0.259,0.015 0.676,0.173 0.777,0.16 L 9.187,8.654 C 9.518,8.611 9.749,7.92 9.749,7.833 9.72,7.732 9.374,7.315 9.36,7.214 L 9.273,6.609 C 9.245,6.437 8.424,4.81 8.41,4.767 L 8.323,4.205 C 8.309,4.104 8.021,3.715 7.963,3.471 7.79,2.722 7.589,1.728 7.531,1.439 7.373,0.807 7.286,0.619 7.272,0.519 7.257,0.417 7.286,0.086 7.272,-0.015 7.214,-0.418 6.969,-0.792 6.523,-0.72 5.99,-0.648 5.875,-0.058 5.429,0.532 l 0.014,0.13 C 5.5,0.705 5.486,0.705 5.587,0.691 5.688,0.677 6.034,0.374 6.134,0.359 6.609,0.288 7.171,2.103 7.272,2.679 7.488,3.873 7.531,4.421 7.545,4.521 7.574,4.694 8.553,7.013 8.625,7.488 8.654,7.704 8.539,7.978 8.266,8.021 8.006,8.05 5.947,7.488 5.861,6.94 5.846,6.84 5.918,6.178 5.89,6.076 5.875,5.976 5.731,5.774 5.717,5.674 5.587,4.867 6.811,4.824 6.682,3.96 6.609,3.514 5.458,2.995 5.256,2.448 L 4.881,0.489 C 4.881,0.475 4.867,0.446 4.838,0.417 m 0,-5.184 v 1.93 c 0.159,-0.058 0.303,-0.101 0.447,-0.13 l 0.59,-0.086 c 0.029,0 1.282,-0.446 1.656,-0.504 0.792,-0.115 1.613,0.086 1.858,0.058 l 0.648,-0.102 c 0.043,-0.057 0.043,-0.1 0.072,-0.158 C 8.697,-4.075 6.148,-5.313 5.947,-5.285 5.63,-5.242 5.241,-5.04 4.838,-4.767 m 6.84,19.657 V 13.536 C 10.814,12.7 9.014,11.908 8.942,11.506 8.899,11.146 9.806,10.642 9.749,10.281 9.691,9.878 8.453,9.792 8.136,9.749 7.689,9.705 7.257,9.403 6.811,9.302 l -0.072,0.13 c 0.461,0.317 1.454,0.619 1.541,1.18 0.014,0.102 -0.072,0.677 -0.043,0.779 0.072,0.489 1.872,1.554 1.958,2.044 0.014,0.187 -0.173,0.317 -0.23,0.332 C 9.806,13.78 7.186,12.298 6.379,11.477 5.832,10.93 5.342,10.67 4.838,10.569 v 1.729 c 0.043,0.028 0.087,0.043 0.13,0.071 1.526,0.864 3.528,1.311 5.083,2.002 0.619,0.288 0.677,0.792 1.166,0.72 0.144,-0.015 0.303,-0.101 0.461,-0.201 m 0,-1.354 c 0.245,0.244 0.404,0.475 0.447,0.72 0.028,0.201 -0.202,0.461 -0.447,0.634 z" /></g><g
           transform="translate(108.0913,217.189)"
           id="g40"><path
             id="path42"
             style="fill:#1a5aa9;fill-opacity:1;fill-rule:nonzero;stroke:none"
             d="m 0,0 c -0.015,0 -0.029,0 -0.058,0.015 -0.129,-0.447 -0.244,-2.289 -0.835,-2.391 -0.374,-0.058 -1.613,1.829 -2.75,1.628 -0.101,-0.015 -0.159,-0.072 -0.188,-0.173 0.116,-0.101 2.52,-1.844 2.578,-2.203 0.086,-0.418 -0.302,-0.691 -0.533,-1.182 -0.403,-0.863 -0.504,-2.088 -1.368,-2.88 -0.346,-0.316 -0.921,-1.151 -1.31,-1.411 -0.49,-0.331 -1.21,-0.777 -1.527,-1.223 0.159,-0.073 0.274,-0.101 0.375,-0.087 0.101,0.029 0.475,0.288 0.691,0.403 4.335,2.42 3.888,4.824 4.766,4.983 0.058,0.014 0.116,0.014 0.159,0.014 z M 0,3.514 V 3.27 C -0.389,2.823 -0.346,2.045 -1.238,1.34 -1.8,0.894 -2.779,0.836 -3.398,0.433 c -0.548,-0.361 -1.369,-1.08 -1.527,-1.11 -0.101,-0.013 -0.23,0.073 -0.245,0.173 -0.115,0.706 0.994,1.584 1.368,1.944 0.461,0.447 0.893,1.296 1.296,1.858 C -2.491,3.24 -2.448,3.27 -2.434,3.168 -2.405,3.053 -2.549,2.636 -2.535,2.535 -2.477,2.203 -2.117,2.305 -2.03,2.318 -1.872,2.348 -0.706,3.067 0,3.514 M 0,5.89 C -0.245,5.717 -0.504,5.559 -0.547,5.473 L -0.432,5.386 C -0.288,5.473 -0.144,5.544 0,5.631 Z M 0,7.589 V 6.726 C -0.245,6.639 -0.59,6.466 -0.936,6.207 -1.224,5.991 -1.498,5.688 -1.786,5.486 -2.535,4.969 -3.154,4.666 -3.758,4.551 L -3.917,4.522 c -0.058,0.043 -0.058,0.014 -0.072,0.115 -0.014,0.014 2.102,1.498 1.886,2.736 -0.158,0.879 -1.454,1.225 -2.059,2.074 0.043,0.058 0.087,0.115 0.187,0.129 0.418,0.072 2.737,-0.403 2.967,-0.417 C -0.043,9.115 -0.475,7.906 0,7.589 M 0,5.631 V 5.89 C 0.273,6.062 0.533,6.278 0.49,6.495 0.446,6.711 0.245,6.769 0.129,6.754 0.086,6.739 0.058,6.739 0,6.726 V 7.589 C 0.115,7.518 0.259,7.488 0.475,7.531 0.576,7.546 0.763,7.661 0.864,7.676 L 1.67,7.819 C 1.915,7.863 2.232,8.425 2.649,8.496 2.88,8.54 4.19,8.525 4.262,8.079 4.306,7.849 3.413,7.287 3.283,7.258 L 2.606,7.143 C 2.491,7.128 2.232,6.854 2.03,6.769 1.411,6.466 0.691,6.02 0,5.631 M 0,3.27 V 3.514 C 0.086,3.571 0.173,3.615 0.245,3.658 0.706,3.96 0.604,4.09 1.008,4.162 1.771,4.292 3.053,4.19 3.254,2.995 3.312,2.693 2.966,2.348 2.822,2.318 2.722,2.305 1.886,2.506 1.786,2.478 1.642,2.463 1.238,2.089 1.109,2.074 L 0.85,2.031 C 0.835,2.089 0.792,2.074 0.777,2.175 0.763,2.29 1.296,3.067 1.282,3.183 1.238,3.442 0.864,3.629 0.633,3.586 0.331,3.543 0.144,3.428 0,3.27 M 6.278,-7.186 V -8.381 C 5.947,-8.51 5.328,-8.755 5.242,-8.77 3.874,-9.014 3.729,-8.827 1.872,-7.372 1.541,-7.113 1.109,-4.564 0,-4.507 V 0 C 0.432,-0.101 1.44,-0.604 1.512,-1.094 L 1.656,-1.9 C 1.757,-2.447 0.576,-3.384 0.604,-3.585 0.691,-4.089 4.248,-6.249 4.723,-6.509 5.227,-6.797 5.76,-7.013 6.278,-7.186 m 0,-1.195 v 1.195 C 6.667,-7.329 7.042,-7.43 7.401,-7.517 7.949,-7.66 8.424,-7.66 8.798,-7.991 8.813,-8.049 8.77,-8.106 8.727,-8.164 L 8.078,-8.279 c -0.014,0 -1.152,0.057 -1.613,-0.03 0,0 -0.071,-0.028 -0.187,-0.072" /></g><g
           transform="translate(67.6992,203.2935)"
           id="g44"><path
             id="path46"
             style="fill:#1a5aa9;fill-opacity:1;fill-rule:nonzero;stroke:none"
             d="m 0,0 v -0.489 c -0.115,-0.03 -0.23,-0.015 -0.36,0.056 -0.029,0.058 -0.086,0.073 -0.072,0.145 0.015,0.015 0.029,0.043 0.043,0.058 l 0.101,0.072 C -0.202,-0.115 -0.101,-0.058 0,0 M 0,7.07 C -0.49,6.754 -0.49,6.71 -0.778,6.609 -0.907,6.523 -1.181,6.451 -1.311,6.364 -1.714,6.206 -1.987,6.148 -2.391,6.033 -2.405,6.02 -2.419,6.02 -2.434,6.005 -2.448,5.99 -2.477,5.976 -2.506,5.962 -2.52,5.89 -2.477,5.789 -2.405,5.774 -2.29,5.616 -1.829,5.687 -1.642,5.659 c 0.49,-0.087 0.922,-0.158 1.44,-0.13 0.043,0 0.116,0.015 0.202,0.015 z m 1.829,-8.654 v -0.058 z m 0,3.312 V 0.519 C 1.757,0.461 1.685,0.417 1.498,0.216 1.138,-0.029 0.893,-0.115 0.547,-0.331 0.446,-0.346 0.158,-0.476 0.058,-0.476 0.043,-0.489 0.014,-0.489 0,-0.489 V 0 C 0.23,0.144 0.504,0.288 0.706,0.403 0.979,0.691 0.864,0.677 0.95,0.777 1.037,0.878 1.425,1.022 1.411,1.108 1.396,1.166 1.642,1.469 1.829,1.728 m 0,5.501 V 4.32 C 1.656,4.118 1.454,4.003 1.382,3.931 1.253,3.787 1.022,3.01 0.749,3.067 c 0,0.129 0.057,0.49 0.158,0.562 C 0.965,3.917 1.123,4.061 1.181,4.334 1.224,4.622 1.195,5.055 0.979,5.328 0.85,5.356 0.821,5.486 0.706,5.515 0.547,5.587 0.49,5.515 0.331,5.572 0.273,5.559 0.129,5.559 0,5.544 V 7.07 c 0.014,0 0.014,0.015 0.029,0.015 0.23,0.058 0.446,0.058 0.575,0.101 0.246,0.072 0.447,0.072 0.721,0.072 0.129,0.028 0.317,0.013 0.504,-0.029 m 0,-2.909 C 1.857,4.334 1.872,4.349 1.886,4.378 2.016,4.536 2.088,4.795 2.203,4.91 2.361,5.098 2.39,5.011 2.505,5.17 2.793,5.501 2.793,5.559 2.938,5.89 3.067,6.163 2.981,6.351 2.909,6.566 2.822,6.825 2.29,7.113 1.829,7.229 Z m 0,-3.801 V 1.728 C 1.886,1.8 1.944,1.872 1.973,1.93 c 0.086,0.086 0.201,0.417 0.345,0.633 0.116,0.187 0.346,0.518 0.49,0.706 0.158,0.23 0.216,0.273 0.245,0.388 0.23,0.158 0.489,0.937 0.59,1.21 0.173,0.216 0.331,0.432 0.504,0.634 0.029,0.115 0.072,0.23 0.115,0.331 C 4.306,5.962 4.406,6.191 4.55,6.235 4.766,6.307 5.544,6.364 5.688,6.148 5.702,6.062 5.544,5.774 5.544,5.774 5.544,5.774 5.415,5.414 5.271,5.17 5.213,5.068 5.126,4.795 5.054,4.709 4.867,4.507 4.68,4.219 4.479,3.931 4.363,3.758 4.075,3.413 4.003,3.341 3.902,3.139 3.499,2.462 3.37,2.318 3.269,2.188 3.153,2.059 3.053,1.915 2.88,1.8 2.217,0.979 2.131,0.792 1.973,0.619 1.901,0.562 1.829,0.519 M 8.395,-4.91 c -0.317,0.244 -0.504,0.446 -0.691,0.69 -0.101,0.159 -0.288,0.275 -0.432,0.404 -0.058,0.087 -0.144,0.129 -0.187,0.202 -0.144,0.143 -0.432,0.288 -0.562,0.403 -0.101,0.101 -0.101,0.144 -0.129,0.259 -0.072,0.1 -0.144,0.201 -0.231,0.288 0.015,0.043 0.015,0.072 0.072,0.086 0.432,0.159 0.374,0.605 0.634,0.778 0,0 0.576,0.748 0.662,0.806 0.087,0.217 0.072,0.36 0.158,0.576 0.015,0.101 0.029,0.202 0.029,0.303 C 7.603,0.072 7.517,0.201 7.33,0.303 7.186,0.288 6.365,-0.288 6.322,-0.418 6.278,-0.547 6.379,-0.591 6.35,-0.72 6.264,-0.764 6.048,-0.907 5.961,-0.965 5.904,-1.022 5.832,-1.109 5.731,-1.123 c 0,0.028 -0.014,0.071 -0.014,0.115 -0.015,0.259 0.072,0.244 0.086,0.346 0.043,0.058 0.101,0.129 0.144,0.201 0.029,0.13 0.058,0.259 0.087,0.403 C 6.091,0.23 6.192,0.403 6.25,0.677 6.278,1.08 6.408,1.497 6.322,1.987 6.48,2.088 6.581,2.606 6.826,3.01 6.97,3.283 6.897,3.341 6.883,3.369 6.869,3.413 6.753,3.571 6.682,3.672 6.437,3.931 5.285,2.938 5.357,3.01 5.213,2.895 5.083,2.779 4.939,2.679 4.838,2.563 4.752,2.448 4.651,2.333 4.565,1.915 4.248,1.569 4.089,1.181 4.018,1.008 4.003,0.835 3.902,0.677 3.945,0.245 3.542,-0.115 3.398,-0.476 3.341,-0.662 3.269,-1.008 3.11,-1.123 2.837,-1.152 2.649,-1.21 2.39,-1.152 2.29,-1.181 2.117,-1.152 2.03,-1.181 2.016,-1.181 2.001,-1.195 1.987,-1.21 1.93,-1.368 1.843,-1.483 1.829,-1.584 v -0.058 c 0.014,0 0.014,-0.014 0.014,-0.014 0.058,-0.303 0.274,-0.418 0.418,-0.778 0.029,-0.158 0.331,-0.461 0.36,-0.619 0.201,-0.302 0.288,-0.605 0.532,-0.994 0.346,-0.532 0.865,-1.138 1.397,-1.08 0.173,0.102 0.245,0.202 0.317,0.39 0.043,0.129 0.029,0.143 0.043,0.331 0.015,0.158 0.13,0.403 0.159,0.619 0.014,0.143 -0.072,0.244 -0.072,0.346 -0.317,0.489 -0.518,0.849 -0.807,1.353 0.043,0.302 0.375,0.562 0.62,0.72 0.115,-0.015 0.172,0.115 0.244,0.072 0.058,-0.087 -0.029,-0.187 -0.014,-0.288 0,0.028 0.187,-1.08 0.129,-0.979 0.015,-0.144 0.303,-0.274 0.418,-0.303 0.13,-0.187 0.274,-0.345 0.389,-0.547 C 5.947,-3.614 5.789,-4.047 5.616,-4.233 5.573,-4.363 5.602,-4.291 5.472,-4.551 5.342,-4.724 5.227,-4.954 5.098,-5.127 4.997,-5.371 4.91,-5.631 4.824,-5.875 4.521,-6.639 4.608,-6.264 4.45,-6.739 4.334,-6.955 4.147,-7.401 4.061,-7.704 3.917,-7.949 3.729,-8.165 3.47,-8.496 3.427,-8.712 3.355,-8.972 3.312,-9.173 c 0.072,-0.13 0.173,-0.072 0.302,-0.13 0.288,-0.143 0.576,-0.331 0.85,-0.489 0.273,-0.058 0.576,0.23 0.792,0.389 0.029,0.13 0.13,0.302 0.173,0.446 0.057,0.101 0.043,0.187 0.086,0.273 0,0.361 0.158,0.835 0.245,1.239 0.072,0.274 0.086,0.332 0.115,0.504 0,0.129 0.101,0.518 0.202,0.576 0.072,0.288 0.144,0.504 0.216,0.763 0.158,0.533 0.086,0.951 0.302,1.325 C 6.782,-4.32 7.027,-5.198 7.128,-5.357 7.07,-5.702 6.566,-5.861 6.595,-6.207 6.941,-6.566 7.819,-6.927 7.848,-6.941 7.891,-6.955 8.078,-7.07 8.251,-7.171 8.294,-7.2 8.337,-7.2 8.395,-7.215 Z m 0,3.254 v -0.893 c -0.259,0.043 -0.547,0.101 -0.562,0.115 -0.028,0 -0.187,0.173 -0.1,0.288 0,0.015 0.029,0.043 0.058,0.058 0.172,0.187 0.374,0.331 0.604,0.432 m 0,-5.559 v 2.305 c 0.015,-0.015 0.029,-0.029 0.058,-0.044 0.302,-0.475 0.59,-0.965 0.619,-1.512 0.014,-0.273 -0.274,-0.662 -0.274,-0.662 0,0 -0.23,-0.087 -0.403,-0.087 m 0.821,5.789 v -1.526 c -0.087,0.072 -0.187,0.143 -0.288,0.216 -0.115,0.043 -0.216,0.115 -0.331,0.144 -0.058,0.014 -0.13,0.029 -0.202,0.043 v 0.893 c 0.245,0.13 0.533,0.202 0.821,0.23 m 0,-1.526 v 1.526 c 0.245,0.015 0.475,0.015 0.72,-0.028 0.129,-0.029 0.403,-0.058 0.547,-0.159 0.173,-0.072 0.821,-0.562 0.878,-0.735 0,-0.071 0,-0.158 0.015,-0.215 0.029,-0.116 0.043,-0.202 0.072,-0.317 -0.072,-0.375 -0.36,-0.504 -0.677,-0.706 -0.129,-0.028 -0.259,-0.072 -0.389,-0.086 -0.129,0.014 -0.259,0.101 -0.388,0.115 -0.13,0.086 -0.202,0.173 -0.317,0.288 -0.101,0.086 -0.158,0.086 -0.302,0.202 -0.058,0.043 -0.102,0.072 -0.159,0.115" /></g><g
           transform="translate(33.4849,177.186)"
           id="g48"><path
             id="path50"
             style="fill:#1a5aa9;fill-opacity:1;fill-rule:nonzero;stroke:none"
             d="m 0,0 c 0,-0.015 0,-0.015 -0.015,-0.015 -0.028,-0.043 -0.215,-0.23 0,-0.374 0,0.015 0.015,0.015 0.015,0.029 v -0.014 c -0.029,0 -0.058,0 -0.101,0.028 -0.072,0.073 -0.058,0.145 -0.014,0.188 0.014,-0.087 -0.029,-0.087 0.043,-0.158 0.029,-0.015 0.057,-0.03 0.072,-0.03 L 0,-0.36 c -0.043,0.014 -0.086,0.029 -0.115,0.057 0.029,0 0.072,-0.013 0.115,-0.028 z M 1.512,1.325 V 0.144 C 0.893,0.13 0.331,-0.028 0,-0.36 v -0.014 c 0.043,0 0.086,0.014 0.115,0.028 -0.029,0.015 -0.072,0 -0.115,0 V -0.36 c 0.043,0 0.101,0 0.115,0.014 C 0.072,-0.331 0.043,-0.331 0,-0.331 V 0 C 0.144,0.115 0.965,0.706 1.022,0.777 Z M 6.581,0.331 C 6.624,0.316 6.638,0.288 6.667,0.259 6.638,0.288 6.624,0.316 6.581,0.331 6.609,0.288 6.638,0.245 6.667,0.201 6.638,0.245 6.609,0.288 6.581,0.331 m 0.086,-12.11 v -0.461 c -0.158,-0.014 -0.302,-0.043 -0.432,-0.072 -0.029,0.043 -0.072,0.129 -0.072,0.202 0.087,0.057 0.274,0.172 0.504,0.331 m 0,12.067 V 0.259 C 6.638,0.288 6.624,0.316 6.581,0.331 6.609,0.288 6.638,0.245 6.667,0.201 V -2.98 c -0.072,0.158 -0.158,0.331 -0.59,0.719 l -1.8,1.599 C 3.701,-0.158 2.534,0.173 1.512,0.144 V 1.325 L 1.699,1.541 C 2.894,2.88 5.385,1.556 5.976,1.037 6.048,0.965 6.221,0.821 6.609,0.36 6.624,0.331 6.653,0.316 6.667,0.288 m 0,-0.029 C 6.696,0.216 6.71,0.173 6.739,0.13 6.71,0.158 6.682,0.173 6.667,0.201 6.682,0.173 6.71,0.158 6.739,0.13 6.71,0.173 6.696,0.216 6.667,0.259 m 2.405,-9.575 v -2.434 c -0.519,-0.375 -1.584,-0.39 -2.405,-0.49 v 0.461 c 0.461,0.288 1.051,0.676 1.094,0.734 0.418,0.476 0.231,0.576 0.907,1.339 0.13,0.144 0.274,0.274 0.404,0.39 m 0,5.14 v -1.267 l -0.85,0.777 C 8.021,-4.493 7.747,-4.09 7.56,-3.902 L 6.998,-3.413 C 6.782,-3.226 6.725,-3.11 6.667,-2.98 V 0.201 C 6.682,0.173 6.71,0.158 6.739,0.13 6.71,0.173 6.696,0.216 6.667,0.259 V 0.288 C 7.128,-0.331 7.416,-1.281 7.747,-2.16 7.79,-2.275 8.438,-3.298 9.072,-4.176 m 0,9.519 V 3.542 c -0.519,0.721 -1.051,1.556 -0.95,1.671 0.115,0.13 0.503,0.158 0.95,0.13 m 0,-17.093 v 2.434 c 0.835,0.647 1.814,0.662 2.693,-0.13 0.244,-0.216 0.388,-3.874 -0.058,-4.867 0,0 -0.043,-0.043 -0.115,0.028 -0.029,0.029 -0.043,0.734 -0.389,1.397 -0.057,0.086 -0.043,0.259 -0.101,0.317 -0.331,0.374 -0.561,0.792 -0.921,1.109 -0.202,0.187 -0.735,0.158 -0.908,-0.087 -0.043,-0.072 -0.115,-0.143 -0.201,-0.201 m 3.182,-6.049 v -0.474 c -0.072,0.201 -0.101,0.374 -0.014,0.461 0,0.013 0,0.013 0.014,0.013 m 0,10.484 v -1.296 c -0.115,0.115 -0.662,0.792 -0.979,1.195 l -2.203,1.973 v 1.267 c 0.374,-0.518 0.734,-0.979 0.993,-1.195 z m 0,11.405 V 0.303 L 9.777,2.649 C 9.604,2.852 9.345,3.183 9.072,3.542 V 5.343 C 9.965,5.285 11.146,5.025 11.203,4.982 L 12.168,4.118 C 12.182,4.104 12.211,4.104 12.254,4.09 m 1.138,-6.955 0.014,-0.173 h 0.043 -0.043 l -0.014,0.173 c -0.043,-0.058 -0.072,-0.145 0.014,-0.217 0.014,-0.014 0.029,-0.028 0.043,-0.028 -0.014,0 -0.029,0.014 -0.043,0.028 -0.086,0.072 -0.057,0.159 -0.014,0.217 m 0,0 0.014,-0.173 h 0.043 -0.043 l -0.014,0.173 c -0.043,-0.058 -0.072,-0.145 0.014,-0.217 0.014,-0.014 0.029,-0.028 0.043,-0.028 -0.014,0 -0.029,0.014 -0.043,0.028 -0.086,0.072 -0.057,0.159 -0.014,0.217 m 0,0 0.014,-0.173 h 0.043 -0.043 l -0.014,0.173 c -0.043,-0.058 -0.072,-0.145 0.014,-0.217 0.014,-0.014 0.029,-0.028 0.043,-0.028 -0.014,0 -0.029,0.014 -0.043,0.028 -0.086,0.072 -0.057,0.159 -0.014,0.217 m 0.057,-14.501 v -1.988 c -0.316,0.029 -0.561,0.116 -0.705,0.231 -0.058,0.058 -0.36,0.489 -0.49,0.85 v 0.474 c 0.187,0.202 0.735,-0.086 1.095,0.318 0.028,0.043 0.071,0.072 0.1,0.115 m 0,9.345 v -2.102 c -0.143,0.403 -0.345,0.749 -0.633,1.008 l -0.547,0.489 c -0.015,0 -0.015,0 -0.015,0.015 v 1.296 l 0.144,-0.129 c 0.159,-0.145 0.591,-0.361 1.051,-0.577 m 0,4.983 h -0.043 l -0.014,0.173 c -0.043,-0.058 -0.072,-0.145 0.014,-0.217 0.014,-0.014 0.029,-0.028 0.043,-0.028 -0.014,0 -0.029,0.014 -0.043,0.028 -0.086,0.072 -0.057,0.159 -0.029,0.217 0.015,-0.058 0.015,-0.159 0.043,-0.188 0,0 0.015,0.015 0.029,0.015 m 0,0.907 v -0.907 h -0.043 l -0.014,0.173 C 13.349,-2.923 13.32,-3.01 13.406,-3.082 13.42,-3.096 13.435,-3.11 13.449,-3.11 v 0.014 h -0.014 c -0.187,0.173 -0.101,0.547 0.014,0.965 m 0,6.523 V 3.917 C 13.19,3.96 12.96,3.932 12.845,3.802 12.701,3.629 12.888,3.384 12.989,3.283 13.046,3.24 13.147,3.096 13.449,2.895 v -3.499 c -0.187,0.215 -0.273,0.244 -0.345,0.301 -0.072,0.058 -0.461,0.361 -0.72,0.49 l -0.13,0.116 V 4.09 c 0.187,-0.015 0.663,0.115 1.195,0.302 m 0.159,-5.788 c -0.015,-0.044 -0.029,-0.073 -0.044,-0.087 0.015,0.029 0.029,0.087 0.044,0.172 -0.015,-0.085 -0.029,-0.143 -0.044,-0.172 0.015,0.014 0.029,0.043 0.044,0.087 m -0.159,-1.642 c 0.029,0.014 0.058,0.058 0.101,0.143 0.014,-0.072 -0.014,-0.187 -0.043,-0.215 0,0 -0.014,-0.03 -0.058,0 0.044,-0.03 0.058,0 0.058,0 0.029,0.028 0.029,0.13 0.029,0.13 -0.029,-0.03 -0.072,-0.044 -0.087,-0.058 0.015,0.014 0.058,0.028 0.087,0.058 0,0 0,-0.102 -0.029,-0.13 0,0 -0.014,-0.03 -0.058,0 0.044,-0.03 0.058,0 0.058,0 0.029,0.028 0.029,0.13 0.029,0.13 -0.029,-0.03 -0.072,-0.044 -0.087,-0.058 0.015,0.014 0.058,0.028 0.087,0.058 0,0 0,-0.102 -0.029,-0.13 0,0 -0.014,-0.03 -0.058,0 0.044,-0.03 0.058,0 0.058,0 0.029,0.028 0.029,0.13 0.029,0.13 -0.029,-0.03 -0.072,-0.044 -0.087,-0.058 0.015,0.014 0.058,0.028 0.087,0.058 0,0 0,-0.102 -0.029,-0.13 0,0 -0.014,-0.03 -0.058,0 0.044,-0.03 0.058,0 0.058,0 0.029,0.028 0.029,0.13 0.029,0.13 -0.029,-0.03 -0.072,-0.044 -0.087,-0.058 m 0.159,-14.112 v -2.218 c -0.058,0.014 -0.115,0.014 -0.159,0.014 v 1.988 c 0.058,0.072 0.115,0.143 0.159,0.216 m 0,9.057 v -2.649 c -0.044,0.216 -0.101,0.431 -0.159,0.619 v 2.102 c 0.044,-0.014 0.101,-0.043 0.159,-0.072 m 0,6.624 c -0.044,-0.216 -0.101,-0.446 -0.159,-0.662 v -0.907 c 0.015,0.014 0.058,0.028 0.087,0.058 0,0 0,-0.102 -0.029,-0.13 0,0 -0.014,-0.03 -0.058,0 v 0.014 c 0.058,-0.057 0.101,-0.029 0.101,-0.029 0.014,0.072 0.029,0.13 0.058,0.202 z m 0,0.158 v -0.085 c -0.015,-0.044 -0.029,-0.073 -0.044,-0.087 0.015,0.029 0.029,0.087 0.044,0.172 m 0,4.105 v -3.658 c -0.015,0.044 -0.029,0.087 -0.058,0.115 -0.043,0.058 -0.072,0.101 -0.101,0.145 v 3.499 c 0.044,-0.03 0.101,-0.073 0.159,-0.101 m 0,1.67 V 3.888 C 13.55,3.902 13.493,3.917 13.449,3.917 v 0.475 c 0.044,0.029 0.101,0.044 0.159,0.072 m 0.043,-5.602 c 0.015,-0.086 -0.014,-0.187 -0.043,-0.258 0.029,0.071 0.058,0.172 0.043,0.258 -0.014,-0.057 -0.029,-0.115 -0.043,-0.173 0.014,0.058 0.029,0.116 0.043,0.173 m -0.043,-0.258 c 0.029,0.071 0.058,0.172 0.043,0.258 -0.014,-0.057 -0.029,-0.115 -0.043,-0.173 z m 0.144,-15.466 v -2.506 h -0.144 v 2.218 c 0.072,0.1 0.115,0.187 0.144,0.288 m 0,8.712 v -7.95 c -0.044,0.275 -0.086,0.649 -0.072,1.167 0,1.224 0.173,2.88 -0.072,4.191 v 2.649 c 0.043,-0.014 0.086,-0.043 0.144,-0.057 m 0,10.857 V -2.52 c -0.058,-0.129 -0.101,-0.274 -0.144,-0.403 v 1.454 c 0.043,0.231 0.058,0.447 0,0.605 v 3.658 c 0.043,-0.029 0.086,-0.058 0.144,-0.087 m 0,1.8 V 3.859 c -0.058,0.015 -0.101,0.029 -0.144,0.029 v 0.576 c 0.043,0.015 0.086,0.029 0.144,0.043 m 0.907,-13.147 0.058,-0.057 z m -0.014,-2.65 0.072,-0.071 z m 0.014,2.65 0.058,-0.057 z m -0.014,-2.65 0.072,-0.071 z m 0,0 0.072,-0.071 z m 0.072,2.65 v -0.057 l -0.058,0.057 0.058,-0.057 v -2.636 c -0.13,0.173 -0.303,0.504 -0.533,0.23 -0.173,-0.187 0.216,-0.849 0.23,-0.877 0.13,-0.433 0.216,-0.937 0.303,-1.469 v -5.804 c -0.317,-0.086 -0.663,-0.115 -0.965,-0.115 v 2.506 c 0.058,0.216 0.029,0.431 0,0.762 v 7.95 c 0.46,-0.216 0.878,-0.418 0.965,-0.49 m 0,13.608 v -6.811 c -0.303,0.029 -0.634,-0.115 -0.807,-0.317 -0.029,-0.028 -0.1,-0.188 -0.158,-0.36 v 5.227 c 0,0 0.014,-0.015 0.029,-0.028 0.431,-0.245 0.532,-0.102 0.748,0.143 0.288,0.318 0.202,0.491 -0.086,0.735 -0.058,0.057 -0.36,0.202 -0.691,0.302 v 0.648 c 0.346,0.144 0.691,0.303 0.965,0.461 m 0.331,-6.926 0.1,-0.102 z m 0,0 0.1,-0.102 z m -0.331,-6.739 0.158,-0.13 -0.158,0.13 0.158,-0.13 z m 0.331,6.739 0.1,-0.102 z m -0.331,-9.403 0.086,-0.058 -0.086,0.058 0.086,-0.058 -0.086,0.058 0.086,-0.058 z m 0.331,9.403 0.1,-0.102 z m 0.1,-13.911 v -3.239 c -0.129,-0.058 -0.273,-0.102 -0.431,-0.145 v 5.804 c 0.144,-0.807 0.259,-1.671 0.431,-2.42 m 0,6.869 v -2.491 c -0.1,0.014 -0.215,0.029 -0.316,0.043 -0.029,0.014 -0.072,0.057 -0.115,0.115 v 2.636 l 0.158,-0.13 -0.158,0.13 v 0.057 l 0.388,-0.345 c 0,0 0.015,-0.015 0.043,-0.015 m 0,14.241 v -7.257 c -0.129,0.101 -0.273,0.159 -0.431,0.173 v 6.811 c 0.144,0.087 0.273,0.158 0.36,0.23 0.028,0.015 0.043,0.03 0.071,0.043 m 0,-7.301 0.116,-0.1 -0.116,0.1 0.116,-0.1 -0.116,0.1 0.116,-0.1 -0.116,0.1 0.116,-0.1 z m 0,0.044 v 7.257 c 0.087,0.015 0.188,-0.013 0.246,-0.071 0.345,-0.303 0.489,-3.053 0.662,-3.543 0.173,-0.504 -0.202,-0.907 -0.13,-1.454 0.029,-0.231 0.187,-0.533 0.26,-0.605 l 0.417,-0.375 c 0.749,-0.662 0.807,-4.593 0.778,-5.025 -0.101,0.187 -1.671,3.326 -2.189,3.787 -0.015,0.015 -0.029,0.029 -0.044,0.029 m 0,-9.475 V -9 c 0.202,-0.101 0.908,-0.389 1.009,-0.489 0.302,-0.26 0.821,-1.153 0.461,-1.571 -0.245,-0.258 -0.908,-0.446 -1.47,-0.431 m 0,-7.617 v 3.239 c 0.044,-0.201 0.102,-0.389 0.159,-0.562 0.101,-0.359 0.965,-1.67 0.403,-2.303 -0.129,-0.159 -0.331,-0.274 -0.562,-0.374 m 5.286,16.487 V -5.299 C 20.405,-5.313 20.39,-5.328 20.376,-5.343 20.304,-5.429 19.857,-6.163 19.8,-6.25 c -0.288,-0.316 -0.346,-0.446 -0.893,-0.562 -0.043,0.044 -0.086,0.145 -0.014,0.231 0.072,0.072 0.259,0.158 0.316,0.23 0.36,0.404 0.418,1.052 0.677,1.512 0.13,0.26 -0.115,0.764 -0.273,1.052 -0.044,0.072 -0.101,0.288 -0.029,0.36 0.014,0.014 0.59,0.417 0.633,0.475 0.029,0.029 0.116,0.173 0.217,0.331 m 0,-2.678 c 0.172,0.144 0.46,0.144 0.676,-0.044 0.475,-0.417 0.951,-2.592 0.965,-2.592 0.072,-0.072 0.101,-0.028 0.158,-0.028 l 0.202,0.216 c 0.576,0.662 -0.461,3.24 -0.49,3.441 l 0.663,0.749 c 0.23,0.245 0.302,1.181 0,1.454 -0.302,0.26 -1.282,0.634 -1.843,0 -0.043,-0.043 -0.202,-0.301 -0.331,-0.518 z" /></g><g
           transform="translate(45.7393,124.1792)"
           id="g52"><path
             id="path54"
             style="fill:#1a5aa9;fill-opacity:1;fill-rule:nonzero;stroke:none"
             d="M 0,0 V -3.226 C -0.072,-2.159 -0.13,-1.08 -0.159,0 Z M 0,6.854 V 3.355 h -0.173 c 0.014,1.181 0.058,2.348 0.13,3.514 z M 1.195,-6.768 v -3.485 L 0.792,-10.311 C 0.604,-9.173 0.446,-8.006 0.316,-6.84 Z M 1.195,0 V -3.398 L 0.014,-3.499 C 0,-3.412 0,-3.312 0,-3.226 V 0 Z m 0,6.754 V 3.355 H 0 v 3.499 z m 0,6.84 v -3.47 L 0.216,10.21 c 0.129,1.166 0.273,2.333 0.446,3.484 z M 1.354,-6.753 v -3.471 l -0.159,-0.029 v 3.485 z M 1.354,0 V -3.384 L 1.195,-3.398 V 0 Z m 0,6.739 V 3.355 H 1.195 v 3.399 z m 0,6.826 v -3.456 l -0.159,0.015 v 3.47 z m 0,4.119 v -0.706 l -0.13,0.029 c 0.043,0.216 0.086,0.446 0.13,0.677 m 0.144,-31.291 v -0.519 c -0.044,0.173 -0.073,0.331 -0.116,0.504 z m 0,6.868 v -3.456 l -0.144,-0.029 v 3.471 z M 1.498,0 V -3.369 L 1.354,-3.384 V 0 Z m 0,6.726 V 3.355 H 1.354 v 3.384 z m 0,6.81 v -3.441 l -0.144,0.014 v 3.456 z m 0,4.81 v -1.397 l -0.144,0.029 v 0.706 c 0.042,0.215 0.086,0.446 0.144,0.662 m 0.964,-31.781 v -3.528 L 2.16,-17.035 c -0.231,0.965 -0.461,1.93 -0.662,2.909 v 0.519 z m 0,6.783 v -3.37 l -0.964,-0.173 v 3.456 z M 2.462,0 V -3.283 L 1.498,-3.369 V 0 Z m 0,6.639 V 3.355 H 1.498 v 3.371 z m 0,6.724 v -3.354 l -0.964,0.086 v 3.441 z m 0,6.927 v -3.514 l -0.964,0.173 v 1.397 c 0.144,0.706 0.288,1.397 0.46,2.088 z m 0.432,-33.653 v -3.485 l -0.432,-0.115 v 3.528 z m 0,6.739 v -3.312 l -0.432,-0.086 v 3.37 z m 0,15.48 V -4.622 L 2.779,-3.254 2.462,-3.283 V 0 h 0.13 V 3.355 H 2.462 V 6.639 L 2.693,6.624 Z m 0,4.436 V 9.979 l -0.432,0.03 v 3.354 z m 0,6.883 v -3.471 l -0.432,0.072 v 3.514 z m 0,3.845 v -0.361 l -0.086,0.029 c 0.028,0.101 0.057,0.216 0.086,0.332 m 5.285,-57.01 v -0.201 c -0.029,0.043 -0.057,0.1 -0.086,0.158 z m 0,65.549 V 17.525 C 7.099,12.558 6.523,7.416 6.523,2.132 c 0,-5.285 0.576,-10.441 1.656,-15.408 v -16.013 l -1.526,-0.706 c -0.476,1.065 -0.936,2.132 -1.368,3.225 l 2.606,0.951 -1.138,3.154 -2.635,-0.95 c -0.374,1.094 -0.734,2.217 -1.065,3.341 l 2.678,0.719 -0.864,3.241 -1.973,-0.534 v 3.485 l 1.224,0.217 -0.576,3.311 -0.648,-0.101 v 3.312 l 0.173,0.029 -0.173,1.973 V 8.856 L 2.995,9.965 2.894,9.979 v 3.313 l 0.49,-0.087 0.576,3.313 -1.066,0.186 v 3.471 l 1.743,-0.461 0.863,3.24 -2.606,0.705 v 0.361 c 0.288,1.007 0.605,2.015 0.936,3.009 l 2.621,-0.95 1.152,3.153 -2.635,0.965 c 0.417,1.095 0.864,2.175 1.324,3.241 z m 0,4.896 v -1.181 l -0.49,0.216 c 0.159,0.317 0.317,0.648 0.49,0.965 M 21.96,-42.408 v -10.181 c -0.807,0.836 -1.599,1.686 -2.362,2.549 l 2.103,1.771 -2.146,2.578 -2.131,-1.786 c -0.735,0.908 -1.455,1.83 -2.146,2.765 l 2.261,1.584 -1.93,2.751 -2.289,-1.599 c -0.648,0.965 -1.282,1.945 -1.886,2.938 l 2.39,1.396 -1.685,2.91 -2.405,-1.397 c -0.547,0.965 -1.066,1.943 -1.555,2.938 v 0.201 l 2.419,1.123 -1.411,3.053 -1.008,-0.475 v 16.013 c 2.362,-10.815 7.142,-20.737 13.781,-29.132 m 0,98.036 V 46.656 C 15.321,38.262 10.541,28.34 8.179,17.525 v 15.034 l 0.634,-0.288 1.411,3.039 -2.045,0.964 v 1.181 c 0.36,0.72 0.735,1.44 1.123,2.146 l 2.405,-1.383 1.67,2.909 -2.404,1.396 c 0.59,1.008 1.224,1.988 1.857,2.967 l 2.275,-1.584 1.93,2.75 -2.289,1.584 c 0.691,0.95 1.396,1.887 2.13,2.794 l 2.103,-1.771 2.16,2.578 -2.131,1.785 c 0.778,0.879 1.555,1.742 2.362,2.592 z M 23.789,-44.64 v -6.148 l -1.8,-1.815 c -0.015,0 -0.029,0.014 -0.029,0.014 v 10.181 c 0.59,-0.763 1.209,-1.512 1.829,-2.232 m 0,99.389 v -5.86 C 23.169,48.168 22.55,47.42 21.96,46.656 v 8.972 l 1.353,-1.354 z m 0,3.917 v -0.115 l -0.058,0.057 c 0.029,0.015 0.043,0.043 0.058,0.058 m 6.566,-117.187 v -1.57 c -0.273,0.201 -0.547,0.403 -0.806,0.619 z m 0,7.157 v -5.185 l -1.613,1.354 -1.771,-2.131 c -0.893,0.763 -1.757,1.555 -2.606,2.347 l 1.944,1.958 -2.362,2.376 -0.158,-0.143 v 6.148 c 2.044,-2.39 4.233,-4.622 6.566,-6.724 m 0,112.147 v -5.17 c -2.333,-2.088 -4.522,-4.334 -6.566,-6.724 v 5.86 l 1.9,1.901 -1.9,1.901 v 0.115 c 0.82,0.792 1.656,1.569 2.505,2.318 l 1.786,-2.102 z m 0,3.571 v -2.966 l -1.498,1.771 c 0.49,0.404 0.994,0.806 1.498,1.195 m 0.821,-121.881 v -3.212 c -0.274,0.216 -0.547,0.432 -0.821,0.648 v 1.57 z m 0,5.428 v -5.141 l -0.821,0.691 v 5.185 c 0.274,-0.245 0.547,-0.49 0.821,-0.735 m 0,117.086 v -8.639 c -0.274,-0.245 -0.547,-0.49 -0.821,-0.735 v 5.17 l 0.288,0.259 -0.288,0.346 v 2.966 c 0.274,0.202 0.547,0.417 0.821,0.633 M 43.344,-60.682 v -7.589 c -0.792,0.389 -1.584,0.807 -2.362,1.225 l 1.383,2.404 -2.909,1.685 -1.397,-2.419 c -0.994,0.605 -1.987,1.225 -2.952,1.872 l 1.584,2.261 -2.75,1.93 -1.599,-2.276 c -0.388,0.274 -0.777,0.562 -1.166,0.85 v 3.212 l 0.144,0.173 -0.144,0.114 v 5.141 c 3.744,-3.269 7.819,-6.149 12.168,-8.583 m 0,133.1 V 64.93 C 38.995,62.496 34.92,59.616 31.176,56.348 v 8.639 c 0.158,0.116 0.303,0.217 0.446,0.332 l 1.585,-2.261 2.764,1.916 -1.598,2.289 c 0.95,0.663 1.944,1.296 2.938,1.901 l 1.382,-2.405 2.909,1.684 -1.397,2.42 c 1.022,0.562 2.059,1.109 3.096,1.642 z M 56.016,-66.254 v -7.027 c -0.821,0.245 -1.641,0.504 -2.462,0.777 l 0.95,2.607 -3.154,1.152 -0.95,-2.621 c -1.094,0.418 -2.174,0.849 -3.24,1.325 l 1.166,2.505 -3.053,1.426 -1.18,-2.535 c -0.245,0.116 -0.49,0.246 -0.749,0.374 v 7.589 c 4.003,-2.246 8.237,-4.118 12.672,-5.572 m 0,143.784 V 70.503 C 51.581,69.049 47.347,67.177 43.344,64.93 v 7.488 l 1.137,-2.434 3.039,1.426 -1.181,2.534 c 1.066,0.476 2.146,0.937 3.24,1.369 l 0.95,-2.622 3.154,1.153 -0.965,2.621 c 1.095,0.374 2.189,0.734 3.298,1.065 m 6.336,-145.541 v -6.869 c -0.734,0.158 -1.469,0.317 -2.189,0.489 l 0.706,2.679 -3.24,0.879 -0.72,-2.708 c -0.303,0.087 -0.605,0.173 -0.893,0.26 v 7.027 c 2.073,-0.677 4.191,-1.267 6.336,-1.757 m 0,147.14 V 72.26 c -2.145,-0.489 -4.263,-1.08 -6.336,-1.757 v 7.027 c 0.014,0 0.029,0 0.043,0.015 l 0.72,-2.693 3.255,0.878 -0.735,2.693 c 1.008,0.259 2.031,0.489 3.053,0.706 M 68.63,-69.148 v -6.769 c -0.576,0.072 -1.151,0.145 -1.728,0.23 l 0.475,2.722 -3.312,0.591 -0.475,-2.751 c -0.417,0.087 -0.82,0.159 -1.238,0.245 v 6.869 c 2.059,-0.475 4.147,-0.849 6.278,-1.137 m 0,149.313 V 73.397 C 66.499,73.109 64.411,72.735 62.352,72.26 v 6.869 c 0.129,0.028 0.245,0.058 0.36,0.071 l 0.49,-2.735 3.312,0.59 -0.49,2.751 c 0.864,0.129 1.728,0.258 2.606,0.359 m 6.265,-149.904 v -6.71 c -0.39,0.014 -0.778,0.043 -1.167,0.057 l 0.23,2.75 -3.34,0.303 -0.245,-2.779 c -0.576,0.057 -1.166,0.115 -1.743,0.201 v 6.769 c 2.059,-0.289 4.147,-0.49 6.265,-0.591 m 0,150.437 v -6.711 c -2.118,-0.1 -4.206,-0.301 -6.265,-0.59 v 6.768 c 0.288,0.044 0.577,0.072 0.864,0.102 l 0.245,-2.751 3.355,0.288 -0.244,2.779 c 0.676,0.043 1.368,0.086 2.045,0.115 m 8.006,-150.38 v -6.724 c -0.778,-0.043 -1.541,-0.073 -2.318,-0.101 v 2.765 h -3.356 v -2.779 c -0.777,0.014 -1.555,0.042 -2.332,0.072 v 6.71 c 1.194,-0.058 2.376,-0.086 3.571,-0.086 1.497,0 2.966,0.043 4.435,0.143 m 0,150.337 V 73.93 c -1.469,0.101 -2.938,0.144 -4.435,0.144 -1.195,0 -2.377,-0.029 -3.571,-0.087 v 6.711 c 0.489,0.029 0.964,0.043 1.454,0.058 v -2.765 h 3.355 v 2.78 c 1.066,-0.015 2.131,-0.058 3.197,-0.116 M 90.72,-68.789 v -3.96 l -0.303,-0.058 0.303,-1.713 v -1.065 c -1.095,-0.159 -2.189,-0.317 -3.283,-0.433 l -0.245,2.751 -3.355,-0.302 0.245,-2.765 c -0.389,-0.029 -0.792,-0.058 -1.181,-0.072 v 6.724 c 2.649,0.159 5.256,0.461 7.819,0.893 m 0,145.786 v -3.96 c -2.563,0.433 -5.17,0.734 -7.819,0.893 v 6.725 c 0.1,0 0.202,-0.014 0.302,-0.014 l -0.245,-2.751 3.355,-0.302 0.246,2.793 c 1.166,-0.129 2.318,-0.274 3.47,-0.446 l -0.475,-2.736 z m 0,-152.582 c 0.058,0.014 0.115,0.028 0.187,0.028 l -0.187,1.037 z m 4.839,7.805 v -6.884 c -0.447,-0.101 -0.893,-0.201 -1.354,-0.288 l -0.476,2.722 -3.009,-0.519 v 3.96 c 1.627,0.288 3.255,0.62 4.839,1.009 m 0,146.692 v -6.883 c -1.584,0.389 -3.212,0.72 -4.839,1.008 v 3.96 l 2.131,-0.374 0.49,2.75 c 0.749,-0.144 1.483,-0.288 2.218,-0.461 m 4.55,-145.426 v -4.103 l -3.212,-0.864 0.735,-2.693 c -0.691,-0.173 -1.382,-0.346 -2.073,-0.49 v 6.884 c 1.54,0.374 3.052,0.792 4.55,1.266 m 0,144.289 v -7.013 c -1.498,0.475 -3.01,0.893 -4.55,1.267 v 6.883 c 0.402,-0.086 0.806,-0.173 1.209,-0.273 l -0.72,-2.678 3.24,-0.879 0.734,2.707 c 0.029,0 0.058,-0.014 0.087,-0.014 m 0.288,-144.187 v -5.155 l -0.245,0.95 h -0.043 v 4.103 c 0.1,0.03 0.202,0.073 0.288,0.102 m 0,144.1 v -7.027 c -0.086,0.043 -0.188,0.072 -0.288,0.101 v 7.013 c 0.1,-0.029 0.202,-0.057 0.288,-0.087 m 6.84,-141.523 v -6.883 l -0.835,2.275 -3.154,-1.152 0.95,-2.621 c -1.094,-0.388 -2.203,-0.749 -3.326,-1.08 l -0.475,1.729 v 5.155 c 2.332,0.734 4.608,1.598 6.84,2.577 m 0,139.19 v -7.257 c -2.232,0.965 -4.508,1.829 -6.84,2.563 v 7.027 c 1.008,-0.288 1.987,-0.604 2.966,-0.935 l -0.936,-2.607 3.154,-1.152 0.95,2.635 c 0.231,-0.101 0.475,-0.187 0.706,-0.274 m 22.061,-124.157 v -6.364 l -0.447,0.532 -2.563,-2.159 1.786,-2.132 c -0.907,-0.734 -1.829,-1.454 -2.765,-2.145 l -1.599,2.26 -2.75,-1.929 1.599,-2.276 c -0.965,-0.662 -1.945,-1.296 -2.938,-1.9 l -1.383,2.391 -2.908,-1.671 1.397,-2.419 c -1.023,-0.576 -2.06,-1.123 -3.097,-1.642 l -1.18,2.506 -3.039,-1.411 1.181,-2.534 c -1.066,-0.476 -2.146,-0.937 -3.24,-1.368 l -0.115,0.345 v 6.883 c 8.28,3.614 15.754,8.741 22.061,15.033 m 0,109.585 -1.124,-1.34 -2.563,2.161 1.771,2.117 c -0.907,0.734 -1.843,1.439 -2.793,2.116 l -1.598,-2.274 -2.751,1.928 1.584,2.262 c -0.965,0.647 -1.958,1.267 -2.952,1.871 l -1.397,-2.419 -2.909,1.685 1.383,2.405 c -1.023,0.561 -2.059,1.095 -3.111,1.599 l -1.195,-2.535 -3.038,1.425 1.166,2.521 c -0.835,0.359 -1.685,0.719 -2.534,1.05 v -7.257 c 8.28,-3.628 15.754,-8.755 22.061,-15.048 z m 3.916,-105.337 v -5.86 l -1.986,-1.987 1.972,-1.958 c -0.835,-0.822 -1.699,-1.614 -2.563,-2.391 l -1.339,1.584 v 6.364 c 1.368,1.368 2.678,2.78 3.916,4.248 m 0,99.678 v -6.322 c -1.238,1.469 -2.548,2.88 -3.916,4.248 v 7.733 l 0.677,0.792 c 0.878,-0.763 1.742,-1.541 2.591,-2.347 l -1.958,-1.958 2.376,-2.376 z m 7.748,-88.676 v -7.329 l -1.066,-1.527 1.066,-0.748 v -2.478 c -0.288,-0.388 -0.591,-0.777 -0.893,-1.166 l -2.132,1.772 -2.159,-2.564 2.145,-1.8 c -0.763,-0.879 -1.555,-1.742 -2.361,-2.578 l -1.944,1.945 -0.404,-0.389 v 5.86 c 2.91,3.413 5.515,7.085 7.748,11.002 m 0,83.448 v -1.411 l -1.57,-1.109 1.57,-2.246 v -7.329 c -2.233,3.916 -4.838,7.589 -7.748,11.001 v 6.322 l 1.743,1.742 c 0.806,-0.849 1.598,-1.699 2.376,-2.578 l -2.117,-1.77 2.16,-2.579 2.131,1.787 c 0.504,-0.606 0.979,-1.21 1.455,-1.83 m 0,-1.411 v 1.411 c 0.245,-0.316 0.475,-0.619 0.705,-0.921 z m 0,-94.119 v 2.478 l 1.224,-0.85 c -0.403,-0.548 -0.807,-1.095 -1.224,-1.628 m 8.582,36.519 v -15.279 l -0.216,-0.589 0.216,-0.087 v -3.615 l -1.425,0.663 -1.426,-3.039 2.549,-1.18 c -0.519,-1.052 -1.052,-2.103 -1.598,-3.125 l -2.42,1.396 -1.684,-2.908 2.433,-1.397 c -0.605,-1.008 -1.224,-2.001 -1.872,-2.966 l -2.275,1.584 -0.864,-1.224 v 7.329 c 4.248,7.416 7.214,15.667 8.582,24.437 m 0,43.013 -1.8,-0.835 -1.411,3.039 2.52,1.18 c -0.533,1.051 -1.08,2.088 -1.642,3.096 l -2.433,-1.397 -1.671,2.909 2.405,1.397 c -0.619,0.993 -1.253,1.973 -1.901,2.938 l -2.289,-1.599 -0.36,0.504 v -7.329 c 4.248,-7.416 7.214,-15.668 8.582,-24.438 v 15.279 l -0.518,1.425 0.518,0.188 z m 0,-3.643 v 3.643 l 0.749,0.345 c 0.476,-1.051 0.922,-2.131 1.353,-3.225 z m 2.203,-56.117 v -0.662 c -0.359,-0.893 -0.72,-1.787 -1.108,-2.664 l -1.095,0.503 v 3.615 z m 0,53.338 v -3.529 l -0.547,-0.143 0.547,-2.045 v -39.283 l -0.331,-1.181 0.331,-0.087 v -3.499 l -1.267,0.461 -0.936,-2.564 v 15.279 c 0.576,3.673 0.879,7.416 0.879,11.247 0,3.815 -0.303,7.574 -0.879,11.231 v 15.279 l 0.634,-1.743 z m 0,-3.529 v 3.529 l 1.065,0.388 c 0.39,-1.094 0.735,-2.218 1.067,-3.341 z m 0,-46.238 v 3.499 l 2.391,-0.647 c -0.317,-1.123 -0.677,-2.233 -1.037,-3.341 z m 0,-4.233 v 0.662 l 0.216,-0.086 c -0.071,-0.188 -0.144,-0.375 -0.216,-0.576 m 4.062,41.025 v -3.484 l -1.945,-0.173 0.288,-3.341 1.657,0.143 V 4.248 l -1.47,-0.014 -0.014,-3.355 h 1.484 V -2.52 l -1.584,0.144 -0.288,-3.341 1.872,-0.173 v -3.469 l -2.262,0.388 -0.59,-3.298 2.765,-0.489 c -0.231,-1.152 -0.476,-2.29 -0.735,-3.428 l -2.692,0.721 -0.548,-2.059 v 39.283 l 0.317,-1.196 2.707,0.72 c 0.289,-1.123 0.547,-2.261 0.778,-3.412 l -2.737,-0.49 0.577,-3.297 z m 0,-3.484 v 3.484 l 0.331,0.058 c 0.186,-1.152 0.345,-2.304 0.474,-3.47 z m 0,-20.376 v 3.469 l 0.907,-0.071 c -0.115,-1.167 -0.275,-2.333 -0.433,-3.485 z m 1.223,10.238 v -2.664 c -0.014,-0.274 -0.029,-0.547 -0.057,-0.835 l -1.166,0.1 v 3.399 z m 0,5.213 V 4.248 h -1.223 v 3.398 l 1.123,0.102 c 0.028,-0.548 0.071,-1.109 0.1,-1.656 m 0,-1.844 v 1.844 c 0.029,-0.619 0.058,-1.225 0.072,-1.844 z m 0,-6.033 v 2.664 h 0.086 c -0.014,-0.893 -0.043,-1.772 -0.086,-2.664" /></g><g
           transform="translate(133.25,64.6875)"
           id="g56"><path
             id="path58"
             style="fill:#1a5aa9;fill-opacity:1;fill-rule:nonzero;stroke:none"
             d="m 0,0 c 0,-0.49 0.113,-0.869 0.338,-1.136 0.226,-0.266 0.484,-0.4 0.774,-0.4 0.279,0 0.512,0.109 0.698,0.328 0.186,0.218 0.279,0.576 0.279,1.074 0,0.512 -0.1,0.887 -0.3,1.125 C 1.588,1.229 1.337,1.349 1.037,1.349 0.747,1.349 0.501,1.234 0.301,1.007 0.1,0.779 0,0.444 0,0 M 3.421,3.292 1.96,3.132 C 1.925,3.433 1.832,3.654 1.681,3.798 1.531,3.94 1.335,4.013 1.096,4.013 0.777,4.013 0.508,3.869 0.287,3.583 0.067,3.296 -0.072,2.7 -0.129,1.794 0.247,2.238 0.714,2.46 1.273,2.46 c 0.63,0 1.17,-0.24 1.62,-0.72 0.449,-0.479 0.673,-1.099 0.673,-1.858 0,-0.806 -0.236,-1.452 -0.709,-1.94 -0.472,-0.486 -1.079,-0.73 -1.82,-0.73 -0.795,0 -1.449,0.309 -1.961,0.927 -0.512,0.618 -0.768,1.63 -0.768,3.038 0,1.442 0.267,2.482 0.8,3.12 0.534,0.638 1.227,0.956 2.079,0.956 0.598,0 1.093,-0.167 1.485,-0.502 C 3.064,4.416 3.314,3.93 3.421,3.292 M -6.562,2.466 c 0,0.486 -0.111,0.864 -0.335,1.133 -0.224,0.268 -0.483,0.402 -0.776,0.402 -0.28,0 -0.512,-0.109 -0.696,-0.33 -0.184,-0.22 -0.277,-0.581 -0.277,-1.082 0,-0.509 0.101,-0.882 0.301,-1.12 0.201,-0.239 0.451,-0.357 0.752,-0.357 0.29,0 0.535,0.115 0.733,0.344 0.199,0.229 0.298,0.565 0.298,1.01 m -3.416,-3.299 1.461,0.162 c 0.036,-0.298 0.129,-0.517 0.28,-0.661 0.15,-0.144 0.349,-0.215 0.596,-0.215 0.311,0 0.577,0.144 0.795,0.43 0.218,0.286 0.358,0.881 0.419,1.783 -0.38,-0.44 -0.854,-0.661 -1.424,-0.661 -0.619,0 -1.153,0.239 -1.603,0.718 -0.449,0.477 -0.674,1.099 -0.674,1.866 0,0.799 0.237,1.442 0.711,1.931 0.475,0.489 1.08,0.733 1.813,0.733 0.799,0 1.454,-0.309 1.966,-0.927 0.513,-0.617 0.768,-1.634 0.768,-3.048 0,-1.439 -0.266,-2.477 -0.8,-3.115 -0.534,-0.638 -1.228,-0.956 -2.084,-0.956 -0.616,0 -1.114,0.164 -1.493,0.491 -0.379,0.328 -0.623,0.818 -0.731,1.469 m -6.743,3.948 c 0,-0.301 0.085,-0.535 0.255,-0.704 0.17,-0.168 0.397,-0.252 0.679,-0.252 0.287,0 0.516,0.085 0.688,0.255 0.172,0.17 0.258,0.405 0.258,0.706 0,0.283 -0.085,0.51 -0.255,0.68 -0.171,0.17 -0.395,0.256 -0.675,0.256 -0.29,0 -0.521,-0.086 -0.692,-0.258 -0.172,-0.172 -0.258,-0.4 -0.258,-0.683 m -0.14,-3.373 c 0,-0.415 0.107,-0.739 0.319,-0.971 0.214,-0.234 0.48,-0.35 0.798,-0.35 0.312,0 0.57,0.112 0.774,0.336 0.204,0.223 0.306,0.547 0.306,0.969 0,0.369 -0.104,0.666 -0.312,0.889 -0.207,0.224 -0.47,0.335 -0.789,0.335 -0.369,0 -0.644,-0.127 -0.824,-0.381 -0.182,-0.254 -0.272,-0.53 -0.272,-0.827 m -0.172,1.853 c -0.39,0.165 -0.674,0.391 -0.851,0.679 -0.177,0.289 -0.266,0.605 -0.266,0.949 0,0.587 0.205,1.072 0.615,1.456 0.41,0.383 0.993,0.574 1.748,0.574 0.749,0 1.329,-0.191 1.744,-0.574 0.413,-0.384 0.62,-0.869 0.62,-1.456 0,-0.366 -0.095,-0.691 -0.285,-0.975 -0.19,-0.285 -0.457,-0.503 -0.8,-0.653 0.437,-0.175 0.769,-0.431 0.996,-0.768 0.227,-0.337 0.341,-0.724 0.341,-1.166 0,-0.726 -0.232,-1.317 -0.696,-1.771 -0.463,-0.455 -1.08,-0.683 -1.85,-0.683 -0.716,0 -1.312,0.189 -1.788,0.564 -0.562,0.444 -0.844,1.052 -0.844,1.826 0,0.426 0.106,0.817 0.317,1.174 0.212,0.356 0.545,0.63 0.999,0.824 m -5.75,-4.248 h -1.509 v 5.687 c -0.552,-0.515 -1.202,-0.896 -1.95,-1.143 v 1.37 c 0.394,0.129 0.822,0.373 1.284,0.732 0.461,0.361 0.778,0.78 0.95,1.26 h 1.225 z" /></g><g
           transform="translate(178.9536,91.6353)"
           id="g60"><path
             id="path62"
             style="fill:#1a5aa9;fill-opacity:1;fill-rule:nonzero;stroke:none"
             d="m 0,0 v 14.717 l 1.958,0.792 v 6.077 L 0.015,22.694 H 0 v 10.354 l 1.958,0.792 v 6.077 L 0.015,41.04 0,41.026 V 51.322 H 2.16 V 46.513 C 1.829,46.483 1.512,46.44 1.195,46.411 V 44.396 L 3.831,42.897 3.816,30.874 1.195,29.809 V 28.872 27.115 26.064 L 3.831,24.553 3.816,12.543 1.195,11.478 V 0 Z" /></g><g
           transform="translate(178.9536,142.9575)"
           id="g64"><path
             id="path66"
             style="fill:#1a5aa9;fill-opacity:1;fill-rule:nonzero;stroke:none"
             d="m 0,0 v -10.296 l -1.944,-1.109 v -6.077 L 0,-18.274 v -10.354 l -1.944,-1.108 v -6.077 L 0,-36.605 v -14.717 h -1.354 v 11.506 l -2.534,1.037 v 12.023 l 2.534,1.441 v 1.108 1.757 0.979 l -2.534,1.023 v 12.023 l 2.534,1.441 v 1.756 C -2.217,-5.357 -3.067,-5.501 -3.917,-5.674 V 0 Z" /></g><g
           transform="translate(175.0371,142.9575)"
           id="g68"><path
             id="path70"
             style="fill:#1a5aa9;fill-opacity:1;fill-rule:nonzero;stroke:none"
             d="m 0,0 v -5.674 c -6.624,-1.368 -12.687,-3.931 -17.899,-6.84 V 0 Z" /></g><g
           transform="translate(152.9761,127.9233)"
           id="g72"><path
             id="path74"
             style="fill:#1a5aa9;fill-opacity:1;fill-rule:nonzero;stroke:none"
             d="M 0,0 V 16.676 H 1.901 V 1.225 C 1.238,0.807 0.605,0.403 0,0" /></g><g
           transform="translate(152.9761,146.8599)"
           id="g76"><path
             id="path78"
             style="fill:#1a5aa9;fill-opacity:1;fill-rule:nonzero;stroke:none"
             d="M 0,0 V 15.97 L 5.486,4.176 1.037,0 Z" /></g><g
           transform="translate(152.9761,162.8291)"
           id="g80"><path
             id="path82"
             style="fill:#1a5aa9;fill-opacity:1;fill-rule:nonzero;stroke:none"
             d="m 0,0 v -15.97 l -6.84,-0.029 v 30.658 z" /></g><g
           transform="translate(152.9761,144.5991)"
           id="g84"><path
             id="path86"
             style="fill:#1a5aa9;fill-opacity:1;fill-rule:nonzero;stroke:none"
             d="m 0,0 v -16.676 c -0.663,-0.417 -1.296,-0.849 -1.915,-1.266 V 0 Z" /></g><g
           transform="translate(146.1362,123.0854)"
           id="g88"><path
             id="path90"
             style="fill:#1a5aa9;fill-opacity:1;fill-rule:nonzero;stroke:none"
             d="M 0,0 V 21.514 H 1.814 V 1.368 C 1.181,0.893 0.576,0.446 0,0" /></g><g
           transform="translate(146.1362,177.4888)"
           id="g92"><path
             id="path94"
             style="fill:#1a5aa9;fill-opacity:1;fill-rule:nonzero;stroke:none"
             d="M 0,0 V -30.658 H -0.288 V 0.619 Z" /></g><g
           transform="translate(146.1362,144.5991)"
           id="g96"><path
             id="path98"
             style="fill:#1a5aa9;fill-opacity:1;fill-rule:nonzero;stroke:none"
             d="m 0,0 v -21.514 c -0.086,-0.072 -0.187,-0.144 -0.288,-0.215 V 0 Z" /></g><g
           transform="translate(145.8481,178.1079)"
           id="g100"><path
             id="path102"
             style="fill:#1a5aa9;fill-opacity:1;fill-rule:nonzero;stroke:none"
             d="m 0,0 v -31.277 l -0.547,-0.015 -4.003,9.663 V 2.434 l 2.865,1.18 z" /></g><g
           transform="translate(145.8481,144.5991)"
           id="g104"><path
             id="path106"
             style="fill:#1a5aa9;fill-opacity:1;fill-rule:nonzero;stroke:none"
             d="m 0,0 v -21.729 c -1.857,-1.456 -3.355,-2.751 -4.55,-3.817 V 0 Z" /></g><g
           transform="translate(141.2979,93.061)"
           id="g108"><path
             id="path110"
             style="fill:#1a5aa9;fill-opacity:1;fill-rule:nonzero;stroke:none"
             d="M 0,0 V 7.862 L 2.621,4.622 V 0 Z" /></g><g
           transform="translate(141.2979,180.5415)"
           id="g112"><path
             id="path114"
             style="fill:#1a5aa9;fill-opacity:1;fill-rule:nonzero;stroke:none"
             d="m 0,0 v -24.062 l -3.902,9.446 0.057,13.017 z" /></g><g
           transform="translate(141.2979,144.5991)"
           id="g116"><path
             id="path118"
             style="fill:#1a5aa9;fill-opacity:1;fill-rule:nonzero;stroke:none"
             d="m 0,0 v -25.546 c -2.333,-2.131 -3.413,-3.428 -3.413,-3.428 H -4.838 V 0 Z" /></g><g
           transform="translate(141.2979,100.9233)"
           id="g120"><path
             id="path122"
             style="fill:#1a5aa9;fill-opacity:1;fill-rule:nonzero;stroke:none"
             d="M 0,0 V -7.862 H -4.838 V 3.039 h 2.376 z" /></g><path
           id="path124"
           style="fill:#1a5aa9;fill-opacity:1;fill-rule:nonzero;stroke:none"
           d="m 136.459,112.199 h 2.001 v -5.371 h -2.001 z" /><path
           id="path126"
           style="fill:#1a5aa9;fill-opacity:1;fill-rule:nonzero;stroke:none"
           d="M 136.459,115.626 H 128.64 V 144.6 h 7.819 z" /><path
           id="path128"
           style="fill:#1a5aa9;fill-opacity:1;fill-rule:nonzero;stroke:none"
           d="m 136.459,106.828 h -7.819 v 5.371 h 7.819 z" /><path
           id="path130"
           style="fill:#1a5aa9;fill-opacity:1;fill-rule:nonzero;stroke:none"
           d="m 136.459,93.061 h -7.819 v 10.901 h 7.819 z" /><path
           id="path132"
           style="fill:#1a5aa9;fill-opacity:1;fill-rule:nonzero;stroke:none"
           d="m 128.64,185.768 h 7.07 V 146.96 h -7.07 z" /><path
           id="path134"
           style="fill:#1a5aa9;fill-opacity:1;fill-rule:nonzero;stroke:none"
           d="m 128.64,146.961 h -0.015 v 38.808 h 0.015 z" /><path
           id="path136"
           style="fill:#1a5aa9;fill-opacity:1;fill-rule:nonzero;stroke:none"
           d="m 128.64,115.626 h -8.006 V 144.6 h 8.006 z" /><path
           id="path138"
           style="fill:#1a5aa9;fill-opacity:1;fill-rule:nonzero;stroke:none"
           d="m 128.64,106.828 h -8.006 v 5.371 h 8.006 z" /><path
           id="path140"
           style="fill:#1a5aa9;fill-opacity:1;fill-rule:nonzero;stroke:none"
           d="m 128.64,93.061 h -8.006 v 10.901 h 8.006 z" /><path
           id="path142"
           style="fill:#1a5aa9;fill-opacity:1;fill-rule:nonzero;stroke:none"
           d="m 120.634,185.97 h 5.458 v -39.01 h -5.458 z" /><path
           id="path144"
           style="fill:#1a5aa9;fill-opacity:1;fill-rule:nonzero;stroke:none"
           d="m 120.634,146.961 h -4.781 v 39.01 h 4.781 z" /><path
           id="path146"
           style="fill:#1a5aa9;fill-opacity:1;fill-rule:nonzero;stroke:none"
           d="M 120.634,115.626 H 114.37 V 144.6 h 6.264 z" /><path
           id="path148"
           style="fill:#1a5aa9;fill-opacity:1;fill-rule:nonzero;stroke:none"
           d="m 120.634,106.828 h -6.264 v 5.371 h 6.264 z" /><path
           id="path150"
           style="fill:#1a5aa9;fill-opacity:1;fill-rule:nonzero;stroke:none"
           d="m 120.634,93.061 h -6.264 v 10.901 h 6.264 z" /><path
           id="path152"
           style="fill:#1a5aa9;fill-opacity:1;fill-rule:nonzero;stroke:none"
           d="m 114.37,151.525 h 0.273 v -5.89 h -0.273 z" /><path
           id="path154"
           style="fill:#1a5aa9;fill-opacity:1;fill-rule:nonzero;stroke:none"
           d="m 114.37,158.207 h 0.273 v -5.89 h -0.273 z" /><path
           id="path156"
           style="fill:#1a5aa9;fill-opacity:1;fill-rule:nonzero;stroke:none"
           d="m 114.37,164.989 h 0.273 v -6.177 h -0.273 z" /><g
           transform="translate(114.3696,166.7319)"
           id="g158"><path
             id="path160"
             style="fill:#1a5aa9;fill-opacity:1;fill-rule:nonzero;stroke:none"
             d="m 0,0 v 15.854 c 0.101,0.101 0.216,0.216 0.317,0.332 V 0 Z" /></g><g
           transform="translate(114.3696,182.5864)"
           id="g162"><path
             id="path164"
             style="fill:#1a5aa9;fill-opacity:1;fill-rule:nonzero;stroke:none"
             d="M 0,0 V -15.854 H -6.278 V -4.421 C -4.219,-3.456 -2.03,-2.06 0,0" /></g><path
           id="path166"
           style="fill:#1a5aa9;fill-opacity:1;fill-rule:nonzero;stroke:none"
           d="m 114.37,158.812 h -6.278 v 6.177 h 6.278 z" /><path
           id="path168"
           style="fill:#1a5aa9;fill-opacity:1;fill-rule:nonzero;stroke:none"
           d="m 114.37,152.317 h -6.278 v 5.89 h 6.278 z" /><path
           id="path170"
           style="fill:#1a5aa9;fill-opacity:1;fill-rule:nonzero;stroke:none"
           d="m 114.37,145.635 h -6.278 v 5.89 h 6.278 z" /><path
           id="path172"
           style="fill:#1a5aa9;fill-opacity:1;fill-rule:nonzero;stroke:none"
           d="m 114.37,115.626 h -6.278 V 144.6 h 6.278 z" /><path
           id="path174"
           style="fill:#1a5aa9;fill-opacity:1;fill-rule:nonzero;stroke:none"
           d="m 114.37,106.828 h -6.278 v 5.371 h 6.278 z" /><path
           id="path176"
           style="fill:#1a5aa9;fill-opacity:1;fill-rule:nonzero;stroke:none"
           d="m 114.37,93.061 h -6.278 v 10.901 h 6.278 z" /><g
           transform="translate(108.0913,178.1655)"
           id="g178"><path
             id="path180"
             style="fill:#1a5aa9;fill-opacity:1;fill-rule:nonzero;stroke:none"
             d="m 0,0 v -11.434 h -6.336 v 9.547 C -4.795,-1.671 -2.506,-1.167 0,0" /></g><path
           id="path182"
           style="fill:#1a5aa9;fill-opacity:1;fill-rule:nonzero;stroke:none"
           d="m 108.091,158.812 h -6.336 v 6.177 h 6.336 z" /><path
           id="path184"
           style="fill:#1a5aa9;fill-opacity:1;fill-rule:nonzero;stroke:none"
           d="m 108.091,152.317 h -6.336 v 5.89 h 6.336 z" /><g
           transform="translate(108.0913,151.5249)"
           id="g186"><path
             id="path188"
             style="fill:#1a5aa9;fill-opacity:1;fill-rule:nonzero;stroke:none"
             d="m 0,0 v -5.89 h -0.85 l 0.015,0.044 -5.501,2.217 V 0 Z" /></g><g
           transform="translate(108.0913,144.5991)"
           id="g190"><path
             id="path192"
             style="fill:#1a5aa9;fill-opacity:1;fill-rule:nonzero;stroke:none"
             d="m 0,0 v -28.974 h -4.19 l -2.146,1.24 v 10.151 L -1.037,0 Z" /></g><path
           id="path194"
           style="fill:#1a5aa9;fill-opacity:1;fill-rule:nonzero;stroke:none"
           d="m 108.091,106.828 h -1.958 v 5.371 h 1.958 z" /><g
           transform="translate(108.0913,103.9624)"
           id="g196"><path
             id="path198"
             style="fill:#1a5aa9;fill-opacity:1;fill-rule:nonzero;stroke:none"
             d="m 0,0 v -10.901 h -6.336 v 7.07 L -3.355,0 Z" /></g><g
           transform="translate(101.7554,136.2461)"
           id="g200"><path
             id="path202"
             style="fill:#1a5aa9;fill-opacity:1;fill-rule:nonzero;stroke:none"
             d="M 0,0 2.606,8.353 0,9.446 Z" /></g><g
           transform="translate(101.7554,176.2788)"
           id="g204"><path
             id="path206"
             style="fill:#1a5aa9;fill-opacity:1;fill-rule:nonzero;stroke:none"
             d="m 0,0 v -9.547 h -12.672 v 3.687 c 1.296,1.18 5.745,4.91 10.699,5.687 0,0 0.749,-0.014 1.973,0.173" /></g><path
           id="path208"
           style="fill:#1a5aa9;fill-opacity:1;fill-rule:nonzero;stroke:none"
           d="m 101.755,158.812 h -8.194 v 6.177 h 8.194 z" /><path
           id="path210"
           style="fill:#1a5aa9;fill-opacity:1;fill-rule:nonzero;stroke:none"
           d="m 101.755,152.317 h -8.194 v 5.89 h 8.194 z" /><g
           transform="translate(101.7554,151.5249)"
           id="g212"><path
             id="path214"
             style="fill:#1a5aa9;fill-opacity:1;fill-rule:nonzero;stroke:none"
             d="M 0,0 V -3.629 L -2.391,-2.678 -3.456,-5.89 H -8.194 V 0 Z" /></g><g
           transform="translate(101.7554,145.6929)"
           id="g216"><path
             id="path218"
             style="fill:#1a5aa9;fill-opacity:1;fill-rule:nonzero;stroke:none"
             d="M 0,0 -0.907,0.375 -12.672,-36.763 V -49.882 L 0,-9.446 Z" /></g><g
           transform="translate(101.7554,127.0161)"
           id="g220"><path
             id="path222"
             style="fill:#1a5aa9;fill-opacity:1;fill-rule:nonzero;stroke:none"
             d="m 0,0 v -10.151 l -2.621,1.482 z" /></g><g
           transform="translate(101.7554,100.1313)"
           id="g224"><path
             id="path226"
             style="fill:#1a5aa9;fill-opacity:1;fill-rule:nonzero;stroke:none"
             d="m 0,0 v -7.07 h -1.901 v 4.622 z" /></g><path
           id="path228"
           style="fill:#1a5aa9;fill-opacity:1;fill-rule:nonzero;stroke:none"
           d="M 101.755,76.833 H 95.189 V 90.21 h 6.566 z m 6.336,0 h -6.336 V 90.21 h 6.336 z m 6.279,0 h -6.278 V 90.21 h 6.278 z m 6.264,0 H 114.37 V 90.21 h 6.264 z m 8.006,0 h -8.006 V 90.21 h 8.006 z m 7.819,0 H 128.64 V 90.21 h 7.819 z m 4.839,0 H 136.46 V 90.21 h 4.838 z m 4.55,0 h -4.55 V 90.21 h 4.55 z m 0.288,0 h -0.288 V 90.21 h 0.288 z m 0,13.377 h 3.254 V 76.833 h -3.254 z" /><g
           transform="translate(89.083,80.9209)"
           id="g230"><path
             id="path232"
             style="fill:#1a5aa9;fill-opacity:1;fill-rule:nonzero;stroke:none"
             d="M 0,0 V 3.658 L 2.031,2.751 0.936,0.145 C 0.936,0.145 0.59,0.072 0,0" /></g><g
           transform="translate(89.083,124.1079)"
           id="g234"><path
             id="path236"
             style="fill:#1a5aa9;fill-opacity:1;fill-rule:nonzero;stroke:none"
             d="M 0,0 V 20.491 H 8.712 L 1.987,-1.138 Z" /></g><g
           transform="translate(89.083,170.4185)"
           id="g238"><path
             id="path240"
             style="fill:#1a5aa9;fill-opacity:1;fill-rule:nonzero;stroke:none"
             d="m 0,0 v -3.687 h -0.374 v 3.341 c 0,0 0.129,0.129 0.374,0.346" /></g><g
           transform="translate(89.083,144.5991)"
           id="g242"><path
             id="path244"
             style="fill:#1a5aa9;fill-opacity:1;fill-rule:nonzero;stroke:none"
             d="m 0,0 v -20.491 l -4.579,2.62 V 0 Z" /></g><g
           transform="translate(89.083,108.9302)"
           id="g246"><path
             id="path248"
             style="fill:#1a5aa9;fill-opacity:1;fill-rule:nonzero;stroke:none"
             d="M 0,0 V -13.119 L -3.082,-22.954 0,-24.351 v -3.658 c -1.8,-0.216 -5.875,-0.446 -9.202,1.138 l -2.966,1.411 v 2.823 l 1.267,2.793 4.119,-1.612 z" /></g><g
           transform="translate(76.915,130.9907)"
           id="g250"><path
             id="path252"
             style="fill:#1a5aa9;fill-opacity:1;fill-rule:nonzero;stroke:none"
             d="M 0,0 V 13.594 H 6.02 V -3.571 Z" /></g><g
           transform="translate(76.915,144.5845)"
           id="g254"><path
             id="path256"
             style="fill:#1a5aa9;fill-opacity:1;fill-rule:nonzero;stroke:none"
             d="m 0,0 v -13.594 l -0.821,0.49 V 0 Z" /></g><g
           transform="translate(76.915,86.2935)"
           id="g258"><path
             id="path260"
             style="fill:#1a5aa9;fill-opacity:1;fill-rule:nonzero;stroke:none"
             d="m 0,0 v -2.823 l -0.821,0.403 v 0.576 z" /></g><g
           transform="translate(76.0942,144.5845)"
           id="g262"><path
             id="path264"
             style="fill:#1a5aa9;fill-opacity:1;fill-rule:nonzero;stroke:none"
             d="M 0,0 V -13.104 L -4.089,-10.685 -4.104,0 Z" /></g><g
           transform="translate(76.0942,84.4497)"
           id="g266"><path
             id="path268"
             style="fill:#1a5aa9;fill-opacity:1;fill-rule:nonzero;stroke:none"
             d="m 0,0 v -0.576 l -0.216,0.101 z" /></g></g></g></g></svg>